SplineFontDB: 3.0
FontName: Fiati
FullName: Fiati
FamilyName: Fiati
Weight: Regular
Copyright: Copyright \\251 2014 Steinberg Media Technologies GmbH. This font is licensed under the SIL Open Font License \\(http://scripts.sil.org/OFL\\).
Version: 0.1
ItalicAngle: 0
UnderlinePosition: -150
UnderlineWidth: 50
Ascent: 800
Descent: 200
InvalidEm: 0
sfntRevision: 0x0001e665
LayerCount: 2
Layer: 0 0 "Back" 1
Layer: 1 0 "Fore" 0
XUID: [1021 666 -989433189 12354256]
StyleMap: 0x0000
FSType: 0
OS2Version: 3
OS2_WeightWidthSlopeOnly: 0
OS2_UseTypoMetrics: 0
CreationTime: -814369603
ModificationTime: 1570104909
PfmFamily: 81
TTFWeight: 400
TTFWidth: 5
LineGap: 0
VLineGap: 0
Panose: 5 6 0 0 0 0 0 0 0 0
OS2TypoAscent: 2012
OS2TypoAOffset: 0
OS2TypoDescent: -2012
OS2TypoDOffset: 0
OS2TypoLinegap: 0
OS2WinAscent: 2012
OS2WinAOffset: 0
OS2WinDescent: 2012
OS2WinDOffset: 0
HheadAscent: 2012
HheadAOffset: 0
HheadDescent: -2012
HheadDOffset: 0
OS2SubXSize: 650
OS2SubYSize: 600
OS2SubXOff: 0
OS2SubYOff: 75
OS2SupXSize: 650
OS2SupYSize: 600
OS2SupXOff: 0
OS2SupYOff: 350
OS2StrikeYSize: 50
OS2StrikeYPos: 165
OS2CapHeight: 475
OS2XHeight: 275
OS2Vendor: 'SMTG'
OS2CodePages: 00000001.00000000
OS2UnicodeRanges: 00000000.12004000.01000000.00000000
MarkAttachClasses: 1
DEI: 91125

StartChar: .notdef
Encoding: 65536 -1 0
Width: 500
Flags: MW
HStem: 0 50<100 400 100 450> 483 50<100 400 100 100>
VStem: 50 50<50 50 50 483> 400 50<50 483 483 483>
LayerCount: 2
Fore
SplineSet
50 0 m 1
 50 533 l 1
 450 533 l 1
 450 0 l 1
 50 0 l 1
100 50 m 1
 400 50 l 1
 400 483 l 1
 100 483 l 1
 100 50 l 1
EndSplineSet
EndChar

StartChar: uniEC40
Encoding: 60480 60480 1
Width: 0
Flags: MW
HStem: 103 20<41 56 126 162> 117 44<121.5 126 126 143 119 159> 151 8 155 99<117.5 144.5> 248 34<119 143> 276 99<117.5 144.5> 369 35<119 143> 398 99<117.5 144.5> 491 28<85.5 143> 513 36<84 107> 589 7 590 24<67 67> 608 24<193 202 193 204> 626 21 641 19<135 143 119 152> 654 99<117.5 144.5> 747 36<119 143> 777 99<117.5 144.5> 854 16 870 33<119 143> 897 99<117.5 144.5> 988 10
VStem: 0 42<777 837> 36 21<763 837 837 841.5> 41 7 44 54<262 270 262 270 384 392> 51 19<750 857 857 862.5> 60 18<580.5 612> 64 23<815 839 935 954 954 959> 81 100<190.5 218 312 339.5 433.5 461 690 717.5 813 840.5 933 960.5> 175 68<656 716>
LayerCount: 2
Fore
SplineSet
131 777 m 0x000011
 104 777 81 799 81 827 c 0x000016
 81 854 104 876 131 876 c 0
 158 876 181 854 181 827 c 0
 181 799 158 777 131 777 c 0x000011
131 870 m 0
 107 870 87 851 87 827 c 0
 87 803 107 783 131 783 c 0
 155 783 175 803 175 827 c 0x0002940a
 175 851 155 870 131 870 c 0
131 654 m 0
 104 654 81 676 81 704 c 0
 81 731 104 753 131 753 c 0
 158 753 181 731 181 704 c 0
 181 676 158 654 131 654 c 0
131 747 m 0
 107 747 87 728 87 704 c 0
 87 680 107 660 131 660 c 0
 155 660 175 680 175 704 c 0
 175 728 155 747 131 747 c 0
131 398 m 0
 104 398 81 420 81 447 c 0
 81 475 104 497 131 497 c 0
 158 497 181 475 181 447 c 0
 181 420 158 398 131 398 c 0
131 491 m 0
 107 491 87 471 87 447 c 0
 87 423 107 404 131 404 c 0
 155 404 175 423 175 447 c 0
 175 471 155 491 131 491 c 0
131 276 m 0
 104 276 81 298 81 326 c 0
 81 353 104 375 131 375 c 0
 158 375 181 353 181 326 c 0
 181 298 158 276 131 276 c 0
131 369 m 0
 107 369 87 350 87 326 c 0
 87 302 107 282 131 282 c 0x00900010
 155 282 175 302 175 326 c 0
 175 350 155 369 131 369 c 0
131 155 m 0
 104 155 81 177 81 204 c 0
 81 232 104 254 131 254 c 0
 158 254 181 232 181 204 c 0
 181 177 158 155 131 155 c 0
131 248 m 0
 107 248 87 228 87 204 c 0
 87 180 107 161 131 161 c 0
 155 161 175 180 175 204 c 0
 175 228 155 248 131 248 c 0
131 897 m 0
 104 897 81 919 81 947 c 0
 81 974 104 996 131 996 c 0
 158 996 181 974 181 947 c 0x00600010
 181 919 158 897 131 897 c 0
131 990 m 0
 107 990 87 971 87 947 c 0x00900010
 87 923 107 903 131 903 c 0x00100010
 155 903 175 923 175 947 c 0
 175 971 155 990 131 990 c 0
204 608 m 2
 63 608 l 2
 61 608 60 610 60 611 c 0
 60 613 61 614 63 614 c 2
 204 614 l 2
 206 614 207 613 207 611 c 0
 207 610 206 608 204 608 c 2
62 370 m 0
 50 370 44 379 44 388 c 0
 44 397 50 406 61 406 c 0
 75 406 98 396 98 388 c 0
 98 380 77 370 62 370 c 0
61 400 m 0
 53 400 50 394 50 388 c 0
 50 380 56 376 62 376 c 0
 76 376 90 385 92 388 c 0
 90 391 74 400 61 400 c 0
62 248 m 0
 50 248 44 257 44 266 c 0
 44 274 50 283 61 283 c 0
 75 283 98 274 98 266 c 0
 98 258 77 248 62 248 c 0
61 277 m 0
 53 277 50 271 50 266 c 0x200021
 50 258 56 254 62 254 c 0
 76 254 90 263 92 266 c 0
 90 269 74 277 61 277 c 0
197 626 m 0
 188 626 132 627 132 627 c 2
 130 627 129 629 129 630 c 2x40000020
 129 644 l 2
 130 646 131 647 132 647 c 0
 167 647 174 654 183 663 c 0
 184 663 185 664 186 665 c 0
 189 668 192 674 195 679 c 0
 200 689 206 701 219 701 c 0
 237 701 243 686 243 672 c 0
 243 640 210 626 197 626 c 0
135 641 m 1x20000080
 135 633 l 1
 147 633 189 632 197 632 c 0
 207 632 237 644 237 672 c 0x00004008
 237 692 227 695 221 695 c 0
 209 695 204 685 200 677 c 0
 200 676 194 665 190 661 c 2
 187 658 l 2
 178 649 169 641 135 641 c 1x20000080
97 513 m 0x00004004
 71 513 60 537 60 546 c 0
 60 553 61 591 61 593 c 0
 61 595 63 596 64 596 c 2x00000808
 75 595 l 2x00010008
 76 595 78 594 78 592 c 0x00010004
 78 569 83 564 90 557 c 0
 92 557 101 550 103 549 c 0
 111 549 121 538 121 531 c 0x00010008
 121 526 120 522 118 520 c 0x00004008
 114 515 107 513 97 513 c 0x00004004
72 589 m 1
 67 590 l 1
 67 580 66 552 66 546 c 0
 66 541 74 519 97 519 c 0
 105 519 110 521 113 524 c 0
 115 526 115 528 115 529 c 0
 115 538 105 542 100 544 c 0
 96 546 91 548 88 551 c 0x00040422
 76 563 72 573 72 589 c 1
67 740 m 0
 62 741 57 745 53 747 c 0
 52 748 51 749 51 750 c 2
 51 857 l 2x000005
 51 868 38 874 24 880 c 0
 9 887 1 891 1 908 c 2
 1 974 l 2
 1 994 10 998 18 998 c 0
 24 998 31 996 35 994 c 0
 37 993 38 993 39 993 c 0
 50 989 70 981 70 954 c 2
 70 743 l 2
 70 742 69 741 67 740 c 0
57 857 m 2x00008020
 57 752 l 1
 64 748 l 1
 64 954 l 2
 64 977 48 983 37 987 c 0
 36 987 35 988 34 988 c 0
 29 990 23 992 18 992 c 0
 15 992 7 992 7 974 c 2x80000080
 7 911 l 2x00040422
 7 895 13 891 26 886 c 0
 27 886 28 885 29 885 c 0
 42 879 57 872 57 857 c 2x00008020
39 755 m 0x20000080
 26 760 14 768 2 774 c 0
 1 775 0 776 0 777 c 2x01000004
 0 856 l 2
 0 868 7 870 10 870 c 0
 14 870 17 868 20 867 c 2x80000080
 34 859 l 2
 42 853 42 845 42 837 c 2
 42 758 l 2
 42 757 41 756 39 755 c 0x20000080
6 856 m 2
 6 779 l 1
 36 763 l 1
 36 837 l 2
 36 846 35 852 31 854 c 2
 17 861 l 2x04000004
 15 862 13 864 10 864 c 0
 9 864 6 864 6 856 c 2
162 103 m 2x10000004
 56 103 l 2
 41 103 41 118 41 123 c 2
 41 149 l 2
 41 152 42 154 43 155 c 0
 47 159 51 159 55 159 c 2
 80 159 l 2
 88 159 98 159 107 143 c 2
 112 132 l 2x0a000040
 116 125 120 123 126 123 c 2
 162 123 l 2
 164 123 165 121 165 120 c 2
 165 107 l 2
 165 104 164 103 162 103 c 2x10000004
80 153 m 2
 55 153 l 2
 52 153 49 153 48 151 c 0
 47 150 47 149 47 147 c 2
 47 123 l 2
 47 112 50 109 56 109 c 2
 159 109 l 1
 159 117 l 1
 126 117 l 2
 117 117 111 121 107 130 c 2
 102 140 l 2
 95 153 87 153 80 153 c 2
EndSplineSet
EndChar

StartChar: uniEC41
Encoding: 60481 60481 2
Width: 0
Flags: MW
HStem: 0 18<123 143 158 162> 12 22<137 155 137 159> 42 51<115.5 122.5 55 123.5> 55 38<41 81 47 81>
VStem: 41 57<55 72 15 74> 93 19<52.5 54 54 72 72 72> 106 26<54 81> 123 8 152 13<14 15 2 18>
LayerCount: 2
Fore
SplineSet
120 42 m 0x8480
 111 42 106 47 106 54 c 2
 106 81 l 2
 106 87 111 93 118 93 c 0
 127 93 132 87 132 81 c 2
 132 54 l 2
 132 47 127 42 120 42 c 0x8480
126 81 m 2
 126 84 123 87 118 87 c 0
 115 87 112 84 112 81 c 2
 112 54 l 2
 112 51 115 48 118 48 c 0
 123 48 126 51 126 54 c 2
 126 81 l 2
96 13 m 0
 82 19 70 24 58 30 c 0
 44 38 41 54 41 55 c 2
 41 74 l 2
 41 91 51 93 55 93 c 2
 81 93 l 2
 92 93 98 85 98 72 c 2
 98 16 l 2
 98 14 97 13 96 13 c 0
47 74 m 2
 47 55 l 2
 47 54 50 41 61 36 c 2
 93 20 l 1
 93 72 l 2x4080
 92 85 86 87 81 87 c 2
 55 87 l 2
 49 87 47 82 47 74 c 2
162 0 m 2
 143 0 l 2
 137 0 130 1 125 8 c 0
 124 11 123 14 123 18 c 2
 123 22 l 2
 125 27 128 31 133 33 c 0
 134 34 136 34 138 34 c 0
 143 34 148 32 152 28 c 0x22
 155 25 157 21 158 18 c 2x4080
 162 18 l 2
 164 18 165 16 165 15 c 2
 165 3 l 2x41
 165 1 164 0 162 0 c 2
138 28 m 0x18
 132 26 130 23 129 20 c 0
 129 16 130 13 131 11 c 0
 133 7 137 6 143 6 c 2
 159 6 l 1
 159 12 l 1
 155 12 l 2
 154 12 152 13 152 15 c 0
 152 21 144 28 138 28 c 0x18
EndSplineSet
EndChar

StartChar: uniEC42
Encoding: 60482 60482 3
Width: 0
Flags: MW
HStem: 42 51<148.5 155 147.5 156>
VStem: 139 26<54 81>
LayerCount: 2
Fore
SplineSet
165 54 m 2
 165 47 159 42 153 42 c 0
 144 42 139 47 139 54 c 2
 139 81 l 2
 139 87 144 93 151 93 c 0
 159 93 165 87 165 81 c 2
 165 54 l 2
159 81 m 2
 159 84 156 87 151 87 c 0
 147 87 145 84 145 81 c 2
 145 54 l 2
 145 51 147 48 151 48 c 0
 156 48 159 51 159 54 c 2
 159 81 l 2
EndSplineSet
EndChar

StartChar: uniEC43
Encoding: 60483 60483 4
Width: 0
Flags: MW
HStem: 743 252<14 67>
VStem: 54 13<750 857 857 863.5>
LayerCount: 2
Fore
SplineSet
67 743 m 1
 54 750 l 1
 54 857 l 2
 54 870 39 877 25 883 c 0
 11 889 4 893 4 911 c 2
 4 974 l 2
 4 991 10 995 18 995 c 0
 24 995 31 993 35 991 c 0
 36 991 37 990 38 990 c 0
 49 986 67 979 67 954 c 2
 67 743 l 1
EndSplineSet
EndChar

StartChar: uniEC44
Encoding: 60484 60484 5
Width: 0
Flags: MW
HStem: 758 109<8 39>
VStem: 3 36<777 837>
LayerCount: 2
Fore
SplineSet
39 758 m 1
 3 777 l 1
 3 856 l 2
 3 864 6 867 10 867 c 0
 12 867 15 866 18 864 c 2
 33 857 l 2
 38 853 39 846 39 837 c 2
 39 758 l 1
EndSplineSet
EndChar

StartChar: uniEC45
Encoding: 60485 60485 6
Width: 0
Flags: MW
HStem: 900 93<118 144>
VStem: 84 94<934 960>
LayerCount: 2
Fore
SplineSet
178 947 m 0
 178 921 157 900 131 900 c 0
 105 900 84 921 84 947 c 0
 84 973 105 993 131 993 c 0
 157 993 178 973 178 947 c 0
EndSplineSet
EndChar

StartChar: uniEC46
Encoding: 60486 60486 7
Width: 0
Flags: MW
HStem: 780 93<118 144>
VStem: 84 94<814 840>
LayerCount: 2
Fore
SplineSet
178 827 m 0
 178 801 157 780 131 780 c 0
 105 780 84 801 84 827 c 0
 84 853 105 873 131 873 c 0
 157 873 178 853 178 827 c 0
EndSplineSet
EndChar

StartChar: uniEC47
Encoding: 60487 60487 8
Width: 0
Flags: MW
HStem: 657 93<118 144>
VStem: 84 94<691 717>
LayerCount: 2
Fore
SplineSet
178 704 m 0
 178 678 157 657 131 657 c 0
 105 657 84 678 84 704 c 0
 84 730 105 750 131 750 c 0
 157 750 178 730 178 704 c 0
EndSplineSet
EndChar

StartChar: uniEC48
Encoding: 60488 60488 9
Width: 0
Flags: MW
HStem: 629 15
VStem: 132 108<630 684 644 684>
LayerCount: 2
Fore
SplineSet
132 630 m 1
 132 644 l 1
 168 644 175 651 185 660 c 2
 188 663 l 2
 198 673 201 698 221 698 c 0
 227 698 240 696 240 672 c 0
 240 641 207 629 197 629 c 0
 188 629 132 630 132 630 c 1
EndSplineSet
EndChar

StartChar: uniEC49
Encoding: 60489 60489 10
Width: 0
Flags: MW
HStem: 516 40<87 87 87 106.5> 516 77<64 106.5>
VStem: 63 12
LayerCount: 2
Fore
SplineSet
64 593 m 1xa0
 75 592 l 1
 75 568 80 563 87 556 c 2
 90 553 l 2
 98 546 118 545 118 529 c 0
 118 525 116 516 97 516 c 0
 72 516 63 539 63 546 c 0
 63 553 64 593 64 593 c 1xa0
EndSplineSet
EndChar

StartChar: uniEC4A
Encoding: 60490 60490 11
Width: 0
Flags: MW
HStem: 401 93<118 144>
VStem: 84 94<434.5 460>
LayerCount: 2
Fore
SplineSet
178 447 m 0
 178 422 157 401 131 401 c 0
 105 401 84 422 84 447 c 0
 84 473 105 494 131 494 c 0
 157 494 178 473 178 447 c 0
EndSplineSet
EndChar

StartChar: uniEC4B
Encoding: 60491 60491 12
Width: 0
Flags: MW
HStem: 373 30<57 68.5 56.5 69.5>
VStem: 47 48<386 390.5 386 391.5>
LayerCount: 2
Fore
SplineSet
62 373 m 0
 52 373 47 380 47 388 c 0
 47 395 52 403 61 403 c 0
 76 403 95 393 95 388 c 0
 95 384 77 373 62 373 c 0
EndSplineSet
EndChar

StartChar: uniEC4C
Encoding: 60492 60492 13
Width: 0
Flags: MW
HStem: 279 93<118 144>
VStem: 84 94<313 339>
LayerCount: 2
Fore
SplineSet
178 326 m 0
 178 300 157 279 131 279 c 0
 105 279 84 300 84 326 c 0
 84 352 105 372 131 372 c 0
 157 372 178 352 178 326 c 0
EndSplineSet
EndChar

StartChar: uniEC4D
Encoding: 60493 60493 14
Width: 0
Flags: MW
HStem: 251 29<57 68.5 56.5 69.5>
VStem: 47 48<263.5 268.5 263.5 269.5>
LayerCount: 2
Fore
SplineSet
62 251 m 0
 52 251 47 259 47 266 c 0
 47 273 52 280 61 280 c 0
 76 280 95 271 95 266 c 0
 95 261 77 251 62 251 c 0
EndSplineSet
EndChar

StartChar: uniEC4E
Encoding: 60494 60494 15
Width: 0
Flags: MW
HStem: 158 93<118 144>
VStem: 84 94<191.5 217>
LayerCount: 2
Fore
SplineSet
178 204 m 0
 178 179 157 158 131 158 c 0
 105 158 84 179 84 204 c 0
 84 230 105 251 131 251 c 0
 157 251 178 230 178 204 c 0
EndSplineSet
EndChar

StartChar: uniEC4F
Encoding: 60495 60495 16
Width: 0
Flags: MW
HStem: 106 14<126 162 126 162>
VStem: 44 118<106 145 106 150.5>
LayerCount: 2
Fore
SplineSet
162 120 m 1
 162 106 l 1
 56 106 l 2
 46 106 44 114 44 123 c 2
 44 145 l 2
 44 156 50 156 55 156 c 2
 80 156 l 2
 88 156 96 156 104 142 c 2
 110 131 l 2
 114 123 118 120 126 120 c 2
 162 120 l 1
EndSplineSet
EndChar

StartChar: uniEC50
Encoding: 60496 60496 17
Width: 0
Flags: MW
HStem: 16 74<55 96> 55 35<44 81>
VStem: 44 51<72 74 74 77.5 72 79.5>
LayerCount: 2
Fore
SplineSet
95 72 m 2x60
 96 16 l 1
 96 16 73 26 60 33 c 0
 46 40 44 55 44 55 c 1
 44 74 l 2
 44 85 48 90 55 90 c 2
 81 90 l 2
 91 90 95 83 95 72 c 2x60
EndSplineSet
EndChar

StartChar: uniEC51
Encoding: 60497 60497 18
Width: 0
Flags: MW
HStem: 45 45<116.5 121.5 115.5 122.5>
VStem: 109 20<54 81>
LayerCount: 2
Fore
SplineSet
129 81 m 2
 129 54 l 2
 129 49 125 45 120 45 c 0
 113 45 109 49 109 54 c 2
 109 81 l 2
 109 86 113 90 118 90 c 0
 125 90 129 86 129 81 c 2
EndSplineSet
EndChar

StartChar: uniEC52
Encoding: 60498 60498 19
Width: 0
Flags: MW
HStem: 45 45<149.5 154.5 148.5 155.5>
VStem: 142 20<54 81>
LayerCount: 2
Fore
SplineSet
162 81 m 2
 162 54 l 2
 162 49 158 45 153 45 c 0
 146 45 142 49 142 54 c 2
 142 81 l 2
 142 86 146 90 151 90 c 0
 158 90 162 86 162 81 c 2
EndSplineSet
EndChar

StartChar: uniEC53
Encoding: 60499 60499 20
Width: 0
Flags: MW
HStem: 3 12<155 162 155 162>
VStem: 126 36<3 19.5>
LayerCount: 2
Fore
SplineSet
162 15 m 1
 162 3 l 1
 143 3 l 2
 137 3 131 4 128 9 c 0
 127 12 126 14 126 17 c 0
 126 22 129 27 134 30 c 0
 135 31 137 31 139 31 c 0
 147 31 155 22 155 15 c 1
 162 15 l 1
EndSplineSet
EndChar

StartChar: uniEC54
Encoding: 60500 60500 21
Width: 0
Flags: MW
HStem: 900 93<118 131>
VStem: 84 47<934 960>
LayerCount: 2
Fore
SplineSet
131 993 m 1
 131 900 l 1
 105 900 84 921 84 947 c 0
 84 973 105 993 131 993 c 1
EndSplineSet
EndChar

StartChar: uniEC55
Encoding: 60501 60501 22
Width: 0
Flags: MW
HStem: 780 93<118 131>
VStem: 84 47<814 840>
LayerCount: 2
Fore
SplineSet
131 873 m 1
 131 780 l 1
 105 780 84 801 84 827 c 0
 84 853 105 873 131 873 c 1
EndSplineSet
EndChar

StartChar: uniEC56
Encoding: 60502 60502 23
Width: 0
Flags: MW
HStem: 657 93<118 131>
VStem: 84 47<691 717>
LayerCount: 2
Fore
SplineSet
131 750 m 1
 131 657 l 1
 105 657 84 678 84 704 c 0
 84 730 105 750 131 750 c 1
EndSplineSet
EndChar

StartChar: uniEC57
Encoding: 60503 60503 24
Width: 0
Flags: MW
HStem: 401 93<118 131>
VStem: 84 47<434.5 460>
LayerCount: 2
Fore
SplineSet
131 494 m 1
 131 401 l 1
 105 401 84 422 84 447 c 0
 84 473 105 494 131 494 c 1
EndSplineSet
EndChar

StartChar: uniEC58
Encoding: 60504 60504 25
Width: 0
Flags: MW
HStem: 279 93<118 131>
VStem: 84 47<313 339>
LayerCount: 2
Fore
SplineSet
131 372 m 1
 131 279 l 1
 105 279 84 300 84 326 c 0
 84 352 105 372 131 372 c 1
EndSplineSet
EndChar

StartChar: uniEC59
Encoding: 60505 60505 26
Width: 0
Flags: MW
HStem: 158 93<118 131>
VStem: 84 47<191.5 217>
LayerCount: 2
Fore
SplineSet
131 251 m 1
 131 158 l 1
 105 158 84 179 84 204 c 0
 84 230 105 251 131 251 c 1
EndSplineSet
EndChar

StartChar: uniEC5A
Encoding: 60506 60506 27
Width: 0
Flags: MW
HStem: 900 93<131 144>
VStem: 131 47<934 960 934 993 934 993>
LayerCount: 2
Fore
SplineSet
178 947 m 0
 178 921 157 900 131 900 c 1
 131 993 l 1
 157 993 178 973 178 947 c 0
EndSplineSet
EndChar

StartChar: uniEC5B
Encoding: 60507 60507 28
Width: 0
Flags: MW
HStem: 780 93<131 144>
VStem: 131 47<814 840 814 873 814 873>
LayerCount: 2
Fore
SplineSet
178 827 m 0
 178 801 157 780 131 780 c 1
 131 873 l 1
 157 873 178 853 178 827 c 0
EndSplineSet
EndChar

StartChar: uniEC5C
Encoding: 60508 60508 29
Width: 0
Flags: MW
HStem: 657 93<131 144>
VStem: 131 47<691 717 691 750 691 750>
LayerCount: 2
Fore
SplineSet
178 704 m 0
 178 678 157 657 131 657 c 1
 131 750 l 1
 157 750 178 730 178 704 c 0
EndSplineSet
EndChar

StartChar: uniEC5D
Encoding: 60509 60509 30
Width: 0
Flags: MW
HStem: 401 93<131 144>
VStem: 131 47<434.5 460 434.5 494 434.5 494>
LayerCount: 2
Fore
SplineSet
178 447 m 0
 178 422 157 401 131 401 c 1
 131 494 l 1
 157 494 178 473 178 447 c 0
EndSplineSet
EndChar

StartChar: uniEC5E
Encoding: 60510 60510 31
Width: 833
Flags: MW
HStem: 279 93<131 144>
VStem: 131 47<313 339 313 372 313 372>
LayerCount: 2
Fore
SplineSet
178 326 m 0
 178 300 157 279 131 279 c 1
 131 372 l 1
 157 372 178 352 178 326 c 0
EndSplineSet
EndChar

StartChar: uniEC5F
Encoding: 60511 60511 32
Width: 0
Flags: MW
HStem: 158 93<131 144>
VStem: 131 47<191.5 217 191.5 251 191.5 251>
LayerCount: 2
Fore
SplineSet
178 204 m 0
 178 179 157 158 131 158 c 1
 131 251 l 1
 157 251 178 230 178 204 c 0
EndSplineSet
EndChar

StartChar: uniEC60
Encoding: 60512 60512 33
Width: 0
Flags: MW
HStem: 906 81<108 108>
VStem: 84 24<938.5 955.5>
LayerCount: 2
Fore
SplineSet
108 987 m 1
 108 906 l 1
 94 915 84 930 84 947 c 0
 84 964 94 979 108 987 c 1
EndSplineSet
EndChar

StartChar: uniEC61
Encoding: 60513 60513 34
Width: 0
Flags: MW
HStem: 786 81<108 108>
VStem: 84 24<818.5 835.5>
LayerCount: 2
Fore
SplineSet
108 867 m 1
 108 786 l 1
 94 795 84 810 84 827 c 0
 84 844 94 859 108 867 c 1
EndSplineSet
EndChar

StartChar: uniEC62
Encoding: 60514 60514 35
Width: 0
Flags: MW
HStem: 663 81<108 108>
VStem: 84 24<694.5 712>
LayerCount: 2
Fore
SplineSet
108 744 m 1
 108 663 l 1
 94 671 84 686 84 703 c 0
 84 721 94 736 108 744 c 1
EndSplineSet
EndChar

StartChar: uniEC63
Encoding: 60515 60515 36
Width: 0
Flags: MW
HStem: 406 81<108 108>
VStem: 84 24<438.5 455.5>
LayerCount: 2
Fore
SplineSet
108 487 m 1
 108 406 l 1
 94 415 84 430 84 447 c 0
 84 464 94 479 108 487 c 1
EndSplineSet
EndChar

StartChar: uniEC64
Encoding: 60516 60516 37
Width: 0
Flags: MW
HStem: 285 81<108 108>
VStem: 84 24<316.5 334>
LayerCount: 2
Fore
SplineSet
108 366 m 1
 108 285 l 1
 94 293 84 308 84 325 c 0
 84 343 94 358 108 366 c 1
EndSplineSet
EndChar

StartChar: uniEC65
Encoding: 60517 60517 38
Width: 0
Flags: MW
HStem: 164 80<108 108>
VStem: 84 24<195.5 212.5>
LayerCount: 2
Fore
SplineSet
108 244 m 1
 108 164 l 1
 94 172 84 187 84 204 c 0
 84 221 94 236 108 244 c 1
EndSplineSet
EndChar

StartChar: uniEC66
Encoding: 60518 60518 39
Width: 0
Flags: MW
HStem: 906 81<154 154>
VStem: 154 24<938.5 955.5 938.5 987>
LayerCount: 2
Fore
SplineSet
154 906 m 1
 154 987 l 1
 168 979 178 964 178 947 c 0
 178 930 168 915 154 906 c 1
EndSplineSet
EndChar

StartChar: uniEC67
Encoding: 60519 60519 40
Width: 0
Flags: MW
HStem: 786 81<154 154>
VStem: 154 24<818.5 835.5 818.5 867>
LayerCount: 2
Fore
SplineSet
154 786 m 1
 154 867 l 1
 168 859 178 844 178 827 c 0
 178 810 168 795 154 786 c 1
EndSplineSet
EndChar

StartChar: uniEC68
Encoding: 60520 60520 41
Width: 0
Flags: MW
HStem: 662 81<154 154>
VStem: 154 24<694.5 711.5 694.5 743>
LayerCount: 2
Fore
SplineSet
154 662 m 1
 154 743 l 1
 168 735 178 720 178 703 c 0
 178 686 168 671 154 662 c 1
EndSplineSet
EndChar

StartChar: uniEC69
Encoding: 60521 60521 42
Width: 0
Flags: MW
HStem: 406 81<154 154>
VStem: 154 24<438.5 455.5 438.5 487>
LayerCount: 2
Fore
SplineSet
154 406 m 1
 154 487 l 1
 168 479 178 464 178 447 c 0
 178 430 168 415 154 406 c 1
EndSplineSet
EndChar

StartChar: uniEC6A
Encoding: 60522 60522 43
Width: 0
Flags: MW
HStem: 285 81<154 154>
VStem: 154 24<317.5 334.5 317.5 366>
LayerCount: 2
Fore
SplineSet
154 285 m 1
 154 366 l 1
 168 358 178 343 178 326 c 0
 178 309 168 294 154 285 c 1
EndSplineSet
EndChar

StartChar: uniEC6B
Encoding: 60523 60523 44
Width: 0
Flags: MW
HStem: 164 80<154 154>
VStem: 154 24<195.5 212.5 195.5 244>
LayerCount: 2
Fore
SplineSet
154 164 m 1
 154 244 l 1
 168 236 178 221 178 204 c 0
 178 187 168 172 154 164 c 1
EndSplineSet
EndChar

StartChar: uniEC6C
Encoding: 60524 60524 45
Width: 0
Flags: MW
HStem: 891 94<-11 78.5>
VStem: -13 93<893.5 982>
LayerCount: 2
Fore
SplineSet
-8 892 m 1
 -10 891 l 2
 -12 891 -13 893 -13 894 c 0
 -13 895 -12 896 75 984 c 0
 76 984 77 985 78 985 c 0
 79 985 80 983 80 981 c 0
 80 980 80 980 -8 892 c 1
EndSplineSet
EndChar

StartChar: uniEC6D
Encoding: 60525 60525 46
Width: 0
Flags: MW
HStem: 789 56
VStem: -8 57
LayerCount: 2
Fore
SplineSet
-5 789 m 2
 -5 789 -6 789 -7 790 c 0
 -8 791 -8 793 -7 794 c 2
 43 844 l 2
 45 846 47 846 48 844 c 0
 49 843 49 841 48 840 c 2
 -3 790 l 2
 -3 789 -4 789 -5 789 c 2
EndSplineSet
EndChar

StartChar: uniEC6E
Encoding: 60526 60526 47
Width: 0
Flags: MW
HStem: 896 103
VStem: 78 104
LayerCount: 2
Fore
SplineSet
82 896 m 2
 81 896 80 896 79 897 c 0
 78 898 78 900 79 901 c 2
 177 998 l 2
 178 1000 180 1000 181 998 c 0
 182 997 182 995 181 994 c 2
 84 897 l 2
 83 896 82 896 82 896 c 2
EndSplineSet
EndChar

StartChar: uniEC6F
Encoding: 60527 60527 48
Width: 0
Flags: MW
HStem: 775 103
VStem: 78 104
LayerCount: 2
Fore
SplineSet
82 775 m 2
 81 775 80 775 79 776 c 0
 78 777 78 779 79 780 c 2
 177 877 l 2
 178 879 180 879 181 877 c 0
 182 876 182 874 181 873 c 2
 84 776 l 2
 83 775 82 775 82 775 c 2
EndSplineSet
EndChar

StartChar: uniEC70
Encoding: 60528 60528 49
Width: 0
Flags: MW
HStem: 650 103
VStem: 78 104
LayerCount: 2
Fore
SplineSet
82 650 m 2
 81 650 80 650 79 651 c 0
 78 652 78 654 79 655 c 2
 177 752 l 2
 178 754 180 754 181 752 c 0
 182 751 182 749 181 748 c 2
 84 651 l 2
 83 650 82 650 82 650 c 2
EndSplineSet
EndChar

StartChar: uniEC71
Encoding: 60529 60529 50
Width: 0
Flags: MW
HStem: 616 89
VStem: 159 90
LayerCount: 2
Fore
SplineSet
164 617 m 2
 163 616 163 616 162 616 c 0
 161 616 160 616 160 617 c 0
 159 618 159 620 160 621 c 2
 243 704 l 2
 245 706 247 706 248 704 c 0
 249 703 249 701 248 700 c 2
 164 617 l 2
EndSplineSet
EndChar

StartChar: uniEC72
Encoding: 60530 60530 51
Width: 0
Flags: MW
HStem: 512 59
VStem: 54 59
LayerCount: 2
Fore
SplineSet
59 513 m 2
 58 512 58 512 57 512 c 0
 56 512 55 512 55 513 c 0
 54 514 54 516 55 517 c 2
 107 570 l 2
 109 571 111 571 112 570 c 0
 113 569 113 567 112 566 c 2
 59 513 l 2
EndSplineSet
EndChar

StartChar: uniEC73
Encoding: 60531 60531 52
Width: 0
Flags: MW
HStem: 398 103
VStem: 78 104
LayerCount: 2
Fore
SplineSet
82 398 m 1
 79 398 l 2
 78 400 78 402 79 403 c 2
 177 500 l 2
 178 501 180 501 181 500 c 0
 182 499 182 497 181 496 c 2
 84 398 l 1
 82 398 l 1
EndSplineSet
EndChar

StartChar: uniEC74
Encoding: 60532 60532 53
Width: 0
Flags: MW
HStem: 365 49
VStem: 42 50
LayerCount: 2
Fore
SplineSet
89 365 m 2
 88 365 87 365 86 366 c 2
 43 409 l 2
 42 410 42 412 43 413 c 0
 44 414 46 414 47 413 c 2
 91 370 l 2
 92 369 92 367 91 366 c 0
 90 365 89 365 89 365 c 2
EndSplineSet
EndChar

StartChar: uniEC75
Encoding: 60533 60533 54
Width: 0
Flags: MW
HStem: 272 103
VStem: 78 104
LayerCount: 2
Fore
SplineSet
82 272 m 1
 79 272 l 2
 78 274 78 276 79 277 c 2
 177 374 l 2
 178 375 180 375 181 374 c 0
 182 373 182 371 181 370 c 2
 84 272 l 1
 82 272 l 1
EndSplineSet
EndChar

StartChar: uniEC76
Encoding: 60534 60534 55
Width: 0
Flags: MW
HStem: 243 49
VStem: 42 50
LayerCount: 2
Fore
SplineSet
89 243 m 2
 88 243 87 243 86 244 c 2
 43 287 l 2
 42 288 42 290 43 291 c 0
 44 292 46 292 47 291 c 2
 91 248 l 2
 92 247 92 245 91 244 c 0
 90 243 89 243 89 243 c 2
EndSplineSet
EndChar

StartChar: uniEC77
Encoding: 60535 60535 56
Width: 0
Flags: MW
HStem: 154 103
VStem: 78 104
LayerCount: 2
Fore
SplineSet
82 154 m 1
 79 154 l 2
 78 156 78 158 79 159 c 2
 177 256 l 2
 178 257 180 257 181 256 c 0
 182 255 182 253 181 252 c 2
 84 154 l 1
 82 154 l 1
EndSplineSet
EndChar

StartChar: uniEC78
Encoding: 60536 60536 57
Width: 0
Flags: MW
HStem: 96 61
VStem: 53 62
LayerCount: 2
Fore
SplineSet
59 97 m 2
 58 97 57 96 57 96 c 2
 56 96 55 97 54 97 c 0
 53 98 53 100 54 101 c 2
 109 156 l 2
 111 158 113 158 114 156 c 0
 115 155 115 153 114 152 c 2
 59 97 l 2
EndSplineSet
EndChar

StartChar: uniEC79
Encoding: 60537 60537 58
Width: 0
Flags: MW
HStem: 29 64
VStem: 39 65
LayerCount: 2
Fore
SplineSet
43 29 m 2
 42 29 41 29 40 30 c 0
 39 31 39 33 40 34 c 2
 98 92 l 2
 99 93 101 93 102 92 c 0
 104 91 104 89 102 88 c 2
 45 30 l 2
 44 29 43 29 43 29 c 2
EndSplineSet
EndChar

StartChar: uniEC7A
Encoding: 60538 60538 59
Width: 833
Flags: MW
HStem: 52 34
VStem: 101 35
LayerCount: 2
Fore
SplineSet
106 53 m 2
 105 52 105 52 104 52 c 0
 103 52 102 52 102 53 c 0
 101 54 101 56 102 57 c 2
 130 85 l 2
 131 87 133 87 134 85 c 0
 136 84 136 82 134 81 c 2
 106 53 l 2
EndSplineSet
EndChar

StartChar: uniEC7B
Encoding: 60539 60539 60
Width: 833
Flags: MW
HStem: 52 34
VStem: 134 35
LayerCount: 2
Fore
SplineSet
137 52 m 2
 137 52 136 52 135 53 c 0
 134 54 134 56 135 57 c 2
 163 85 l 2
 165 87 167 87 168 85 c 0
 169 84 169 82 168 81 c 2
 139 53 l 2
 139 52 138 52 137 52 c 2
EndSplineSet
EndChar

StartChar: uniEC7C
Encoding: 60540 60540 61
Width: 833
Flags: MW
HStem: -8 43
VStem: 119 44
LayerCount: 2
Fore
SplineSet
122 -8 m 2
 122 -8 121 -8 120 -7 c 0
 119 -6 119 -4 120 -3 c 2
 157 34 l 2
 159 36 161 36 162 34 c 0
 163 33 163 31 162 30 c 2
 124 -7 l 2
 124 -8 123 -8 122 -8 c 2
EndSplineSet
EndChar

StartChar: uniEC80
Encoding: 60544 60544 62
Width: 0
Flags: MW
HStem: -6 26 14 17 25 8 27 13 34 9 34 18 42 8<56 67 62 74> 44 7 44 15<63.5 66.5> 46 16 56 28 57 8<22 34 28.5 41> 69 9 76 8<56 67 62 74> 78 71 92 8<22 34 28.5 41> 107 71<77 96.5> 143 21 158 19 171 16 172 22<28 95> 178 7 181 71 188 17<26 60 28 60> 199 18 211 71<77 96.5> 246 28 268 71 276 28<78.5 95> 298 71<77 96.5> 318 79 333 28 346 22<8 33 11 33> 355 75 362 14<9.5 34 18 33> 370 21<15 34 18 34> 385 14<16.5 34 26 34 26 34> 393 21<23 34 26 34> 406 35 408 14<25 34 26 34> 416 21<23 34 26 34> 431 27<25 125 26 125> 435 19 452 24<45 145> 516 7
VStem: 0 44<354 360> 7 37<378 384> 16 28<401 407 424 430> 16 31<43 57 39.5 60 78 92> 28 35<895 904.5> 41 15<43 43> 50 30<27 42 24 45 62 76> 51 71<133 152.5 237 256.5 323.5 343 579.5 599 683 702.5 769.5 789> 54 10 57 17 68 36<850 856.5 850 857.5> 99 23<849 855> 106 14 116 16<859 871> 124 8 126 34<481 486 481 493 481 494> 134 8<655 655> 160 8
LayerCount: 2
Fore
SplineSet
46 924 m 0x0000000100000080
 39 924 35 926 31 930 c 0
 28 934 27 939 27 944 c 0x00000001000002
 27 953 30 963 31 967 c 0
 31 968 34 999 45 999 c 0
 47 999 53 999 59 970 c 0
 60 969 60 968 60 967 c 0
 60 960 64 952 64 945 c 0
 64 939 63 934 60 930 c 0
 57 926 52 924 46 924 c 0x0000000100000080
46 992 m 1x0000000100000082
 44 990 41 983 37 967 c 0
 37 959 33 951 33 943 c 0
 33 940 34 936 36 933 c 0
 38 931 41 930 46 930 c 0
 50 930 53 931 55 933 c 0
 57 936 58 940 58 944 c 0
 58 952 55 961 54 966 c 0
 54 975 49 985 46 992 c 1x0000000100000082
87 831 m 0
 80 831 75 833 72 837 c 0x00000000400001
 69 841 68 847 68 853 c 0
 68 862 70 870 71 874 c 0
 71 879 78 906 86 906 c 0
 88 906 94 906 100 877 c 0x0000000040000080
 100 876 101 876 101 874 c 0
 101 868 104 860 104 853 c 0
 104 847 103 841 100 837 c 0
 97 833 93 831 87 831 c 0
86 900 m 1
 85 897 82 890 77 874 c 0
 77 862 74 855 74 849 c 0
 74 846 75 844 77 841 c 0
 79 838 82 837 87 837 c 0
 91 837 94 838 96 841 c 0
 98 843 99 847 99 851 c 0
 99 859 96 868 95 873 c 0
 95 874 95 875 94 876 c 0
 92 888 88 897 86 900 c 1
87 744 m 0
 67 744 51 760 51 779 c 0
 51 799 67 815 87 815 c 0
 106 815 122 799 122 779 c 0x0000400000000004
 122 760 106 744 87 744 c 0
87 809 m 0x0000040000000004
 70 809 57 796 57 779 c 0
 57 763 70 750 87 750 c 0x00204000000020
 103 750 116 763 116 779 c 0
 116 796 103 809 87 809 c 0x0000040000000004
87 657 m 0
 67 657 51 673 51 693 c 0
 51 712 67 728 87 728 c 0x0400000000000040
 106 728 122 712 122 693 c 0
 122 673 106 657 87 657 c 0
87 722 m 0x0020000000200240
 70 722 57 709 57 693 c 0
 57 677 70 663 87 663 c 0
 103 663 116 677 116 693 c 0
 116 709 103 722 87 722 c 0x0020000000200240
87 554 m 0
 67 554 51 570 51 589 c 0
 51 609 67 625 87 625 c 0
 106 625 122 609 122 589 c 0
 122 570 106 554 87 554 c 0
87 619 m 0
 70 619 57 606 57 589 c 0
 57 573 70 560 87 560 c 0
 103 560 116 573 116 589 c 0x1000000000280440
 116 606 103 619 87 619 c 0
87 298 m 0
 67 298 51 314 51 333 c 0
 51 353 67 369 87 369 c 0
 106 369 122 353 122 333 c 0
 122 314 106 298 87 298 c 0
87 363 m 0
 70 363 57 350 57 333 c 0x0400000000000040
 57 317 70 304 87 304 c 0
 103 304 116 317 116 333 c 0
 116 350 103 363 87 363 c 0
87 211 m 0
 67 211 51 227 51 247 c 0
 51 266 67 282 87 282 c 0
 106 282 122 266 122 247 c 0x1000000000280440
 122 227 106 211 87 211 c 0
87 276 m 0
 70 276 57 263 57 247 c 0
 57 231 70 217 87 217 c 0
 103 217 116 231 116 247 c 0
 116 263 103 276 87 276 c 0
87 107 m 0
 67 107 51 123 51 143 c 0x0000000200000002
 51 162 67 178 87 178 c 0x0000000200000020
 106 178 122 162 122 143 c 0
 122 123 106 107 87 107 c 0
87 172 m 0
 70 172 57 159 57 143 c 0
 57 127 70 113 87 113 c 0x0000000200000020
 103 113 116 127 116 143 c 0
 116 159 103 172 87 172 c 0
45 882 m 0
 36 882 28 890 28 900 c 0x0000200000000004
 28 909 36 917 45 917 c 0
 55 917 63 909 63 900 c 0
 63 890 55 882 45 882 c 0
45 911 m 0x0000040000000004
 39 911 34 906 34 900 c 0
 34 893 39 888 45 888 c 0
 52 888 57 893 57 900 c 0
 57 906 52 911 45 911 c 0x0000040000000004
147 794 m 0
 125 794 116 817 116 826 c 2
 116 871 l 2
 116 873 118 873 119 874 c 2
 129 873 l 2
 130 873 132 872 132 870 c 0
 132 848 136 843 142 836 c 2
 142 836 149 831 153 829 c 0
 154 828 168 819 168 812 c 0x0040000000000040
 168 807 168 803 165 800 c 0
 161 796 155 794 147 794 c 0
126 867 m 1
 122 868 l 1
 122 826 l 2
 122 821 128 800 147 800 c 0
 154 800 158 801 160 804 c 0
 162 806 162 808 162 809 c 0
 162 818 156 821 150 823 c 0
 146 825 142 828 139 831 c 0
 131 839 126 844 126 867 c 1
92 634 m 0x4000000000000010
 86 634 83 638 82 643 c 0
 82 648 85 653 93 653 c 0
 103 654 117 657 123 659 c 0x0000000000100010
 124 659 125 659 126 660 c 0
 130 660 132 661 134 661 c 0
 137 661 142 660 142 651 c 0
 142 644 134 639 119 637 c 0x4000000000000008
 109 634 97 634 92 634 c 0x4000000000000010
134 655 m 1x2000000000400008
 130 655 l 2
 129 654 128 654 127 654 c 0x0100000000000008
 123 650 105 648 95 647 c 0
 90 647 88 645 88 643 c 0
 88 642 89 640 92 640 c 0
 97 640 108 640 118 642 c 0
 131 645 136 648 136 651 c 0
 136 655 134 655 134 655 c 1x2000000000400008
106 522 m 2x0100000000000010
 63 522 l 2
 58 522 54 525 54 530 c 0
 54 534 57 538 63 538 c 2
 90 538 l 1
 92 542 96 547 105 547 c 0
 111 547 118 543 118 535 c 0x8000000000000008
 118 532 117 529 115 526 c 0
 113 523 109 522 106 522 c 2x0100000000000010
63 528 m 2
 106 528 l 2
 108 528 110 529 110 530 c 0
 112 531 112 533 112 535 c 0
 112 539 110 541 105 541 c 0
 97 541 95 534 95 534 c 2
 94 533 93 532 92 532 c 2x0100008800400008
 63 532 l 2
 61 532 60 530 60 530 c 2x4000000000000008
 60 529 60 528 63 528 c 2
125 452 m 2
 45 452 l 2
 43 452 42 453 42 455 c 0
 42 456 43 458 45 458 c 2
 125 458 l 2
 127 458 128 456 128 455 c 0
 128 453 127 452 125 452 c 2
145 470 m 2
 129 470 l 2
 127 470 126 471 126 473 c 2x00000800004020
 126 493 l 2
 126 495 127 496 129 496 c 2
 145 496 l 2
 155 496 160 489 160 483 c 0
 160 479 159 476 156 474 c 0
 154 471 150 470 145 470 c 2
132 490 m 1
 132 476 l 1
 145 476 l 2
 148 476 151 476 152 478 c 0
 153 479 154 481 154 483 c 0
 154 486 151 490 145 490 c 2
 132 490 l 1
141 501 m 2
 127 501 l 2
 125 501 124 502 124 504 c 0
 124 525 136 527 141 527 c 0
 143 527 144 527 145 526 c 0
 152 526 156 520 156 514 c 0
 156 510 154 507 152 505 c 0x00000000010020
 150 503 147 501 141 501 c 2
130 507 m 1x00000000080020
 141 507 l 2
 144 507 146 508 148 509 c 0
 149 510 150 512 150 514 c 0x00040800200020
 150 517 148 520 145 520 c 0
 143 520 142 521 141 521 c 0
 134 521 130 516 130 507 c 1x00000000080020
117 472 m 0
 108 478 96 482 86 487 c 0
 82 489 79 493 79 498 c 0
 79 499 80 501 80 502 c 0
 81 509 87 516 94 516 c 0
 96 516 97 516 99 515 c 2
 109 509 l 2
 111 508 120 502 120 476 c 0
 120 473 119 472 117 472 c 0
94 510 m 2
 91 510 87 506 86 501 c 0x00800000000020
 86 500 85 499 85 498 c 0
 85 496 86 493 89 492 c 2
 114 480 l 1
 113 500 106 503 106 503 c 1
 94 510 l 2
60 188 m 2
 28 188 l 2
 24 188 20 192 20 196 c 0
 20 201 24 205 28 205 c 2
 60 205 l 2
 64 205 68 201 68 196 c 0
 68 192 64 188 60 188 c 2
60 199 m 2
 28 199 l 2
 27 199 26 198 26 196 c 0
 26 195 27 194 28 194 c 2
 60 194 l 2
 61 194 62 195 62 196 c 0
 62 198 61 199 60 199 c 2
33 346 m 2
 11 346 l 2
 5 346 0 351 0 357 c 0
 0 363 5 368 11 368 c 2
 33 368 l 2
 39 368 44 363 44 357 c 0
 44 351 39 346 33 346 c 2
33 362 m 2
 11 362 l 2
 8 362 6 360 6 357 c 0
 6 354 8 352 11 352 c 2x00100000000080
 33 352 l 2
 36 352 38 354 38 357 c 0
 38 360 36 362 33 362 c 2
34 370 m 2x08000000000080
 18 370 l 2
 12 370 7 375 7 381 c 0
 7 387 12 391 18 391 c 2
 34 391 l 2
 39 391 44 387 44 381 c 0x00100000000010
 44 375 39 370 34 370 c 2x08000000000080
34 385 m 2
 18 385 l 2
 15 385 13 383 13 381 c 0x00010000000080
 13 378 15 376 18 376 c 2x00080000000080
 34 376 l 2
 36 376 38 378 38 381 c 0
 38 383 36 385 34 385 c 2
34 393 m 2
 26 393 l 2
 20 393 16 398 16 404 c 0
 16 410 20 414 26 414 c 2
 34 414 l 2
 40 414 44 410 44 404 c 0x00080000000080
 44 398 40 393 34 393 c 2
34 408 m 2
 26 408 l 2
 24 408 22 406 22 404 c 0x00000010000008
 22 401 24 399 26 399 c 2
 34 399 l 2
 36 399 38 401 38 404 c 0
 38 406 36 408 34 408 c 2
34 416 m 2
 26 416 l 2
 20 416 16 421 16 427 c 0
 16 433 20 437 26 437 c 2
 34 437 l 2
 40 437 44 433 44 427 c 0
 44 421 40 416 34 416 c 2
34 431 m 2
 26 431 l 2
 24 431 22 429 22 427 c 0
 22 424 24 422 26 422 c 2
 34 422 l 2
 36 422 38 424 38 427 c 0
 38 429 36 431 34 431 c 2
47 78 m 2
 47 71 37 69 32 69 c 0
 26 69 16 71 16 78 c 2
 16 92 l 2
 16 98 26 100 31 100 c 0
 37 100 47 98 47 92 c 2
 47 78 l 2
22 92 m 2x00008040000008
 22 78 l 2
 23 77 27 75 31 75 c 0
 36 75 40 77 41 78 c 2
 41 92 l 2
 40 93 35 94 32 94 c 0
 27 94 23 93 22 92 c 2x00008040000008
47 43 m 2
 47 36 37 34 32 34 c 0
 26 34 16 36 16 43 c 2
 16 57 l 2
 16 63 26 65 31 65 c 0x00000100020040
 37 65 47 63 47 57 c 2
 47 43 l 2
22 57 m 2
 22 43 l 2
 23 42 27 40 31 40 c 0
 36 40 40 42 41 43 c 2
 41 57 l 2
 40 58 35 59 32 59 c 0
 27 59 23 58 22 57 c 2
80 62 m 2
 80 55 70 53 66 53 c 0
 60 53 50 55 50 62 c 2
 50 76 l 2
 50 82 60 84 64 84 c 0
 70 84 80 82 80 76 c 2x000000008004
 80 62 l 2
56 76 m 2
 56 62 l 2
 56 61 61 59 64 59 c 0
 69 59 74 61 74 62 c 2
 74 76 l 2
 73 77 69 78 66 78 c 0
 61 78 57 77 56 76 c 2
80 27 m 2x000000000401
 80 21 70 19 66 19 c 0
 60 19 50 21 50 27 c 2
 50 42 l 2
 50 48 60 50 64 50 c 0
 70 50 80 48 80 42 c 2
 80 27 l 2x000000000401
56 42 m 2x000000000081
 56 28 l 2
 56 27 61 25 64 25 c 0
 69 25 74 27 74 28 c 2
 74 42 l 2
 73 42 69 44 66 44 c 0
 61 44 57 42 56 42 c 2x000000000081
EndSplineSet
EndChar

StartChar: uniEC81
Encoding: 60545 60545 63
Width: 0
Flags: MW
HStem: 0 9 23 8<22 34 28.5 41>
VStem: 16 31<9 23 5.5 26>
LayerCount: 2
Fore
SplineSet
47 9 m 2
 47 2 37 0 32 0 c 0
 26 0 16 2 16 9 c 2
 16 23 l 2
 16 29 26 31 31 31 c 0
 37 31 47 29 47 23 c 2
 47 9 l 2
22 23 m 2
 22 9 l 2
 23 8 27 6 31 6 c 0
 36 6 40 8 41 9 c 2
 41 23 l 2
 40 24 35 25 32 25 c 0
 27 25 23 24 22 23 c 2
EndSplineSet
EndChar

StartChar: uniEC82
Encoding: 60546 60546 64
Width: 0
Flags: MW
HStem: 927 69<43 48.5 43 51.5>
VStem: 30 31<941 947.5 938.5 950.5>
LayerCount: 2
Fore
SplineSet
45 996 m 0
 52 996 56 974 56 967 c 0
 57 962 61 952 61 943 c 0
 61 934 57 927 46 927 c 0
 33 927 30 936 30 946 c 0
 30 955 33 965 34 967 c 0
 35 972 41 996 45 996 c 0
EndSplineSet
EndChar

StartChar: uniEC83
Encoding: 60547 60547 65
Width: 0
Flags: MW
HStem: 885 29<41 49.5>
VStem: 31 29<896 904>
LayerCount: 2
Fore
SplineSet
60 900 m 0
 60 892 54 885 45 885 c 0
 37 885 31 892 31 900 c 0
 31 908 37 914 45 914 c 0
 54 914 60 908 60 900 c 0
EndSplineSet
EndChar

StartChar: uniEC84
Encoding: 60548 60548 66
Width: 0
Flags: MW
HStem: 834 69<84 88.5 84 93>
VStem: 71 31<848 856.5 847.5 857.5>
LayerCount: 2
Fore
SplineSet
86 903 m 0
 91 903 97 882 97 875 c 0
 98 871 102 861 102 852 c 0
 102 843 99 834 87 834 c 0
 74 834 71 843 71 853 c 0
 71 862 74 873 75 875 c 0
 76 880 82 903 86 903 c 0
EndSplineSet
EndChar

StartChar: uniEC85
Encoding: 60549 60549 67
Width: 0
Flags: MW
HStem: 797 73<129 155> 797 74<119 155>
VStem: 119 10<858.5 870 858.5 871 858.5 871>
LayerCount: 2
Fore
SplineSet
119 871 m 1xa0
 129 870 l 1
 129 847 133 842 138 836 c 2
 141 833 l 2
 148 825 165 823 165 809 c 0
 165 805 163 797 147 797 c 0
 127 797 119 819 119 826 c 2
 119 871 l 1xa0
EndSplineSet
EndChar

StartChar: uniEC86
Encoding: 60550 60550 68
Width: 0
Flags: MW
HStem: 747 65<78 95.5>
VStem: 54 65<770.5 788>
LayerCount: 2
Fore
SplineSet
119 779 m 0
 119 762 104 747 87 747 c 0
 69 747 54 762 54 779 c 0
 54 797 69 812 87 812 c 0
 104 812 119 797 119 779 c 0
EndSplineSet
EndChar

StartChar: uniEC87
Encoding: 60551 60551 69
Width: 0
Flags: MW
HStem: 660 65<78 95.5>
VStem: 54 65<684 702>
LayerCount: 2
Fore
SplineSet
119 693 m 0
 119 675 104 660 87 660 c 0
 69 660 54 675 54 693 c 0
 54 711 69 725 87 725 c 0
 104 725 119 711 119 693 c 0
EndSplineSet
EndChar

StartChar: uniEC88
Encoding: 60552 60552 70
Width: 0
Flags: MW
HStem: 637 13<90.5 93 90.5 96.5>
VStem: 85 54<641.5 654>
LayerCount: 2
Fore
SplineSet
92 637 m 0
 88 637 85 640 85 643 c 0
 85 646 88 650 93 650 c 0
 105 651 121 655 127 657 c 0
 129 657 132 659 134 659 c 0
 137 659 139 657 139 651 c 0
 139 639 101 637 92 637 c 0
EndSplineSet
EndChar

StartChar: uniEC89
Encoding: 60553 60553 71
Width: 0
Flags: MW
HStem: 557 65<78 95.5>
VStem: 54 65<580.5 598>
LayerCount: 2
Fore
SplineSet
119 589 m 0
 119 572 104 557 87 557 c 0
 69 557 54 572 54 589 c 0
 54 607 69 622 87 622 c 0
 104 622 119 607 119 589 c 0
EndSplineSet
EndChar

StartChar: uniEC8A
Encoding: 60554 60554 72
Width: 0
Flags: MW
HStem: 525 10<61 92 63 92 63 106>
VStem: 57 59<528.5 537>
LayerCount: 2
Fore
SplineSet
63 525 m 2
 59 525 57 527 57 530 c 0
 57 532 59 535 63 535 c 2
 92 535 l 1
 92 535 95 544 105 544 c 0
 113 544 116 539 116 535 c 0
 116 530 112 525 106 525 c 2
 63 525 l 2
EndSplineSet
EndChar

StartChar: uniEC8B
Encoding: 60555 60555 73
Width: 0
Flags: MW
HStem: 504 19<127 145 127 145>
VStem: 127 26<511.5 512.5>
LayerCount: 2
Fore
SplineSet
127 504 m 1
 127 521 136 523 141 523 c 2
 145 523 l 2
 150 523 153 519 153 514 c 0
 153 509 149 504 141 504 c 2
 127 504 l 1
EndSplineSet
EndChar

StartChar: uniEC8C
Encoding: 60556 60556 74
Width: 0
Flags: MW
HStem: 473 20<129 145 129 145>
VStem: 129 28<480.5 485.5 480.5 493 480.5 493>
LayerCount: 2
Fore
SplineSet
145 473 m 2
 129 473 l 1
 129 493 l 1
 145 493 l 2
 153 493 157 488 157 483 c 0
 157 478 153 473 145 473 c 2
EndSplineSet
EndChar

StartChar: uniEC8D
Encoding: 60557 60557 75
Width: 0
Flags: MW
HStem: 506 7
VStem: 107 10
LayerCount: 2
Fore
SplineSet
117 475 m 1
 117 475 99 483 87 489 c 0
 83 491 82 494 82 498 c 0
 82 505 88 513 94 513 c 0
 95 513 96 513 97 512 c 2
 107 506 l 1
 107 506 117 503 117 475 c 1
EndSplineSet
EndChar

StartChar: uniEC8E
Encoding: 60558 60558 76
Width: 0
Flags: MW
HStem: 419 15<24 34 26 34>
VStem: 19 22<425 429>
LayerCount: 2
Fore
SplineSet
34 434 m 2
 38 434 41 431 41 427 c 0
 41 423 38 419 34 419 c 2
 26 419 l 2
 22 419 19 423 19 427 c 0
 19 431 22 434 26 434 c 2
 34 434 l 2
EndSplineSet
EndChar

StartChar: uniEC8F
Encoding: 60559 60559 77
Width: 0
Flags: MW
HStem: 396 15<24 34 26 34>
VStem: 19 22<402 406>
LayerCount: 2
Fore
SplineSet
34 411 m 2
 38 411 41 408 41 404 c 0
 41 400 38 396 34 396 c 2
 26 396 l 2
 22 396 19 400 19 404 c 0
 19 408 22 411 26 411 c 2
 34 411 l 2
EndSplineSet
EndChar

StartChar: uniEC90
Encoding: 60560 60560 78
Width: 0
Flags: MW
HStem: 373 15<16 34 18 34>
VStem: 10 31<378.5 383>
LayerCount: 2
Fore
SplineSet
34 388 m 2
 38 388 41 385 41 381 c 0
 41 376 38 373 34 373 c 2
 18 373 l 2
 14 373 10 376 10 381 c 0
 10 385 14 388 18 388 c 2
 34 388 l 2
EndSplineSet
EndChar

StartChar: uniEC91
Encoding: 60561 60561 79
Width: 0
Flags: MW
HStem: 349 16<9 33 11 33>
VStem: 3 38<354.5 359.5>
LayerCount: 2
Fore
SplineSet
33 365 m 2
 38 365 41 362 41 357 c 0
 41 352 38 349 33 349 c 2
 11 349 l 2
 7 349 3 352 3 357 c 0
 3 362 7 365 11 365 c 2
 33 365 l 2
EndSplineSet
EndChar

StartChar: uniEC92
Encoding: 60562 60562 80
Width: 0
Flags: MW
HStem: 301 65<78 95.5>
VStem: 54 65<324.5 342>
LayerCount: 2
Fore
SplineSet
119 333 m 0
 119 316 104 301 87 301 c 0
 69 301 54 316 54 333 c 0
 54 351 69 366 87 366 c 0
 104 366 119 351 119 333 c 0
EndSplineSet
EndChar

StartChar: uniEC93
Encoding: 60563 60563 81
Width: 0
Flags: MW
HStem: 214 65<78 95.5>
VStem: 54 65<238 256>
LayerCount: 2
Fore
SplineSet
119 247 m 0
 119 229 104 214 87 214 c 0
 69 214 54 229 54 247 c 0
 54 265 69 279 87 279 c 0
 104 279 119 265 119 247 c 0
EndSplineSet
EndChar

StartChar: uniEC94
Encoding: 60564 60564 82
Width: 0
Flags: MW
HStem: 191 11<26.5 60 28 60>
VStem: 23 42<194.5 198>
LayerCount: 2
Fore
SplineSet
60 202 m 2
 63 202 65 200 65 196 c 0
 65 193 63 191 60 191 c 2
 28 191 l 2
 25 191 23 193 23 196 c 0
 23 200 25 202 28 202 c 2
 60 202 l 2
EndSplineSet
EndChar

StartChar: uniEC95
Encoding: 60565 60565 83
Width: 0
Flags: MW
HStem: 110 65<78 95.5>
VStem: 54 65<134 152>
LayerCount: 2
Fore
SplineSet
119 143 m 0
 119 125 104 110 87 110 c 0
 69 110 54 125 54 143 c 0
 54 161 69 175 87 175 c 0
 104 175 119 161 119 143 c 0
EndSplineSet
EndChar

StartChar: uniEC96
Encoding: 60566 60566 84
Width: 0
Flags: MW
HStem: 72 25<29 34>
VStem: 19 25<78 92 76 93.5>
LayerCount: 2
Fore
SplineSet
44 78 m 2
 44 74 36 72 32 72 c 0
 26 72 19 74 19 78 c 2
 19 92 l 2
 19 95 26 97 32 97 c 0
 37 97 44 95 44 92 c 2
 44 78 l 2
EndSplineSet
EndChar

StartChar: uniEC97
Encoding: 60567 60567 85
Width: 0
Flags: MW
HStem: 56 25<63 68>
VStem: 53 24<62 76 60 77.5>
LayerCount: 2
Fore
SplineSet
77 62 m 2
 77 58 70 56 66 56 c 0
 60 56 53 58 53 62 c 2
 53 76 l 2
 53 79 60 81 66 81 c 0
 70 81 77 79 77 76 c 2
 77 62 l 2
EndSplineSet
EndChar

StartChar: uniEC98
Encoding: 60568 60568 86
Width: 0
Flags: MW
HStem: 37 25<29 34>
VStem: 19 25<43 57 41 58.5>
LayerCount: 2
Fore
SplineSet
44 43 m 2
 44 39 36 37 32 37 c 0
 26 37 19 39 19 43 c 2
 19 57 l 2
 19 60 26 62 32 62 c 0
 37 62 44 60 44 57 c 2
 44 43 l 2
EndSplineSet
EndChar

StartChar: uniEC99
Encoding: 60569 60569 87
Width: 0
Flags: MW
HStem: 22 25<63 68>
VStem: 53 24<27 42 25.5 43.5>
LayerCount: 2
Fore
SplineSet
77 27 m 2
 77 24 70 22 66 22 c 0
 60 22 53 24 53 27 c 2
 53 42 l 2
 53 45 60 47 66 47 c 0
 70 47 77 45 77 42 c 2
 77 27 l 2
EndSplineSet
EndChar

StartChar: uniEC9A
Encoding: 60570 60570 88
Width: 0
Flags: MW
HStem: 3 25<29 34>
VStem: 19 25<9 23 7 24.5>
LayerCount: 2
Fore
SplineSet
44 9 m 2
 44 5 36 3 32 3 c 0
 26 3 19 5 19 9 c 2
 19 23 l 2
 19 26 26 28 32 28 c 0
 37 28 44 26 44 23 c 2
 44 9 l 2
EndSplineSet
EndChar

StartChar: uniEC9B
Encoding: 60571 60571 89
Width: 0
Flags: MW
HStem: 747 10<80.5 93 80.5 95.5> 802 10<80.5 93>
VStem: 54 10<773 785.5 773 788> 109 10<773 785.5>
LayerCount: 2
Fore
SplineSet
87 802 m 0
 74 802 64 792 64 779 c 0
 64 767 74 757 87 757 c 0
 99 757 109 767 109 779 c 0
 109 792 99 802 87 802 c 0
87 812 m 0
 104 812 119 797 119 779 c 0
 119 762 104 747 87 747 c 0
 69 747 54 762 54 779 c 0
 54 797 69 812 87 812 c 0
EndSplineSet
EndChar

StartChar: uniEC9C
Encoding: 60572 60572 90
Width: 0
Flags: MW
HStem: 660 10<80.5 93 80.5 95.5> 715 10<80.5 93>
VStem: 54 10<686.5 699 686.5 702> 109 10<686.5 699>
LayerCount: 2
Fore
SplineSet
87 715 m 0
 74 715 64 705 64 693 c 0
 64 680 74 670 87 670 c 0
 99 670 109 680 109 693 c 0
 109 705 99 715 87 715 c 0
87 725 m 0
 104 725 119 711 119 693 c 0
 119 675 104 660 87 660 c 0
 69 660 54 675 54 693 c 0
 54 711 69 725 87 725 c 0
EndSplineSet
EndChar

StartChar: uniEC9D
Encoding: 60573 60573 91
Width: 0
Flags: MW
HStem: 557 10<80.5 93 80.5 95.5> 612 10<80.5 93>
VStem: 54 10<583 595.5 583 598> 109 10<583 595.5>
LayerCount: 2
Fore
SplineSet
87 612 m 0
 74 612 64 602 64 589 c 0
 64 577 74 567 87 567 c 0
 99 567 109 577 109 589 c 0
 109 602 99 612 87 612 c 0
87 622 m 0
 104 622 119 607 119 589 c 0
 119 572 104 557 87 557 c 0
 69 557 54 572 54 589 c 0
 54 607 69 622 87 622 c 0
EndSplineSet
EndChar

StartChar: uniEC9E
Encoding: 60574 60574 92
Width: 0
Flags: MW
HStem: 301 10<80.5 93 80.5 95.5> 356 10<80.5 93>
VStem: 54 10<327 339.5 327 342> 109 10<327 339.5>
LayerCount: 2
Fore
SplineSet
87 356 m 0
 74 356 64 346 64 333 c 0
 64 321 74 311 87 311 c 0
 99 311 109 321 109 333 c 0
 109 346 99 356 87 356 c 0
87 366 m 0
 104 366 119 351 119 333 c 0
 119 316 104 301 87 301 c 0
 69 301 54 316 54 333 c 0
 54 351 69 366 87 366 c 0
EndSplineSet
EndChar

StartChar: uniEC9F
Encoding: 60575 60575 93
Width: 0
Flags: MW
HStem: 214 10<80.5 93 80.5 95.5> 269 10<80.5 93>
VStem: 54 10<240.5 253 240.5 256> 109 10<240.5 253>
LayerCount: 2
Fore
SplineSet
87 269 m 0
 74 269 64 259 64 247 c 0
 64 234 74 224 87 224 c 0
 99 224 109 234 109 247 c 0
 109 259 99 269 87 269 c 0
87 279 m 0
 104 279 119 265 119 247 c 0
 119 229 104 214 87 214 c 0
 69 214 54 229 54 247 c 0
 54 265 69 279 87 279 c 0
EndSplineSet
EndChar

StartChar: uniECA0
Encoding: 60576 60576 94
Width: 0
Flags: MW
HStem: 110 10<80.5 93 80.5 95.5> 165 10<80.5 93>
VStem: 54 10<136.5 149 136.5 152> 109 10<136.5 149>
LayerCount: 2
Fore
SplineSet
87 165 m 0
 74 165 64 155 64 143 c 0
 64 130 74 120 87 120 c 0
 99 120 109 130 109 143 c 0
 109 155 99 165 87 165 c 0
87 175 m 0
 104 175 119 161 119 143 c 0
 119 125 104 110 87 110 c 0
 69 110 54 125 54 143 c 0
 54 161 69 175 87 175 c 0
EndSplineSet
EndChar

StartChar: uniECA1
Encoding: 60577 60577 95
Width: 0
Flags: MW
HStem: 747 65<78 87>
VStem: 54 33<770.5 788>
LayerCount: 2
Fore
SplineSet
87 812 m 1
 87 747 l 1
 69 747 54 762 54 779 c 0
 54 797 69 812 87 812 c 1
EndSplineSet
EndChar

StartChar: uniECA2
Encoding: 60578 60578 96
Width: 0
Flags: MW
HStem: 660 65<78 87>
VStem: 54 33<684 702>
LayerCount: 2
Fore
SplineSet
87 725 m 1
 87 660 l 1
 69 660 54 675 54 693 c 0
 54 711 69 725 87 725 c 1
EndSplineSet
EndChar

StartChar: uniECA3
Encoding: 60579 60579 97
Width: 0
Flags: MW
HStem: 557 65<78 87>
VStem: 54 33<580.5 598>
LayerCount: 2
Fore
SplineSet
87 622 m 1
 87 557 l 1
 69 557 54 572 54 589 c 0
 54 607 69 622 87 622 c 1
EndSplineSet
EndChar

StartChar: uniECA4
Encoding: 60580 60580 98
Width: 0
Flags: MW
HStem: 301 65<78 87>
VStem: 54 33<324.5 342>
LayerCount: 2
Fore
SplineSet
87 366 m 1
 87 301 l 1
 69 301 54 316 54 333 c 0
 54 351 69 366 87 366 c 1
EndSplineSet
EndChar

StartChar: uniECA5
Encoding: 60581 60581 99
Width: 0
Flags: MW
HStem: 214 65<78 87>
VStem: 54 33<238 256>
LayerCount: 2
Fore
SplineSet
87 279 m 1
 87 214 l 1
 69 214 54 229 54 247 c 0
 54 265 69 279 87 279 c 1
EndSplineSet
EndChar

StartChar: uniECA6
Encoding: 60582 60582 100
Width: 0
Flags: MW
HStem: 110 65<78 87>
VStem: 54 33<134 152>
LayerCount: 2
Fore
SplineSet
87 175 m 1
 87 110 l 1
 69 110 54 125 54 143 c 0
 54 161 69 175 87 175 c 1
EndSplineSet
EndChar

StartChar: uniECA7
Encoding: 60583 60583 101
Width: 0
Flags: MW
HStem: 747 65<87 95.5>
VStem: 87 32<770.5 788 770.5 812 770.5 812>
LayerCount: 2
Fore
SplineSet
119 779 m 0
 119 762 104 747 87 747 c 1
 87 812 l 1
 104 812 119 797 119 779 c 0
EndSplineSet
EndChar

StartChar: uniECA8
Encoding: 60584 60584 102
Width: 0
Flags: MW
HStem: 661 64<87 95.5>
VStem: 87 32<684 702 684 725 684 725>
LayerCount: 2
Fore
SplineSet
119 693 m 0
 119 675 104 661 87 661 c 1
 87 725 l 1
 104 725 119 711 119 693 c 0
EndSplineSet
EndChar

StartChar: uniECA9
Encoding: 60585 60585 103
Width: 0
Flags: MW
HStem: 557 65<87 95.5>
VStem: 87 32<580.5 598 580.5 622 580.5 622>
LayerCount: 2
Fore
SplineSet
119 589 m 0
 119 572 104 557 87 557 c 1
 87 622 l 1
 104 622 119 607 119 589 c 0
EndSplineSet
EndChar

StartChar: uniECAA
Encoding: 60586 60586 104
Width: 0
Flags: MW
HStem: 301 65<87 95.5>
VStem: 87 32<324.5 342 324.5 366 324.5 366>
LayerCount: 2
Fore
SplineSet
119 333 m 0
 119 316 104 301 87 301 c 1
 87 366 l 1
 104 366 119 351 119 333 c 0
EndSplineSet
EndChar

StartChar: uniECAB
Encoding: 60587 60587 105
Width: 0
Flags: MW
HStem: 215 64<87 95.5>
VStem: 87 32<238 256 238 279 238 279>
LayerCount: 2
Fore
SplineSet
119 247 m 0
 119 229 104 215 87 215 c 1
 87 279 l 1
 104 279 119 265 119 247 c 0
EndSplineSet
EndChar

StartChar: uniECAC
Encoding: 60588 60588 106
Width: 0
Flags: MW
HStem: 110 65<87 95.5>
VStem: 87 32<134 152 134 175 134 175>
LayerCount: 2
Fore
SplineSet
119 143 m 0
 119 125 104 110 87 110 c 1
 87 175 l 1
 104 175 119 161 119 143 c 0
EndSplineSet
EndChar

StartChar: uniECAD
Encoding: 60589 60589 107
Width: 0
Flags: MW
HStem: 752 56<70 70>
VStem: 54 16<774 786>
LayerCount: 2
Fore
SplineSet
70 808 m 1
 70 752 l 1
 61 757 54 768 54 780 c 0
 54 792 61 802 70 808 c 1
EndSplineSet
EndChar

StartChar: uniECAE
Encoding: 60590 60590 108
Width: 0
Flags: MW
HStem: 665 56<70 70>
VStem: 54 16<687 699>
LayerCount: 2
Fore
SplineSet
70 721 m 1
 70 665 l 1
 61 670 54 681 54 693 c 0
 54 705 61 715 70 721 c 1
EndSplineSet
EndChar

StartChar: uniECAF
Encoding: 60591 60591 109
Width: 0
Flags: MW
HStem: 561 56<70 70>
VStem: 54 16<583 595>
LayerCount: 2
Fore
SplineSet
70 617 m 1
 70 561 l 1
 61 567 54 577 54 589 c 0
 54 601 61 612 70 617 c 1
EndSplineSet
EndChar

StartChar: uniECB0
Encoding: 60592 60592 110
Width: 0
Flags: MW
HStem: 305 56<70 70>
VStem: 54 16<327 339>
LayerCount: 2
Fore
SplineSet
70 361 m 1
 70 305 l 1
 61 311 54 321 54 333 c 0
 54 345 61 356 70 361 c 1
EndSplineSet
EndChar

StartChar: uniECB1
Encoding: 60593 60593 111
Width: 0
Flags: MW
HStem: 218 56<70 70>
VStem: 54 16<240 252>
LayerCount: 2
Fore
SplineSet
70 274 m 1
 70 218 l 1
 61 224 54 234 54 246 c 0
 54 258 61 269 70 274 c 1
EndSplineSet
EndChar

StartChar: uniECB2
Encoding: 60594 60594 112
Width: 0
Flags: MW
HStem: 115 56<70 70>
VStem: 54 16<137 149>
LayerCount: 2
Fore
SplineSet
70 171 m 1
 70 115 l 1
 61 120 54 131 54 143 c 0
 54 155 61 165 70 171 c 1
EndSplineSet
EndChar

StartChar: uniECB3
Encoding: 60595 60595 113
Width: 0
Flags: MW
HStem: 752 56<103 103>
VStem: 103 16<774 786 774 808>
LayerCount: 2
Fore
SplineSet
103 752 m 1
 103 808 l 1
 112 802 119 792 119 780 c 0
 119 768 112 757 103 752 c 1
EndSplineSet
EndChar

StartChar: uniECB4
Encoding: 60596 60596 114
Width: 0
Flags: MW
HStem: 665 56<103 103>
VStem: 103 16<687 699 687 721>
LayerCount: 2
Fore
SplineSet
103 665 m 1
 103 721 l 1
 112 715 119 705 119 693 c 0
 119 681 112 670 103 665 c 1
EndSplineSet
EndChar

StartChar: uniECB5
Encoding: 60597 60597 115
Width: 0
Flags: MW
HStem: 561 56<103 103>
VStem: 103 16<583 595 583 617>
LayerCount: 2
Fore
SplineSet
103 561 m 1
 103 617 l 1
 112 612 119 601 119 589 c 0
 119 577 112 567 103 561 c 1
EndSplineSet
EndChar

StartChar: uniECB6
Encoding: 60598 60598 116
Width: 0
Flags: MW
HStem: 305 56<103 103>
VStem: 103 16<327 339 327 361>
LayerCount: 2
Fore
SplineSet
103 305 m 1
 103 361 l 1
 112 356 119 345 119 333 c 0
 119 321 112 311 103 305 c 1
EndSplineSet
EndChar

StartChar: uniECB7
Encoding: 60599 60599 117
Width: 0
Flags: MW
HStem: 219 56<103 103>
VStem: 103 16<241 253 241 275>
LayerCount: 2
Fore
SplineSet
103 219 m 1
 103 275 l 1
 112 269 119 259 119 247 c 0
 119 235 112 224 103 219 c 1
EndSplineSet
EndChar

StartChar: uniECB8
Encoding: 60600 60600 118
Width: 0
Flags: MW
HStem: 115 56<103 103>
VStem: 103 16<137 149 137 171>
LayerCount: 2
Fore
SplineSet
103 115 m 1
 103 171 l 1
 112 165 119 155 119 143 c 0
 119 131 112 121 103 115 c 1
EndSplineSet
EndChar

StartChar: uniECB9
Encoding: 60601 60601 119
Width: 0
Flags: MW
HStem: 933 48<23 65.5>
VStem: 20 47<935.5 978>
LayerCount: 2
Fore
SplineSet
26 935 m 1
 23 933 l 2
 22 934 20 935 20 936 c 0
 20 937 20 937 21 938 c 2
 63 980 l 1
 63 980 64 981 65 981 c 0
 66 981 67 979 67 977 c 0
 67 976 67 976 26 935 c 1
EndSplineSet
EndChar

StartChar: uniECBA
Encoding: 60602 60602 120
Width: 0
Flags: MW
HStem: 875 48<23.5 67>
VStem: 21 48<877 920>
LayerCount: 2
Fore
SplineSet
26 876 m 1
 24 875 l 2
 23 875 21 876 21 878 c 0
 21 879 21 879 63 922 c 0
 64 923 65 923 67 923 c 0
 68 922 69 920 69 920 c 2
 68 919 68 918 26 876 c 1
EndSplineSet
EndChar

StartChar: uniECBB
Encoding: 60603 60603 121
Width: 0
Flags: MW
HStem: 839 47<63.5 106>
VStem: 61 48<841 884.5>
LayerCount: 2
Fore
SplineSet
66 840 m 1
 64 839 l 2
 63 839 61 840 61 842 c 0
 61 843 61 843 103 886 c 1
 106 886 l 2
 108 886 109 885 109 884 c 0
 109 883 108 882 66 840 c 1
EndSplineSet
EndChar

StartChar: uniECBC
Encoding: 60604 60604 122
Width: 0
Flags: MW
HStem: 794 43<121.5 161>
VStem: 119 44<796 835.5>
LayerCount: 2
Fore
SplineSet
124 795 m 1
 122 794 l 2
 121 794 119 795 119 797 c 0
 119 798 119 798 158 837 c 1
 161 837 l 2
 162 837 163 836 163 835 c 0
 163 834 162 833 124 795 c 1
EndSplineSet
EndChar

StartChar: uniECBD
Encoding: 60605 60605 123
Width: 0
Flags: MW
HStem: 743 75
VStem: 48 76
LayerCount: 2
Fore
SplineSet
51 743 m 2
 51 743 50 743 49 744 c 0
 48 745 48 747 49 748 c 2
 118 817 l 2
 119 818 121 818 122 817 c 0
 124 816 124 814 122 813 c 2
 53 744 l 2
 53 743 52 743 51 743 c 2
EndSplineSet
EndChar

StartChar: uniECBE
Encoding: 60606 60606 124
Width: 0
Flags: MW
HStem: 657 75
VStem: 48 76
LayerCount: 2
Fore
SplineSet
51 657 m 2
 51 657 50 657 49 658 c 0
 48 659 48 661 49 662 c 2
 118 731 l 2
 119 732 121 732 122 731 c 0
 124 730 124 728 122 727 c 2
 53 658 l 2
 53 657 52 657 51 657 c 2
EndSplineSet
EndChar

StartChar: uniECBF
Encoding: 60607 60607 125
Width: 0
Flags: MW
HStem: 625 48
VStem: 89 48
LayerCount: 2
Fore
SplineSet
94 626 m 2
 93 625 93 625 92 625 c 0
 91 625 90 625 90 626 c 0
 89 627 89 629 90 630 c 2
 131 672 l 2
 133 673 135 673 136 672 c 0
 137 671 137 669 136 668 c 2
 94 626 l 2
EndSplineSet
EndChar

StartChar: uniECC0
Encoding: 60608 60608 126
Width: 0
Flags: MW
HStem: 552 75
VStem: 48 76
LayerCount: 2
Fore
SplineSet
51 552 m 2
 51 552 50 552 49 553 c 0
 48 554 48 556 49 557 c 2
 118 626 l 2
 119 627 121 627 122 626 c 0
 124 625 124 623 122 622 c 2
 53 553 l 2
 53 552 52 552 51 552 c 2
EndSplineSet
EndChar

StartChar: uniECC1
Encoding: 60609 60609 127
Width: 0
Flags: MW
HStem: 509 42
VStem: 50 43
LayerCount: 2
Fore
SplineSet
53 509 m 2
 53 509 52 509 51 510 c 0
 50 511 50 513 51 514 c 2
 88 550 l 2
 89 552 91 552 92 550 c 0
 93 549 93 547 92 546 c 2
 55 510 l 2
 55 509 54 509 53 509 c 2
EndSplineSet
EndChar

StartChar: uniECC2
Encoding: 60610 60610 128
Width: 0
Flags: MW
HStem: 496 34
VStem: 124 34
LayerCount: 2
Fore
SplineSet
129 497 m 1
 129 497 128 496 127 496 c 2
 127 496 126 497 125 497 c 0
 124 498 124 500 125 501 c 2
 153 529 l 2
 154 530 156 530 157 529 c 0
 158 528 158 526 157 525 c 2
 129 497 l 1
EndSplineSet
EndChar

StartChar: uniECC3
Encoding: 60611 60611 129
Width: 0
Flags: MW
HStem: 465 34
VStem: 124 34
LayerCount: 2
Fore
SplineSet
127 465 m 2
 127 465 126 465 125 466 c 0
 124 467 124 469 125 470 c 2
 153 498 l 2
 154 499 156 499 157 498 c 0
 158 497 158 495 157 494 c 2
 129 466 l 2
 129 465 128 465 127 465 c 2
EndSplineSet
EndChar

StartChar: uniECC4
Encoding: 60612 60612 130
Width: 0
Flags: MW
HStem: 477 37
VStem: 81 37
LayerCount: 2
Fore
SplineSet
86 478 m 1
 86 478 85 477 84 477 c 2
 84 477 83 478 82 478 c 0
 81 479 81 481 82 482 c 2
 113 513 l 2
 114 514 116 514 117 513 c 0
 118 512 118 510 117 509 c 2
 86 478 l 1
EndSplineSet
EndChar

StartChar: uniECC5
Encoding: 60613 60613 131
Width: 0
Flags: MW
HStem: 412 31
VStem: 14 32
LayerCount: 2
Fore
SplineSet
17 412 m 2
 17 412 16 412 15 413 c 0
 14 414 14 416 15 417 c 2
 41 442 l 2
 42 444 44 444 45 442 c 0
 46 441 46 439 45 438 c 2
 19 413 l 2
 19 412 18 412 17 412 c 2
EndSplineSet
EndChar

StartChar: uniECC6
Encoding: 60614 60614 132
Width: 0
Flags: MW
HStem: 389 33
VStem: 14 32
LayerCount: 2
Fore
SplineSet
17 389 m 2
 17 389 16 389 15 390 c 0
 14 391 14 393 15 394 c 2
 41 421 l 2
 42 422 44 422 45 421 c 0
 46 420 46 418 45 417 c 2
 19 390 l 2
 19 389 18 389 17 389 c 2
EndSplineSet
EndChar

StartChar: uniECC7
Encoding: 60615 60615 133
Width: 0
Flags: MW
HStem: 366 33
VStem: 10 33
LayerCount: 2
Fore
SplineSet
16 367 m 2
 15 366 14 366 14 366 c 2
 13 366 12 366 12 367 c 0
 10 368 10 370 11 371 c 2
 37 397 l 2
 38 399 40 399 41 398 c 0
 43 396 43 394 41 393 c 2
 16 367 l 2
EndSplineSet
EndChar

StartChar: uniECC8
Encoding: 60616 60616 134
Width: 0
Flags: MW
HStem: 341 33
VStem: 6 32
LayerCount: 2
Fore
SplineSet
11 342 m 1
 11 342 10 341 9 341 c 2
 9 341 8 342 7 342 c 0
 6 343 6 345 7 346 c 2
 33 373 l 2
 34 374 36 374 37 373 c 0
 38 372 38 370 37 369 c 2
 11 342 l 1
EndSplineSet
EndChar

StartChar: uniECC9
Encoding: 60617 60617 135
Width: 0
Flags: MW
HStem: 297 75
VStem: 48 76
LayerCount: 2
Fore
SplineSet
51 297 m 2
 51 297 50 297 49 298 c 0
 48 299 48 301 49 302 c 2
 118 371 l 2
 119 372 121 372 122 371 c 0
 124 370 124 368 122 367 c 2
 53 298 l 2
 53 297 52 297 51 297 c 2
EndSplineSet
EndChar

StartChar: uniECCA
Encoding: 60618 60618 136
Width: 0
Flags: MW
HStem: 212 75
VStem: 48 76
LayerCount: 2
Fore
SplineSet
51 212 m 2
 51 212 50 212 49 213 c 0
 48 214 48 216 49 217 c 2
 118 286 l 2
 119 287 121 287 122 286 c 0
 124 285 124 283 122 282 c 2
 53 213 l 2
 53 212 52 212 51 212 c 2
EndSplineSet
EndChar

StartChar: uniECCB
Encoding: 60619 60619 137
Width: 0
Flags: MW
HStem: 179 33
VStem: 28 32
LayerCount: 2
Fore
SplineSet
33 180 m 1
 33 180 32 179 31 179 c 2
 31 179 30 180 29 180 c 0
 28 181 28 183 29 184 c 2
 55 211 l 2
 56 212 58 212 59 211 c 0
 60 210 60 208 59 207 c 2
 33 180 l 1
EndSplineSet
EndChar

StartChar: uniECCC
Encoding: 60620 60620 138
Width: 0
Flags: MW
HStem: 105 75
VStem: 48 76
LayerCount: 2
Fore
SplineSet
51 105 m 2
 51 105 50 105 49 106 c 0
 48 107 48 109 49 110 c 2
 118 179 l 2
 119 180 121 180 122 179 c 0
 124 178 124 176 122 175 c 2
 53 106 l 2
 53 105 52 105 51 105 c 2
EndSplineSet
EndChar

StartChar: uniECCD
Encoding: 60621 60621 139
Width: 0
Flags: MW
HStem: 65 38
VStem: 12 39
LayerCount: 2
Fore
SplineSet
16 65 m 2
 15 65 14 65 13 66 c 0
 12 67 12 69 13 70 c 2
 45 102 l 2
 47 103 49 103 50 102 c 0
 51 101 51 99 50 98 c 2
 18 66 l 2
 17 65 16 65 16 65 c 2
EndSplineSet
EndChar

StartChar: uniECCE
Encoding: 60622 60622 140
Width: 0
Flags: MW
HStem: 49 38
VStem: 47 39
LayerCount: 2
Fore
SplineSet
51 49 m 2
 50 49 49 49 48 50 c 0
 47 51 47 53 48 54 c 2
 80 86 l 2
 82 87 84 87 85 86 c 0
 86 85 86 83 85 82 c 2
 53 50 l 2
 52 49 51 49 51 49 c 2
EndSplineSet
EndChar

StartChar: uniECCF
Encoding: 60623 60623 141
Width: 0
Flags: MW
HStem: 30 38
VStem: 12 39
LayerCount: 2
Fore
SplineSet
18 31 m 2
 17 31 16 30 16 30 c 2
 15 30 14 31 13 31 c 0
 12 32 12 34 13 35 c 2
 45 67 l 2
 47 69 49 69 50 67 c 0
 51 66 51 64 50 63 c 2
 18 31 l 2
EndSplineSet
EndChar

StartChar: uniECD0
Encoding: 60624 60624 142
Width: 0
Flags: MW
HStem: 15 38
VStem: 47 39
LayerCount: 2
Fore
SplineSet
51 15 m 2
 50 15 49 15 48 16 c 0
 47 17 47 19 48 20 c 2
 80 52 l 2
 82 53 84 53 85 52 c 0
 86 51 86 49 85 48 c 2
 53 16 l 2
 52 15 51 15 51 15 c 2
EndSplineSet
EndChar

StartChar: uniECD1
Encoding: 60625 60625 143
Width: 0
Flags: MW
HStem: 0 21G<13 13>
VStem: 12 38<-3 29>
LayerCount: 2
Fore
SplineSet
18 -4 m 1
 16 -4 l 2
 17 -5 16 -5 16 -5 c 1
 16 -5 16 -4 16 -4 c 2
 15 -4 14 -4 13 -3 c 0
 12 -3 12 -3 12 -3 c 2
 12 -2 13 0 13 0 c 1
 45 32 l 2
 46 32 47 33 48 32 c 0
 49 31 50 31 50 29 c 2
 50 28 l 1
 18 -4 l 1
EndSplineSet
EndChar

StartChar: uniECE0
Encoding: 60640 60640 144
Width: 0
Flags: MW
HStem: -6 32 1 21G<23.5 29.5> 6 18<80 86> 18 20<78.5 86.5> 20 20<31.5 37.5> 33 7<27 37.5> 34 23<32 36.5> 34 36 53 20<79.5 86.5> 58 7 64 84 67 18 79 7 82 9 103 84<81.5 105> 142 38 174 84 181 24<62.5 103> 199 28<61.5 71.5> 221 25<83 85> 240 84<81.5 105> 250 9 252 35 316 7 318 35<83 103 129 140.5> 326 8 345 29 347 84<81.5 105 81.5 139.5> 368 34 369 7 384 17<20.5 29.5> 425 35<83 103> 436 7<35 39> 454 28<35 183> 470 7 476 31<166 183 167 183> 501 8 503 18<141 158 141 153>
VStem: 1 8 2 37<924.5 932.5 924 934> 11 31<341 345 345 371 371 377> 30 27<796 801 801 804.5> 32 9 36 21<379 381 792.5 797 797 801> 51 84<133 156.5 270 293.5 377 400.5 615 638.5 725.5 748.5 870.5 892> 54 40<43.5 45.5> 73 40<817.5 826.5> 79 29<876.5 885> 87 7<13 18> 116 15 118 48<332.5 339.5 678.5 685.5 787.5 794.5> 125 16<500 500> 129 21<135 155 884.5 890> 129 27<135 155> 135 24<484 506 477.5 506.5> 144 36<895 911.5> 145 15<569 579> 150 22<117 174> 153 17<484 501> 164 34<489 496.5 489 504 489 505>
LayerCount: 2
Fore
SplineSet
162 961 m 0x000000010020
 158 961 150 941 150 903 c 0x000000024010
 150 866 158 845 162 845 c 0
 166 845 174 866 174 903 c 0
 174 941 166 961 162 961 c 0x000000010020
162 839 m 0
 156 839 152 846 148 859 c 0
 146 871 144 887 144 903 c 0x000000810010
 144 920 146 935 148 947 c 0
 152 960 156 967 162 967 c 0x000000010080
 168 967 172 960 175 947 c 0
 178 935 180 920 180 903 c 0
 180 887 178 871 175 859 c 0
 172 846 168 839 162 839 c 0
35 460 m 2
 152 460 l 2
 154 460 155 458 155 457 c 0
 155 455 154 454 152 454 c 2x000000008080
 35 454 l 2
 33 454 32 455 32 457 c 0
 32 458 33 460 35 460 c 2
35 412 m 2
 35 436 l 1
 24 434 18 429 18 423 c 2x00000002041010
 18 405 l 2
 18 402 19 401 22 401 c 0
 27 401 35 406 35 412 c 2
12 405 m 2
 12 423 l 2
 12 432 21 440 38 443 c 0
 40 443 41 441 41 440 c 2
 41 412 l 2
 41 402 31 395 22 395 c 0
 16 395 12 399 12 405 c 2
106 561 m 2x0000000004000020
 146 561 l 2
 148 561 151 562 152 565 c 0
 153 566 154 568 154 570 c 0x0000000008000020
 152 580 150 580 149 580 c 0x0000000040000020
 148 580 147 579 145 579 c 2x00000000400010
 103 567 l 2
 101 566 101 565 101 564 c 0x0000000040000020
 101 562 103 561 106 561 c 2x0000000004000020
160 575 m 2
 160 571 l 2x0800000000000080
 160 567 159 564 157 561 c 0
 154 557 150 555 146 555 c 2
 106 555 l 2
 99 555 95 559 95 563 c 0
 95 568 98 571 101 573 c 2
 143 585 l 2x08000000080010
 145 585 147 586 149 586 c 0
 154 586 158 582 160 575 c 2
141 503 m 1
 141 484 l 2
 141 475 144 471 146 471 c 0
 149 471 153 475 153 484 c 2x0040000004000080
 153 503 l 1
 141 503 l 1
159 506 m 2
 159 484 l 2
 159 471 153 465 146 465 c 0
 141 465 135 470 135 484 c 2
 135 506 l 2x0800000000000080
 135 507 136 509 138 509 c 2
 156 509 l 2
 157 509 159 507 159 506 c 2
95 514 m 2
 125 500 l 1
 124 524 116 528 116 528 c 2
 116 529 115 529 101 536 c 0
 97 536 92 531 91 525 c 0
 91 524 90 523 90 522 c 0x0100000000000080
 90 519 92 516 95 514 c 2
107 541 m 2
 118 534 l 2
 121 533 131 527 131 496 c 0
 131 493 130 492 128 492 c 0
 115 497 103 503 92 509 c 0x00000000080002
 87 511 84 516 84 522 c 0
 84 524 85 525 85 527 c 0
 87 534 93 542 101 542 c 0
 103 542 105 542 107 541 c 2
134 670 m 0x01010000400002
 147 670 159 679 160 682 c 0
 159 685 145 693 134 693 c 0
 127 693 124 687 124 682 c 0
 124 676 127 670 134 670 c 0x01010000400002
166 682 m 0
 166 675 149 664 134 664 c 0x00010200000020
 124 664 118 673 118 682 c 0
 118 690 124 699 134 699 c 0
 147 699 166 689 166 682 c 0
134 779 m 0
 147 779 159 788 160 791 c 0x000002000008
 159 794 145 802 134 802 c 0
 127 802 124 796 124 791 c 0
 124 785 127 779 134 779 c 0
134 808 m 0x000001000008
 147 808 166 798 166 791 c 0x000004000040
 166 784 149 773 134 773 c 0x000002000008
 124 773 118 782 118 791 c 0
 118 799 124 808 134 808 c 0x000001000008
129 737 m 0
 129 757 113 773 93 773 c 0
 73 773 57 757 57 737 c 0x000004000008
 57 717 73 701 93 701 c 0
 113 701 129 717 129 737 c 0
51 737 m 0x000004000040
 51 760 70 779 93 779 c 0
 117 779 135 760 135 737 c 0x000001000002
 135 714 117 695 93 695 c 0x000001000008
 70 695 51 714 51 737 c 0x000004000040
93 663 m 0
 73 663 57 647 57 627 c 0
 57 607 73 591 93 591 c 0
 113 591 129 607 129 627 c 0
 129 647 113 663 93 663 c 0
93 585 m 0x00000100001008
 70 585 51 603 51 627 c 0
 51 650 70 669 93 669 c 0
 117 669 135 650 135 627 c 0
 135 603 117 585 93 585 c 0x00000100001008
93 425 m 0x0000000402
 73 425 57 409 57 389 c 0
 57 369 73 353 93 353 c 0
 113 353 129 369 129 389 c 0
 129 409 113 425 93 425 c 0x0000000402
93 347 m 0
 70 347 51 365 51 389 c 0x000000400010
 51 412 70 431 93 431 c 0
 117 431 135 412 135 389 c 0
 135 365 117 347 93 347 c 0
134 347 m 0
 127 347 124 341 124 336 c 0
 124 330 127 324 134 324 c 0
 147 324 159 333 160 336 c 0x8000004002000010
 159 339 145 347 134 347 c 0
134 318 m 0
 124 318 118 327 118 336 c 0
 118 344 124 353 134 353 c 0x80001084210002
 147 353 166 343 166 336 c 0
 166 329 149 318 134 318 c 0
141 521 m 1
 158 521 l 2
 162 521 165 522 167 524 c 0
 169 526 170 528 170 531 c 0
 170 536 167 541 162 541 c 2
 157 541 l 2
 150 541 142 538 141 521 c 1
158 515 m 2
 138 515 l 2
 136 515 135 516 135 518 c 0
 135 544 151 547 157 547 c 2
 162 547 l 2
 169 547 176 541 176 531 c 0
 176 527 174 523 171 520 c 0
 169 518 165 515 158 515 c 2
93 889 m 0
 89 889 85 885 85 881 c 0
 85 876 89 872 93 872 c 0
 98 872 102 876 102 881 c 0
 102 885 98 889 93 889 c 0
93 866 m 0x00082000000004
 85 866 79 872 79 881 c 0
 79 889 85 895 93 895 c 0
 101 895 108 889 108 881 c 0
 108 872 101 866 93 866 c 0x00082000000004
93 917 m 0x00004000000004
 74 917 57 900 57 880 c 0x000400000080
 57 861 74 844 93 844 c 0x00082000000004
 113 844 129 861 129 880 c 0
 129 900 113 917 93 917 c 0x00004000000004
93 809 m 0
 100 809 107 815 107 823 c 0x020000000080
 107 831 100 837 93 837 c 0x008000000080
 85 837 79 831 79 823 c 0
 79 815 85 809 93 809 c 0
82 840 m 1
 64 845 51 861 51 880 c 0
 51 904 70 923 93 923 c 0x02000000000080
 117 923 135 904 135 880 c 0
 135 861 122 844 104 839 c 1
 110 836 113 830 113 823 c 0
 113 812 104 803 93 803 c 0
 82 803 73 812 73 823 c 0x000400000080
 73 830 76 836 82 840 c 1
36 801 m 2
 36 797 l 2
 36 788 38 782 42 780 c 0
 44 778 47 777 49 777 c 0x10000000000080
 51 778 51 778 51 780 c 2
 51 819 l 2
 51 821 50 822 48 822 c 0
 45 822 41 820 39 817 c 0
 37 813 36 807 36 801 c 2
30 796 m 2
 30 801 l 2x10000000000080
 30 808 32 815 34 819 c 0
 37 825 43 828 48 828 c 0
 53 828 57 824 57 819 c 2x008000000080
 57 780 l 2
 57 777 56 775 55 773 c 0
 53 772 51 771 49 771 c 0
 45 771 41 773 39 775 c 0
 33 778 30 786 30 796 c 2
12 957 m 0x08000000000008
 8 953 8 936 8 930 c 0
 8 922 9 915 13 911 c 0
 14 909 17 907 21 907 c 0
 24 907 27 908 29 911 c 0x00000400000040
 32 914 33 920 33 927 c 0
 33 938 30 950 29 956 c 0
 29 957 29 958 28 959 c 0
 26 975 23 987 21 991 c 1
 19 987 15 976 12 957 c 0x08000000000008
21 901 m 0
 15 901 11 903 8 907 c 0
 4 912 2 920 2 929 c 0x00000200000020
 2 939 4 950 5 956 c 0
 5 963 11 998 20 998 c 0
 23 998 28 998 34 960 c 0
 35 960 35 958 35 957 c 0
 35 956 36 954 36 953 c 0x000004000008
 37 946 39 937 39 928 c 0
 39 920 37 912 33 907 c 0
 30 903 26 901 21 901 c 0
7 877 m 2
 7 868 l 2x000080010008
 8 862 10 857 13 855 c 0
 15 854 19 853 22 853 c 0x000000100008
 27 853 31 856 33 861 c 0
 34 865 35 869 35 874 c 2
 35 879 l 2
 35 881 34 884 33 887 c 2
 31 891 l 1
 27 890 24 890 21 890 c 0
 18 890 14 890 11 891 c 1x000080010008
 11 889 9 888 9 887 c 0
 8 885 7 881 7 877 c 2
41 879 m 2
 41 873 l 2
 41 868 40 863 39 859 c 0
 36 851 29 847 22 847 c 0x000004000040
 17 847 13 848 10 850 c 0
 4 855 2 862 1 868 c 2
 1 874 l 2
 1 881 2 886 4 890 c 2
 4 890 7 897 10 897 c 0x000000080008
 14 897 18 896 21 896 c 0
 25 896 29 896 31 897 c 0
 31 900 37 895 37 893 c 0
 37 892 38 889 38 889 c 2
 40 886 40 882 41 879 c 2
17 371 m 2
 17 336 l 2x0000000021
 17 332 21 330 24 330 c 0
 27 330 30 332 32 334 c 0
 35 336 36 340 36 345 c 2
 36 378 l 2
 36 384 30 384 29 384 c 0
 24 384 17 380 17 371 c 2
42 378 m 2
 42 345 l 2
 42 337 39 332 36 330 c 0
 33 326 28 324 24 324 c 0
 17 325 11 329 11 336 c 2
 11 371 l 2
 11 383 21 390 29 390 c 0
 37 390 42 385 42 378 c 2
85 221 m 2
 46 221 l 2
 45 221 44 220 43 218 c 0
 43 213 45 210 48 208 c 0
 53 206 59 205 66 205 c 0x000000040020
 75 205 83 207 86 212 c 0
 87 214 88 218 88 220 c 1
 87 220 86 221 85 221 c 2
46 227 m 2
 85 227 l 2
 90 227 92 224 93 222 c 0
 94 221 94 219 94 218 c 0x000000440020
 94 214 92 210 90 208 c 0
 86 202 77 199 66 199 c 0x0000004402
 57 199 51 200 46 203 c 0
 40 206 37 212 37 218 c 0
 38 224 42 227 46 227 c 2
56 9 m 2
 69 11 l 2
 72 11 76 12 80 12 c 0
 84 12 85 12 87 13 c 0
 87 15 87 18 86 18 c 0
 80 18 75 19 70 20 c 0
 62 21 56 22 51 27 c 0
 47 31 40 34 33 34 c 0
 31 34 29 33 27 33 c 0
 21 31 18 26 17 20 c 0
 17 13 21 8 27 7 c 0
 30 7 31 6 32 6 c 0
 37 6 42 7 47 8 c 0x20002000008080
 50 9 53 9 56 9 c 2
69 5 m 2
 56 3 l 2
 53 3 51 3 48 2 c 0
 43 1 37 0 32 0 c 0
 31 0 30 1 29 1 c 0
 18 1 12 10 12 18 c 0x44000000000080
 12 29 17 36 25 38 c 0
 27 39 30 40 33 40 c 0
 42 40 50 37 55 31 c 0
 59 28 63 27 69 26 c 0
 76 25 81 24 86 24 c 0
 91 23 94 20 94 16 c 0
 94 12 92 7 88 7 c 0
 86 6 84 6 83 6 c 0
 77 6 73 5 69 5 c 2
79 38 m 0
 85 38 88 41 88 46 c 0
 88 48 88 50 87 51 c 0
 85 53 82 53 80 53 c 0x020000000004
 79 53 68 52 63 50 c 0
 61 49 60 48 60 46 c 0
 60 43 78 38 79 38 c 0
78 59 m 0
 84 59 88 58 91 55 c 0
 93 53 94 50 94 46 c 0
 94 39 89 32 80 32 c 0x000400000004
 71 34 59 36 59 36 c 2
 58 37 54 42 54 45 c 0
 54 46 57 54 61 56 c 2
 61 56 73 57 78 59 c 0
69 80 m 2x001000000080
 56 82 l 2
 53 82 50 82 47 83 c 0
 42 84 37 85 32 85 c 0
 31 85 30 84 29 84 c 0x00040000000004
 27 84 17 76 17 71 c 0
 18 65 21 60 27 58 c 0
 29 58 31 57 33 57 c 0
 40 57 47 60 51 64 c 0
 56 69 62 70 68 71 c 0
 75 72 80 73 86 73 c 0
 87 73 88 74 88 76 c 0
 88 79 84 79 82 79 c 0
 76 79 72 80 69 80 c 2x001000000080
56 88 m 2
 69 86 l 2
 73 86 77 85 81 85 c 0
 84 85 86 85 88 84 c 0x00010000000001
 92 84 94 80 94 76 c 0
 94 71 91 68 86 67 c 0
 81 67 76 66 71 65 c 0
 63 64 59 63 55 60 c 0
 50 55 42 51 33 51 c 0
 30 51 27 52 25 53 c 0
 17 55 12 62 12 71 c 0
 12 81 18 88 26 90 c 0x0000000010000010
 30 90 31 91 32 91 c 0
 37 91 43 90 48 89 c 0
 51 88 53 88 56 88 c 2
93 109 m 0
 113 109 129 125 129 145 c 0
 129 165 113 181 93 181 c 0
 73 181 57 165 57 145 c 0
 57 125 73 109 93 109 c 0
93 187 m 0
 117 187 135 168 135 145 c 0
 135 121 117 103 93 103 c 0
 70 103 51 121 51 145 c 0
 51 168 70 187 93 187 c 0
93 246 m 0
 113 246 129 262 129 282 c 0
 129 302 113 318 93 318 c 0
 73 318 57 302 57 282 c 0x00010000000020
 57 262 73 246 93 246 c 0
93 324 m 0
 117 324 135 305 135 282 c 0
 135 258 117 240 93 240 c 0
 70 240 51 258 51 282 c 0x002000000008
 51 305 70 324 93 324 c 0
166 117 m 2
 166 174 l 2
 166 177 164 180 161 180 c 0
 158 180 156 177 156 174 c 2
 156 117 l 2
 156 114 158 112 161 112 c 0
 164 112 166 114 166 117 c 2
150 117 m 2x000000200001
 150 174 l 2
 150 180 155 186 161 186 c 0x000208000008
 167 186 172 180 172 174 c 2
 172 117 l 2
 172 111 167 106 161 106 c 0
 155 106 150 111 150 117 c 2x000000200001
170 482 m 1
 183 482 l 2
 186 482 188 483 190 484 c 0
 191 486 192 488 192 491 c 0
 192 496 189 501 183 501 c 2
 170 501 l 1
 170 482 l 1
167 507 m 2
 183 507 l 2
 190 507 198 502 198 491 c 0
 198 487 197 483 194 481 c 0
 193 478 189 476 183 476 c 2
 167 476 l 2x0002000000000040
 165 476 164 477 164 479 c 2
 164 504 l 2
 164 506 165 507 167 507 c 2
EndSplineSet
EndChar

StartChar: uniECE1
Encoding: 60641 60641 145
Width: 0
Flags: MW
HStem: 904 91<18 23.5 18 26.5>
VStem: 5 31<922.5 932 920 935>
LayerCount: 2
Fore
SplineSet
20 995 m 0
 27 995 31 965 31 958 c 0
 32 952 36 938 36 926 c 0
 36 914 32 904 21 904 c 0
 8 904 5 916 5 929 c 0
 5 941 8 955 9 958 c 0
 10 964 16 995 20 995 c 0
EndSplineSet
EndChar

StartChar: uniECE2
Encoding: 60642 60642 146
Width: 0
Flags: MW
HStem: 850 43<20 22.5 18 25> 850 45<20 32>
VStem: 4 34<871.5 874 874 877 877 879 871.5 879.5>
LayerCount: 2
Fore
SplineSet
7 891 m 0xa0
 8 892 10 895 10 894 c 0
 13 893 16 893 20 893 c 0
 25 893 30 893 32 895 c 2
 35 888 l 2
 37 885 37 882 38 879 c 2
 38 874 l 2
 38 869 37 864 36 860 c 0
 34 854 28 850 22 850 c 0
 18 850 14 851 12 853 c 0
 7 856 5 862 4 868 c 2
 4 877 l 2
 4 882 6 886 7 891 c 0xa0
EndSplineSet
EndChar

StartChar: uniECE3
Encoding: 60643 60643 147
Width: 0
Flags: MW
HStem: 806 34<88 97.5> 841 79<82.5 104>
VStem: 54 78<869.5 891> 76 34<818.5 827.5>
LayerCount: 2
Fore
SplineSet
132 880 m 0x60
 132 859 115 841 93 841 c 0
 72 841 54 859 54 880 c 0
 54 902 72 920 93 920 c 0
 115 920 132 902 132 880 c 0x60
110 823 m 0x90
 110 814 102 806 93 806 c 0
 83 806 76 814 76 823 c 0
 76 832 83 840 93 840 c 0
 102 840 110 832 110 823 c 0x90
EndSplineSet
EndChar

StartChar: uniECE4
Encoding: 60644 60644 148
Width: 0
Flags: MW
HStem: 842 122<158 166>
VStem: 147 30<886 920>
LayerCount: 2
Fore
SplineSet
177 903 m 0
 177 869 170 842 162 842 c 0
 154 842 147 869 147 903 c 0
 147 937 154 964 162 964 c 0
 170 964 177 937 177 903 c 0
EndSplineSet
EndChar

StartChar: uniECE5
Encoding: 60645 60645 149
Width: 0
Flags: MW
HStem: 774 51<47.5 50 46 50.5>
VStem: 32 22<795.5 803.5>
LayerCount: 2
Fore
SplineSet
54 780 m 2
 54 776 52 774 49 774 c 0
 46 774 43 776 41 777 c 0
 35 781 32 791 32 800 c 0
 32 807 34 814 36 818 c 0
 39 823 44 825 48 825 c 0
 52 825 54 823 54 819 c 2
 54 780 l 2
EndSplineSet
EndChar

StartChar: uniECE6
Encoding: 60646 60646 150
Width: 0
Flags: MW
HStem: 776 29<129.5 140.5 129.5 141>
VStem: 121 42<788.5 793 788.5 793.5>
LayerCount: 2
Fore
SplineSet
134 776 m 0
 125 776 121 783 121 790 c 0
 121 797 125 805 134 805 c 0
 147 805 163 795 163 791 c 0
 163 786 148 776 134 776 c 0
EndSplineSet
EndChar

StartChar: uniECE7
Encoding: 60647 60647 151
Width: 0
Flags: MW
HStem: 698 78<82.5 104>
VStem: 54 78<726.5 748>
LayerCount: 2
Fore
SplineSet
132 737 m 0
 132 716 115 698 93 698 c 0
 72 698 54 716 54 737 c 0
 54 759 72 776 93 776 c 0
 115 776 132 759 132 737 c 0
EndSplineSet
EndChar

StartChar: uniECE8
Encoding: 60648 60648 152
Width: 0
Flags: MW
HStem: 667 29<129.5 140.5 129.5 141>
VStem: 121 42<679.5 684 679.5 684.5>
LayerCount: 2
Fore
SplineSet
134 667 m 0
 125 667 121 674 121 681 c 0
 121 688 125 696 134 696 c 0
 147 696 163 686 163 682 c 0
 163 677 148 667 134 667 c 0
EndSplineSet
EndChar

StartChar: uniECE9
Encoding: 60649 60649 153
Width: 0
Flags: MW
HStem: 588 78<82.5 104>
VStem: 54 78<616 637.5>
LayerCount: 2
Fore
SplineSet
132 627 m 0
 132 605 115 588 93 588 c 0
 72 588 54 605 54 627 c 0
 54 648 72 666 93 666 c 0
 115 666 132 648 132 627 c 0
EndSplineSet
EndChar

StartChar: uniECEA
Encoding: 60650 60650 154
Width: 0
Flags: MW
HStem: 558 25<106 149.5>
VStem: 98 59<562.5 571>
LayerCount: 2
Fore
SplineSet
106 558 m 2
 100 558 98 561 98 564 c 0
 98 566 99 569 102 570 c 2
 144 582 l 2
 146 582 147 583 148 583 c 0
 151 583 155 581 157 571 c 0
 157 563 151 558 146 558 c 2
 106 558 l 2
EndSplineSet
EndChar

StartChar: uniECEB
Encoding: 60651 60651 155
Width: 0
Flags: MW
HStem: 518 26<138 162 138 162>
VStem: 138 35<527.5 529.5>
LayerCount: 2
Fore
SplineSet
138 518 m 1
 138 541 151 544 158 544 c 2
 162 544 l 2
 168 544 173 537 173 531 c 0
 173 524 168 518 158 518 c 2
 138 518 l 1
EndSplineSet
EndChar

StartChar: uniECEC
Encoding: 60652 60652 156
Width: 0
Flags: MW
HStem: 495 44<97.5 128> 531 8
VStem: 87 41<495 526>
LayerCount: 2
Fore
SplineSet
128 495 m 1x60
 128 495 107 505 93 512 c 0
 89 514 87 518 87 522 c 0
 87 530 94 539 101 539 c 0
 102 539 104 539 105 538 c 2
 117 531 l 1
 117 531 128 527 128 495 c 1x60
EndSplineSet
EndChar

StartChar: uniECED
Encoding: 60653 60653 157
Width: 0
Flags: MW
HStem: 468 38<145 149.5>
VStem: 138 18<484 506>
LayerCount: 2
Fore
SplineSet
138 484 m 2
 138 506 l 1
 156 506 l 1
 156 484 l 2
 156 474 152 468 147 468 c 0
 143 468 138 473 138 484 c 2
EndSplineSet
EndChar

StartChar: uniECEE
Encoding: 60654 60654 158
Width: 0
Flags: MW
HStem: 479 25<167 183 167 183>
VStem: 167 28<488 494 488 504 488 504>
LayerCount: 2
Fore
SplineSet
183 479 m 2
 167 479 l 1
 167 504 l 1
 183 504 l 2
 191 504 195 497 195 491 c 0
 195 485 191 479 183 479 c 2
EndSplineSet
EndChar

StartChar: uniECEF
Encoding: 60655 60655 159
Width: 0
Flags: MW
HStem: 398 42<20 38>
VStem: 15 23<408 412 412 423 423 427>
LayerCount: 2
Fore
SplineSet
38 440 m 1
 38 412 l 2
 38 404 29 398 22 398 c 0
 18 398 15 400 15 405 c 2
 15 423 l 2
 15 431 24 437 38 440 c 1
EndSplineSet
EndChar

StartChar: uniECF0
Encoding: 60656 60656 160
Width: 0
Flags: MW
HStem: 327 60<25.5 27.5>
VStem: 14 25<339 345 345 371 371 376.5>
LayerCount: 2
Fore
SplineSet
14 371 m 2
 14 382 22 387 29 387 c 0
 34 387 39 384 39 378 c 2
 39 345 l 2
 39 333 31 327 24 327 c 0
 19 327 14 330 14 336 c 2
 14 371 l 2
EndSplineSet
EndChar

StartChar: uniECF1
Encoding: 60657 60657 161
Width: 0
Flags: MW
HStem: 350 78<82.5 104>
VStem: 54 78<378 399.5>
LayerCount: 2
Fore
SplineSet
132 389 m 0
 132 367 115 350 93 350 c 0
 72 350 54 367 54 389 c 0
 54 410 72 428 93 428 c 0
 115 428 132 410 132 389 c 0
EndSplineSet
EndChar

StartChar: uniECF2
Encoding: 60658 60658 162
Width: 0
Flags: MW
HStem: 321 29<129.5 140.5 129.5 141>
VStem: 121 42<333.5 338 333.5 338.5>
LayerCount: 2
Fore
SplineSet
134 321 m 0
 125 321 121 328 121 335 c 0
 121 342 125 350 134 350 c 0
 147 350 163 340 163 336 c 0
 163 331 148 321 134 321 c 0
EndSplineSet
EndChar

StartChar: uniECF3
Encoding: 60659 60659 163
Width: 0
Flags: MW
HStem: 243 78<82.5 104>
VStem: 54 78<271 292.5>
LayerCount: 2
Fore
SplineSet
132 282 m 0
 132 260 115 243 93 243 c 0
 72 243 54 260 54 282 c 0
 54 303 72 321 93 321 c 0
 115 321 132 303 132 282 c 0
EndSplineSet
EndChar

StartChar: uniECF4
Encoding: 60660 60660 164
Width: 0
Flags: MW
HStem: 202 22<62.5 70.5>
VStem: 40 51<216.5 219>
LayerCount: 2
Fore
SplineSet
85 224 m 2
 89 224 91 221 91 218 c 0
 91 215 89 212 88 210 c 0
 84 204 75 202 66 202 c 0
 59 202 52 203 47 206 c 0
 42 208 40 213 40 217 c 0
 40 221 42 224 46 224 c 2
 85 224 l 2
EndSplineSet
EndChar

StartChar: uniECF5
Encoding: 60661 60661 165
Width: 0
Flags: MW
HStem: 106 78<82.5 104>
VStem: 54 78<134 155.5>
LayerCount: 2
Fore
SplineSet
132 145 m 0
 132 123 115 106 93 106 c 0
 72 106 54 123 54 145 c 0
 54 166 72 184 93 184 c 0
 115 184 132 166 132 145 c 0
EndSplineSet
EndChar

StartChar: uniECF6
Encoding: 60662 60662 166
Width: 0
Flags: MW
HStem: 109 74<159 163.5>
VStem: 153 16<117 174>
LayerCount: 2
Fore
SplineSet
169 174 m 2
 169 117 l 2
 169 113 166 109 161 109 c 0
 157 109 153 113 153 117 c 2
 153 174 l 2
 153 179 157 183 161 183 c 0
 166 183 169 179 169 174 c 2
EndSplineSet
EndChar

StartChar: uniECF7
Encoding: 60663 60663 167
Width: 0
Flags: MW
HStem: 70 15
VStem: 14 77<74.5 75>
LayerCount: 2
Fore
SplineSet
27 87 m 2
 32 87 l 2
 41 87 48 85 56 85 c 2
 81 82 l 2
 83 82 85 82 87 81 c 0
 90 81 91 79 91 76 c 0
 91 73 90 70 86 70 c 0
 80 70 74 69 68 68 c 0
 67 68 57 66 53 62 c 0
 49 57 41 54 34 54 c 0
 31 54 28 54 26 55 c 0
 19 58 15 64 14 71 c 0
 14 79 19 85 27 87 c 2
EndSplineSet
EndChar

StartChar: uniECF8
Encoding: 60664 60664 168
Width: 0
Flags: MW
HStem: 35 21<78.5 80 77 82>
VStem: 57 34<44 49.5>
LayerCount: 2
Fore
SplineSet
62 53 m 2
 62 53 75 56 79 56 c 0
 81 56 91 52 91 47 c 0
 91 46 85 35 79 35 c 0
 78 35 60 39 60 39 c 2
 58 41 57 43 57 45 c 0
 57 48 59 51 62 53 c 2
EndSplineSet
EndChar

StartChar: uniECF9
Encoding: 60665 60665 169
Width: 0
Flags: MW
HStem: 4 33<27 37.5 27 37.5> 6 15
VStem: 14 77<16 16.5 13.5 20>
LayerCount: 2
Fore
SplineSet
32 4 m 2x60
 27 4 l 2x60
 19 6 14 12 14 20 c 0
 15 27 19 33 26 36 c 0
 28 37 31 37 34 37 c 0xa0
 41 37 49 34 53 29 c 0
 57 25 67 23 68 23 c 0
 74 22 80 21 86 21 c 0
 90 21 91 18 91 15 c 0
 91 12 90 10 87 10 c 0
 85 9 83 9 81 9 c 2
 56 6 l 2
 48 6 41 4 32 4 c 2x60
EndSplineSet
EndChar

StartChar: uniECFA
Encoding: 60666 60666 170
Width: 0
Flags: MW
HStem: 841 12<85.5 100.5 85.5 104> 908 12<85.5 100.5>
VStem: 54 12<873 887.5 873 891> 120 12<873 887.5>
LayerCount: 2
Fore
SplineSet
93 908 m 0
 78 908 66 895 66 880 c 0
 66 866 78 853 93 853 c 0
 108 853 120 866 120 880 c 0
 120 895 108 908 93 908 c 0
93 920 m 0
 115 920 132 902 132 880 c 0
 132 859 115 841 93 841 c 0
 72 841 54 859 54 880 c 0
 54 902 72 920 93 920 c 0
EndSplineSet
EndChar

StartChar: uniECFB
Encoding: 60667 60667 171
Width: 0
Flags: MW
HStem: 698 12<85.5 100.5 85.5 104> 764 12<85.5 100.5>
VStem: 54 12<729.5 744.5 729.5 748> 120 12<729.5 744.5>
LayerCount: 2
Fore
SplineSet
93 764 m 0
 78 764 66 752 66 737 c 0
 66 722 78 710 93 710 c 0
 108 710 120 722 120 737 c 0
 120 752 108 764 93 764 c 0
93 776 m 0
 115 776 132 759 132 737 c 0
 132 716 115 698 93 698 c 0
 72 698 54 716 54 737 c 0
 54 759 72 776 93 776 c 0
EndSplineSet
EndChar

StartChar: uniECFC
Encoding: 60668 60668 172
Width: 0
Flags: MW
HStem: 588 12<85.5 100.5 85.5 104> 654 12<85.5 100.5>
VStem: 54 12<619.5 634.5 619.5 637.5> 120 12<619.5 634.5>
LayerCount: 2
Fore
SplineSet
93 654 m 0
 78 654 66 642 66 627 c 0
 66 612 78 600 93 600 c 0
 108 600 120 612 120 627 c 0
 120 642 108 654 93 654 c 0
93 666 m 0
 115 666 132 648 132 627 c 0
 132 605 115 588 93 588 c 0
 72 588 54 605 54 627 c 0
 54 648 72 666 93 666 c 0
EndSplineSet
EndChar

StartChar: uniECFD
Encoding: 60669 60669 173
Width: 0
Flags: MW
HStem: 350 12<85.5 100.5 85.5 104> 416 12<85.5 100.5>
VStem: 54 12<381.5 396.5 381.5 399.5> 120 12<381.5 396.5>
LayerCount: 2
Fore
SplineSet
93 416 m 0
 78 416 66 404 66 389 c 0
 66 374 78 362 93 362 c 0
 108 362 120 374 120 389 c 0
 120 404 108 416 93 416 c 0
93 428 m 0
 115 428 132 410 132 389 c 0
 132 367 115 350 93 350 c 0
 72 350 54 367 54 389 c 0
 54 410 72 428 93 428 c 0
EndSplineSet
EndChar

StartChar: uniECFE
Encoding: 60670 60670 174
Width: 0
Flags: MW
HStem: 243 12<85.5 100.5 85.5 104> 309 12<85.5 100.5>
VStem: 54 12<274.5 289.5 274.5 292.5> 120 12<274.5 289.5>
LayerCount: 2
Fore
SplineSet
93 309 m 0
 78 309 66 297 66 282 c 0
 66 267 78 255 93 255 c 0
 108 255 120 267 120 282 c 0
 120 297 108 309 93 309 c 0
93 321 m 0
 115 321 132 303 132 282 c 0
 132 260 115 243 93 243 c 0
 72 243 54 260 54 282 c 0
 54 303 72 321 93 321 c 0
EndSplineSet
EndChar

StartChar: uniECFF
Encoding: 60671 60671 175
Width: 0
Flags: MW
HStem: 106 12<85.5 100.5 85.5 104> 172 12<85.5 100.5>
VStem: 54 12<137.5 152.5 137.5 155.5> 120 12<137.5 152.5>
LayerCount: 2
Fore
SplineSet
93 172 m 0
 78 172 66 160 66 145 c 0
 66 130 78 118 93 118 c 0
 108 118 120 130 120 145 c 0
 120 160 108 172 93 172 c 0
93 184 m 0
 115 184 132 166 132 145 c 0
 132 123 115 106 93 106 c 0
 72 106 54 123 54 145 c 0
 54 166 72 184 93 184 c 0
EndSplineSet
EndChar

StartChar: uniED00
Encoding: 60672 60672 176
Width: 0
Flags: MW
HStem: 806 34<88 97.5>
VStem: 76 34<818.5 827.5>
LayerCount: 2
Fore
SplineSet
110 823 m 0
 110 814 102 806 93 806 c 0
 83 806 76 814 76 823 c 0
 76 832 83 840 93 840 c 0
 102 840 110 832 110 823 c 0
EndSplineSet
EndChar

StartChar: uniED01
Encoding: 60673 60673 177
Width: 0
Flags: MW
HStem: 698 78<82.5 93>
VStem: 54 39<726.5 748>
LayerCount: 2
Fore
SplineSet
93 776 m 1
 93 698 l 1
 72 698 54 716 54 737 c 0
 54 759 72 776 93 776 c 1
EndSplineSet
EndChar

StartChar: uniED02
Encoding: 60674 60674 178
Width: 0
Flags: MW
HStem: 588 78<82.5 93>
VStem: 54 39<616 637.5>
LayerCount: 2
Fore
SplineSet
93 666 m 1
 93 588 l 1
 72 588 54 605 54 627 c 0
 54 648 72 666 93 666 c 1
EndSplineSet
EndChar

StartChar: uniED03
Encoding: 60675 60675 179
Width: 0
Flags: MW
HStem: 350 78<82.5 93>
VStem: 54 39<378 399.5>
LayerCount: 2
Fore
SplineSet
93 428 m 1
 93 350 l 1
 72 350 54 367 54 389 c 0
 54 410 72 428 93 428 c 1
EndSplineSet
EndChar

StartChar: uniED04
Encoding: 60676 60676 180
Width: 0
Flags: MW
HStem: 242 78<82.5 93>
VStem: 54 39<270 291.5>
LayerCount: 2
Fore
SplineSet
93 320 m 1
 93 242 l 1
 72 242 54 259 54 281 c 0
 54 302 72 320 93 320 c 1
EndSplineSet
EndChar

StartChar: uniED05
Encoding: 60677 60677 181
Width: 0
Flags: MW
HStem: 106 78<82.5 93>
VStem: 54 39<134 155.5>
LayerCount: 2
Fore
SplineSet
93 184 m 1
 93 106 l 1
 72 106 54 123 54 145 c 0
 54 166 72 184 93 184 c 1
EndSplineSet
EndChar

StartChar: uniED06
Encoding: 60678 60678 182
Width: 0
Flags: MW
HStem: 698 78<93 104>
VStem: 93 39<726.5 748 726.5 776 726.5 776>
LayerCount: 2
Fore
SplineSet
132 737 m 0
 132 716 115 698 93 698 c 1
 93 776 l 1
 115 776 132 759 132 737 c 0
EndSplineSet
EndChar

StartChar: uniED07
Encoding: 60679 60679 183
Width: 0
Flags: MW
HStem: 588 78<93 104>
VStem: 93 39<616 637.5 616 666 616 666>
LayerCount: 2
Fore
SplineSet
132 627 m 0
 132 605 115 588 93 588 c 1
 93 666 l 1
 115 666 132 648 132 627 c 0
EndSplineSet
EndChar

StartChar: uniED08
Encoding: 60680 60680 184
Width: 0
Flags: MW
HStem: 350 78<93 104>
VStem: 93 39<378 399.5 378 428 378 428>
LayerCount: 2
Fore
SplineSet
132 389 m 0
 132 367 115 350 93 350 c 1
 93 428 l 1
 115 428 132 410 132 389 c 0
EndSplineSet
EndChar

StartChar: uniED09
Encoding: 60681 60681 185
Width: 0
Flags: MW
HStem: 243 78<93 104>
VStem: 93 39<271 293 271 321 271 321>
LayerCount: 2
Fore
SplineSet
132 282 m 0
 132 260 115 243 93 243 c 1
 93 321 l 1
 115 321 132 304 132 282 c 0
EndSplineSet
EndChar

StartChar: uniED0A
Encoding: 60682 60682 186
Width: 0
Flags: MW
HStem: 106 78<93 104>
VStem: 93 39<134 155.5 134 184 134 184>
LayerCount: 2
Fore
SplineSet
132 145 m 0
 132 123 115 106 93 106 c 1
 93 184 l 1
 115 184 132 166 132 145 c 0
EndSplineSet
EndChar

StartChar: uniED0B
Encoding: 60683 60683 187
Width: 0
Flags: MW
HStem: 703 68<74 74>
VStem: 55 19<730 744.5>
LayerCount: 2
Fore
SplineSet
74 771 m 1
 74 703 l 1
 63 710 55 723 55 737 c 0
 55 752 63 764 74 771 c 1
EndSplineSet
EndChar

StartChar: uniED0C
Encoding: 60684 60684 188
Width: 0
Flags: MW
HStem: 593 68<74 74>
VStem: 55 19<619.5 634>
LayerCount: 2
Fore
SplineSet
74 661 m 1
 74 593 l 1
 63 600 55 612 55 627 c 0
 55 641 63 654 74 661 c 1
EndSplineSet
EndChar

StartChar: uniED0D
Encoding: 60685 60685 189
Width: 0
Flags: MW
HStem: 355 68<74 74>
VStem: 55 19<382 396.5>
LayerCount: 2
Fore
SplineSet
74 423 m 1
 74 355 l 1
 63 362 55 375 55 389 c 0
 55 404 63 416 74 423 c 1
EndSplineSet
EndChar

StartChar: uniED0E
Encoding: 60686 60686 190
Width: 0
Flags: MW
HStem: 248 68<74 74>
VStem: 55 19<275 289.5>
LayerCount: 2
Fore
SplineSet
74 316 m 1
 74 248 l 1
 63 255 55 268 55 282 c 0
 55 297 63 309 74 316 c 1
EndSplineSet
EndChar

StartChar: uniED0F
Encoding: 60687 60687 191
Width: 0
Flags: MW
HStem: 111 68<74 74>
VStem: 55 19<137.5 152>
LayerCount: 2
Fore
SplineSet
74 179 m 1
 74 111 l 1
 63 118 55 130 55 145 c 0
 55 159 63 172 74 179 c 1
EndSplineSet
EndChar

StartChar: uniED10
Encoding: 60688 60688 192
Width: 0
Flags: MW
HStem: 704 67<113 113>
VStem: 113 19<730.5 745 730.5 771>
LayerCount: 2
Fore
SplineSet
113 704 m 1
 113 771 l 1
 125 765 132 752 132 738 c 0
 132 723 125 710 113 704 c 1
EndSplineSet
EndChar

StartChar: uniED11
Encoding: 60689 60689 193
Width: 0
Flags: MW
HStem: 593 68<113 113>
VStem: 113 19<619.5 634 619.5 661>
LayerCount: 2
Fore
SplineSet
113 593 m 1
 113 661 l 1
 125 654 132 641 132 627 c 0
 132 612 125 600 113 593 c 1
EndSplineSet
EndChar

StartChar: uniED12
Encoding: 60690 60690 194
Width: 0
Flags: MW
HStem: 354 68<113 113>
VStem: 113 19<381 395.5 381 422>
LayerCount: 2
Fore
SplineSet
113 354 m 1
 113 422 l 1
 125 415 132 403 132 388 c 0
 132 374 125 361 113 354 c 1
EndSplineSet
EndChar

StartChar: uniED13
Encoding: 60691 60691 195
Width: 0
Flags: MW
HStem: 248 67<113 113>
VStem: 113 19<274.5 289 274.5 315>
LayerCount: 2
Fore
SplineSet
113 248 m 1
 113 315 l 1
 125 309 132 296 132 282 c 0
 132 267 125 254 113 248 c 1
EndSplineSet
EndChar

StartChar: uniED14
Encoding: 60692 60692 196
Width: 0
Flags: MW
HStem: 110 68<113 113>
VStem: 113 19<137 151.5 137 178>
LayerCount: 2
Fore
SplineSet
113 110 m 1
 113 178 l 1
 125 171 132 159 132 144 c 0
 132 130 125 117 113 110 c 1
EndSplineSet
EndChar

StartChar: uniED15
Encoding: 60693 60693 197
Width: 0
Flags: MW
HStem: 919 54
VStem: -8 55
LayerCount: 2
Fore
SplineSet
-5 919 m 2
 -5 919 -6 919 -7 920 c 0
 -8 921 -8 923 -7 924 c 2
 41 972 l 2
 42 973 44 973 45 972 c 0
 47 971 47 969 45 968 c 2
 -3 920 l 2
 -3 919 -4 919 -5 919 c 2
EndSplineSet
EndChar

StartChar: uniED16
Encoding: 60694 60694 198
Width: 0
Flags: MW
HStem: 844 53
VStem: -7 54
LayerCount: 2
Fore
SplineSet
-3 844 m 2
 -4 844 -5 844 -6 845 c 0
 -7 846 -7 848 -6 849 c 2
 42 896 l 2
 43 898 45 898 46 896 c 0
 47 895 47 893 46 892 c 2
 -1 845 l 2
 -2 844 -3 844 -3 844 c 2
EndSplineSet
EndChar

StartChar: uniED17
Encoding: 60695 60695 199
Width: 0
Flags: MW
HStem: 800 127
VStem: 48 91
LayerCount: 2
Fore
SplineSet
53 837 m 1
 53 837 52 836 51 836 c 2
 51 836 50 837 49 837 c 0
 48 838 48 840 49 841 c 2
 134 926 l 2
 135 927 137 927 138 926 c 0
 139 925 139 923 138 922 c 2
 53 837 l 1
73 801 m 2
 73 800 72 800 71 800 c 0
 70 800 69 801 69 801 c 2
 68 802 68 804 69 805 c 2
 112 843 l 2
 113 844 115 844 116 843 c 0
 117 842 117 840 116 839 c 2
 73 801 l 2
EndSplineSet
EndChar

StartChar: uniED18
Encoding: 60696 60696 200
Width: 0
Flags: MW
HStem: 880 56
VStem: 133 57
LayerCount: 2
Fore
SplineSet
137 880 m 2
 136 880 135 880 134 881 c 0
 133 882 133 884 134 885 c 2
 184 935 l 2
 186 936 188 936 189 935 c 0
 190 934 190 932 189 931 c 2
 139 881 l 2
 138 880 137 880 137 880 c 2
EndSplineSet
EndChar

StartChar: uniED19
Encoding: 60697 60697 201
Width: 0
Flags: MW
HStem: 777 49
VStem: 20 50
LayerCount: 2
Fore
SplineSet
67 777 m 2
 66 777 65 777 64 778 c 2
 21 821 l 2
 20 822 20 824 21 825 c 0
 23 826 25 826 26 825 c 2
 69 782 l 2
 70 781 70 779 69 778 c 0
 68 777 67 777 67 777 c 2
EndSplineSet
EndChar

StartChar: uniED1A
Encoding: 60698 60698 202
Width: 0
Flags: MW
HStem: 767 46
VStem: 117 46
LayerCount: 2
Fore
SplineSet
160 767 m 0
 159 767 158 767 158 768 c 2
 118 808 l 2
 117 809 117 811 118 812 c 0
 119 813 121 813 122 812 c 2
 162 772 l 2
 163 771 163 769 162 768 c 0
 161 767 161 767 160 767 c 0
EndSplineSet
EndChar

StartChar: uniED1B
Encoding: 60699 60699 203
Width: 0
Flags: MW
HStem: 693 84
VStem: 50 85
LayerCount: 2
Fore
SplineSet
54 693 m 2
 53 693 52 693 51 694 c 0
 50 695 50 697 51 698 c 2
 129 776 l 2
 131 777 133 777 134 776 c 0
 135 775 135 773 134 772 c 2
 56 694 l 2
 55 693 54 693 54 693 c 2
EndSplineSet
EndChar

StartChar: uniED1C
Encoding: 60700 60700 204
Width: 0
Flags: MW
HStem: 657 46
VStem: 117 46
LayerCount: 2
Fore
SplineSet
160 657 m 0
 159 657 158 657 158 658 c 2
 118 698 l 2
 117 699 117 701 118 702 c 0
 119 703 121 703 122 702 c 2
 162 662 l 2
 163 661 163 659 162 658 c 0
 161 657 161 657 160 657 c 0
EndSplineSet
EndChar

StartChar: uniED1D
Encoding: 60701 60701 205
Width: 0
Flags: MW
HStem: 583 84
VStem: 50 85
LayerCount: 2
Fore
SplineSet
54 583 m 2
 53 583 52 583 51 584 c 0
 50 585 50 587 51 588 c 2
 129 666 l 2
 131 667 133 667 134 666 c 0
 135 665 135 663 134 662 c 2
 56 584 l 2
 55 583 54 583 54 583 c 2
EndSplineSet
EndChar

StartChar: uniED1E
Encoding: 60702 60702 206
Width: 0
Flags: MW
HStem: 548 41
VStem: 111 41
LayerCount: 2
Fore
SplineSet
149 548 m 0
 148 548 147 548 147 549 c 2
 112 584 l 2
 111 585 111 587 112 588 c 0
 113 589 115 589 116 588 c 2
 151 553 l 2
 152 552 152 550 151 549 c 0
 150 548 150 548 149 548 c 0
EndSplineSet
EndChar

StartChar: uniED1F
Encoding: 60703 60703 207
Width: 0
Flags: MW
HStem: 509 46
VStem: 133 47
LayerCount: 2
Fore
SplineSet
137 509 m 2
 136 509 135 509 134 510 c 0
 133 511 133 513 134 514 c 2
 174 554 l 2
 175 555 177 555 178 554 c 0
 180 553 180 551 178 550 c 2
 139 510 l 2
 138 509 137 509 137 509 c 2
EndSplineSet
EndChar

StartChar: uniED20
Encoding: 60704 60704 208
Width: 0
Flags: MW
HStem: 498 43
VStem: 85 44
LayerCount: 2
Fore
SplineSet
90 499 m 2
 89 498 89 498 88 498 c 0
 87 498 86 498 86 499 c 0
 85 500 85 502 86 503 c 2
 123 540 l 2
 124 542 126 542 127 540 c 0
 129 539 129 537 127 536 c 2
 90 499 l 2
EndSplineSet
EndChar

StartChar: uniED21
Encoding: 60705 60705 209
Width: 0
Flags: MW
HStem: 468 44
VStem: 124 44
LayerCount: 2
Fore
SplineSet
127 468 m 2
 127 468 126 468 125 469 c 0
 124 470 124 472 125 473 c 2
 163 511 l 2
 164 512 166 512 167 511 c 0
 168 510 168 508 167 507 c 2
 129 469 l 2
 129 468 128 468 127 468 c 2
EndSplineSet
EndChar

StartChar: uniED22
Encoding: 60706 60706 210
Width: 0
Flags: MW
HStem: 467 44
VStem: 157 44
LayerCount: 2
Fore
SplineSet
162 468 m 2
 161 468 161 467 160 467 c 0
 159 467 158 468 158 468 c 2
 157 469 157 471 158 472 c 2
 196 510 l 2
 197 512 199 512 200 510 c 0
 201 509 201 507 200 506 c 2
 162 468 l 2
EndSplineSet
EndChar

StartChar: uniED23
Encoding: 60707 60707 211
Width: 0
Flags: MW
HStem: 394 44
VStem: 3 45
LayerCount: 2
Fore
SplineSet
6 394 m 1
 4 394 l 2
 3 396 3 397 4 399 c 2
 43 437 l 2
 44 438 46 438 47 437 c 0
 48 436 48 434 47 433 c 2
 9 394 l 1
 6 394 l 1
EndSplineSet
EndChar

StartChar: uniED24
Encoding: 60708 60708 212
Width: 0
Flags: MW
HStem: 337 43
VStem: 5 43
LayerCount: 2
Fore
SplineSet
10 338 m 2
 9 337 9 337 8 337 c 0
 7 337 6 337 6 338 c 0
 5 339 5 341 6 342 c 2
 43 379 l 2
 44 380 46 380 47 379 c 0
 48 378 48 376 47 375 c 2
 10 338 l 2
EndSplineSet
EndChar

StartChar: uniED25
Encoding: 60709 60709 213
Width: 0
Flags: MW
HStem: 347 84
VStem: 50 85
LayerCount: 2
Fore
SplineSet
54 347 m 2
 53 347 52 347 51 348 c 0
 50 349 50 351 51 352 c 2
 129 430 l 2
 131 431 133 431 134 430 c 0
 135 429 135 427 134 426 c 2
 56 348 l 2
 55 347 54 347 54 347 c 2
EndSplineSet
EndChar

StartChar: uniED26
Encoding: 60710 60710 214
Width: 0
Flags: MW
HStem: 312 45
VStem: 117 46
LayerCount: 2
Fore
SplineSet
160 312 m 0
 159 312 158 312 158 313 c 2
 118 352 l 2
 117 353 117 355 118 356 c 0
 119 358 121 358 122 356 c 2
 162 317 l 2
 163 316 163 314 162 313 c 0
 161 312 161 312 160 312 c 0
EndSplineSet
EndChar

StartChar: uniED27
Encoding: 60711 60711 215
Width: 0
Flags: MW
HStem: 235 84
VStem: 50 85
LayerCount: 2
Fore
SplineSet
54 235 m 2
 53 235 52 235 51 236 c 0
 50 237 50 239 51 240 c 2
 129 318 l 2
 131 319 133 319 134 318 c 0
 135 317 135 315 134 314 c 2
 56 236 l 2
 55 235 54 235 54 235 c 2
EndSplineSet
EndChar

StartChar: uniED28
Encoding: 60712 60712 216
Width: 0
Flags: MW
HStem: 190 46
VStem: 41 47
LayerCount: 2
Fore
SplineSet
44 190 m 1
 42 190 l 2
 41 192 41 193 42 195 c 2
 83 235 l 2
 84 236 86 236 87 235 c 0
 88 234 88 232 87 231 c 2
 47 190 l 1
 44 190 l 1
EndSplineSet
EndChar

StartChar: uniED29
Encoding: 60713 60713 217
Width: 0
Flags: MW
HStem: 102 84
VStem: 50 85
LayerCount: 2
Fore
SplineSet
54 102 m 2
 53 102 52 102 51 103 c 0
 50 104 50 106 51 107 c 2
 129 185 l 2
 131 186 133 186 134 185 c 0
 135 184 135 182 134 181 c 2
 56 103 l 2
 55 102 54 102 54 102 c 2
EndSplineSet
EndChar

StartChar: uniED2A
Encoding: 60714 60714 218
Width: 0
Flags: MW
HStem: 124 47
VStem: 135 48
LayerCount: 2
Fore
SplineSet
138 124 m 1
 136 124 l 2
 135 126 135 127 136 129 c 2
 177 170 l 2
 178 171 180 171 182 170 c 0
 183 168 183 167 182 165 c 2
 141 124 l 1
 138 124 l 1
EndSplineSet
EndChar

StartChar: uniED2B
Encoding: 60715 60715 219
Width: 0
Flags: MW
HStem: 43 52
VStem: 12 52
LayerCount: 2
Fore
SplineSet
17 44 m 2
 16 43 16 43 15 43 c 0
 14 43 13 43 13 44 c 0
 12 45 12 47 13 48 c 2
 59 94 l 2
 60 95 62 95 63 94 c 0
 64 93 64 91 63 90 c 2
 17 44 l 2
EndSplineSet
EndChar

StartChar: uniED2C
Encoding: 60716 60716 220
Width: 0
Flags: MW
HStem: 26 42
VStem: 55 43
LayerCount: 2
Fore
SplineSet
58 26 m 1
 56 26 l 2
 55 28 55 29 56 31 c 2
 93 67 l 2
 94 68 96 68 97 67 c 0
 98 66 98 64 97 63 c 2
 61 26 l 1
 58 26 l 1
EndSplineSet
EndChar

StartChar: uniED2D
Encoding: 60717 60717 221
Width: 0
Flags: MW
HStem: 0 21G<13 13>
VStem: 8 47
LayerCount: 2
Fore
SplineSet
13 0 m 2
 12 -1 12 -1 11 -1 c 0
 10 -1 9 -1 9 0 c 0
 8 1 8 3 9 4 c 2
 50 45 l 2
 51 46 53 46 54 45 c 0
 55 44 55 42 54 41 c 2
 13 0 l 2
EndSplineSet
EndChar

StartChar: uniED30
Encoding: 60720 60720 222
Width: 0
Flags: MW
HStem: -6 30 7 78<368 418 420 424.5 368 437> 17 9 37 8 39 24 136 7 146 7<89 95> 159 7<427 427> 173 51 175 8 178 21<499.5 501> 180 7<146 184 146 175> 193 22 205 10 209 34 225 20<147.5 177 147.5 169> 237 18 239 7 245 59<90.5 161> 249 21 259 12 264 29 281 12 285 25<92.5 140 92.5 131> 287 63 298 21<516 530 516 533> 304 51<90.5 205> 313 19 326 34<567 604 567 604 566 604> 327 7 339 7 349 33<165 208 165 208> 354 22 361 9 370 20<516 530> 376 48<90.5 162 90.5 205> 377 7 384 28<521 532.5> 388 7 406 63<519.5 537> 409 63 418 28<92.5 106 90.5 119.5> 424 7<146.5 154> 440 45<91.5 118 107.5 126> 457 7<454.5 463> 466 24 484 18
VStem: -6 119 2 29<305 337> 5 46 25 28<308 379 337 379> 28 18 39 15 45 25<884.5 888 888 988> 48 9 48 59 51 8 64 25<889.5 897 897 985> 81 7 83 7<149.5 157> 83 24<897.5 901 901 988> 91 17 101 62 101 89<905 911 911 985 905 985> 107 63 113 7 121 25 138 7 140 45 141 17<819 838.5> 146 60<655.5 669> 157 20<225 225 231 231> 160 51<352 353 377.5 378> 164 7 167 7<868 870.5> 178 12 179 22 184 20 184 24<911 988> 187 7 195 7 198 63 200 20<665.5 667.5> 202 26<885 985> 203 63 214 25<664.5 676.5> 222 25<851 851 870 988> 233 115<679 693 693 693> 241 34<804 985> 255 58 269 25<807 814.5> 271 7 291 13
LayerCount: 2
Fore
SplineSet
592 593 m 1x800002000001
 585 605 l 2
 582 605 579 603 574 602 c 0
 572 601 569 600 567 600 c 0
 562 600 552 602 547 613 c 1
 492 596 l 2
 492 594 492 593 493 592 c 0
 494 583 496 573 503 569 c 0
 508 566 513 565 519 565 c 0
 522 565 524 565 527 566 c 0x000002040000000000000080
 540 569 553 574 565 580 c 0
 566 580 568 581 569 581 c 0
 577 585 585 588 592 593 c 1x800002000001
488 600 m 2
 548 620 l 2
 549 620 551 619 551 618 c 0
 555 608 563 606 567 606 c 0
 569 606 570 607 572 607 c 0
 580 610 585 612 585 612 c 2
 586 612 595 600 598 594 c 0
 598 584 576 579 571 576 c 2
 567 574 l 2
 555 568 542 563 528 560 c 0
 525 559 522 559 519 559 c 0
 512 559 505 561 500 564 c 0x000008040000000000002020
 490 570 488 582 487 591 c 0
 486 593 486 595 486 597 c 0
 486 598 487 600 488 600 c 2
566 658 m 2
 565 673 l 1
 556 672 547 671 540 669 c 0
 538 669 537 668 535 668 c 0
 522 666 508 663 496 657 c 0
 489 654 482 648 479 641 c 0
 478 639 478 637 478 635 c 0
 478 629 481 622 484 616 c 0
 484 615 485 614 485 613 c 2
 540 630 l 1
 540 634 l 2
 540 640 541 644 543 646 c 0x000002040000000000001020
 546 651 551 654 556 655 c 0
 560 657 564 658 566 658 c 2
481 608 m 2
 478 614 l 2x00008000000001
 475 620 472 627 472 635 c 0x0000800000000000000001
 472 638 472 641 473 644 c 0
 477 652 485 659 494 663 c 0
 506 668 518 670 530 673 c 0
 531 673 533 674 534 674 c 0
 536 674 537 675 539 675 c 0
 548 677 558 679 568 679 c 0
 569 679 570 677 571 676 c 2
 573 656 l 2
 573 655 572 654 570 653 c 2
 570 653 565 652 557 650 c 0
 548 647 546 640 546 634 c 2
 546 629 l 2
 546 627 545 626 544 625 c 2
 484 606 l 2
 482 606 481 607 481 608 c 2
472 847 m 0
 472 849 466 857 461 857 c 0
 457 857 416 847 391 841 c 0x000004004003
 389 840 388 839 388 837 c 0x0008000000000000000001
 388 836 389 834 391 834 c 0
 399 834 418 834 430 833 c 0
 431 832 433 832 435 832 c 0
 439 831 443 831 446 831 c 0
 452 831 457 832 462 834 c 0x00080400000001
 466 837 472 840 472 847 c 0
390 847 m 0
 396 848 455 863 461 863 c 0
 470 863 477 858 478 850 c 0
 478 841 473 834 465 829 c 0
 459 826 453 825 446 825 c 0
 442 825 438 825 434 826 c 0
 432 826 431 826 429 827 c 0
 418 828 399 828 391 828 c 0
 387 828 383 832 382 836 c 0
 382 842 385 845 390 847 c 0
458 782 m 0
 458 796 447 808 433 808 c 0
 419 808 407 796 407 782 c 0
 407 768 419 757 433 757 c 0
 447 757 458 768 458 782 c 0
401 782 m 0x000000000005
 401 800 415 814 433 814 c 0
 450 814 464 800 464 782 c 0
 464 765 450 751 433 751 c 0
 415 751 401 765 401 782 c 0x000000000005
407 904 m 0x0000000000050001
 407 890 419 879 433 879 c 0
 447 879 458 890 458 904 c 0
 458 918 447 930 433 930 c 0
 419 930 407 918 407 904 c 0x0000000000050001
464 904 m 0
 464 887 450 873 433 873 c 0
 415 873 401 887 401 904 c 0
 401 921 415 936 433 936 c 0x0000000002000000000010
 450 936 464 921 464 904 c 0
376 966 m 2
 400 966 l 2
 405 966 409 964 414 961 c 0
 421 958 428 954 438 954 c 0x0000000040000001
 447 954 464 961 464 973 c 0x8000000000000040
 464 982 459 983 454 984 c 2x8000000000000001
 377 984 l 2x00000000020000000020
 369 984 366 979 366 975 c 0
 366 971 369 966 376 966 c 2
400 960 m 2x800000000000004004
 376 960 l 2
 365 960 360 968 360 975 c 0
 360 982 366 990 377 990 c 2
 453 990 l 2
 464 987 470 984 470 973 c 0
 470 965 466 959 458 954 c 0
 452 951 444 948 438 948 c 0
 427 948 419 953 412 956 c 0
 407 958 403 960 400 960 c 2x800000000000004004
426 713 m 0
 412 713 401 702 401 688 c 0
 401 674 412 663 426 663 c 0x0000000200000040
 440 663 451 674 451 688 c 0x80000000000040
 451 702 440 713 426 713 c 0
426 657 m 0x000200020000400401
 409 657 395 671 395 688 c 0
 395 705 409 719 426 719 c 0
 443 719 457 705 457 688 c 0
 457 671 443 657 426 657 c 0x000200020000400401
348 701 m 1
 348 679 l 1
 384 679 l 2
 386 679 387 678 387 676 c 0x002010000000010001
 392 660 408 648 425 648 c 0
 447 648 465 666 465 688 c 0
 465 710 447 728 425 728 c 0
 409 728 394 718 388 703 c 0
 388 701 386 701 385 701 c 2
 348 701 l 1
382 673 m 1
 345 673 l 2
 343 673 342 674 342 676 c 2
 342 704 l 2
 342 705 343 707 345 707 c 2
 383 707 l 1
 390 723 407 734 425 734 c 0
 451 734 471 714 471 688 c 0
 471 663 451 642 425 642 c 0x00020004080009
 406 642 389 654 382 673 c 1
288 985 m 1
 274 985 l 1
 275 962 275 819 275 809 c 0
 275 799 272 796 268 794 c 0
 257 794 243 791 232 791 c 2
 215 791 l 2
 205 791 191 788 185 782 c 0
 181 778 181 773 181 770 c 0
 182 764 185 758 191 755 c 0
 195 753 200 751 206 751 c 0x000000004000000020
 214 751 222 753 230 755 c 2x00020004080009
 237 757 l 2
 240 757 243 758 245 758 c 0
 256 760 267 762 277 767 c 0
 287 771 288 776 288 781 c 2x00000004080040
 288 985 l 1
215 797 m 2
 232 797 l 2
 250 797 261 798 263 798 c 0x802010000000010001
 268 800 269 805 269 809 c 0
 269 820 268 986 268 988 c 0x000000000003
 268 989 270 991 271 991 c 2
 291 991 l 2x800000000001
 293 991 294 990 294 988 c 2x000000000081
 294 781 l 2
 294 769 287 764 279 761 c 0x000000000080000080
 269 757 258 754 247 752 c 0
 244 752 241 751 238 751 c 2x000000000081
 231 749 l 2x000000800000000080
 223 747 215 745 206 745 c 0
 199 745 193 747 188 750 c 0x000000800001
 181 754 176 761 175 769 c 0
 175 778 177 783 181 786 c 0x000000800000000080
 189 795 207 797 215 797 c 2
201 697 m 2
 213 691 l 2x0000800000000002
 217 688 220 684 220 671 c 0
 220 660 219 597 219 582 c 1x0008000000000002
 233 582 l 1
 233 693 l 2
 232 703 229 711 223 717 c 0
 216 724 207 729 198 729 c 0
 197 729 185 727 182 723 c 0
 181 722 180 719 180 716 c 0
 181 712 185 706 189 704 c 0
 191 702 196 699 201 697 c 2
236 576 m 2
 216 576 l 2
 214 576 213 578 213 579 c 0
 213 580 214 658 214 671 c 0
 214 682 211 684 210 686 c 0
 209 686 202 690 199 692 c 0
 193 694 188 697 185 699 c 0
 180 702 175 709 174 716 c 0
 174 720 175 724 178 727 c 0
 183 733 191 735 197 735 c 0
 209 735 220 729 227 721 c 0
 235 713 239 702 239 693 c 2x0000080000000000000004
 239 579 l 2x0008000000000002
 239 577 237 576 236 576 c 2
176 643 m 0
 189 643 200 652 200 662 c 0
 200 673 189 682 176 682 c 0x8000000000000000000020
 163 682 152 673 152 662 c 0
 152 652 163 643 176 643 c 0
176 688 m 0
 192 688 206 676 206 662 c 0
 206 649 192 637 176 637 c 0x00000000020000000002
 160 637 146 649 146 662 c 0
 146 676 160 688 176 688 c 0
222 851 m 2
 210 844 l 2
 205 842 200 839 197 837 c 0
 193 835 190 829 189 825 c 0
 189 822 189 820 191 818 c 0x00000000020000080002
 194 814 200 812 206 812 c 0
 215 812 224 817 231 824 c 0
 237 831 241 839 241 846 c 2
 241 985 l 1x00000000020000000020
 228 985 l 1
 228 870 l 2
 228 857 225 853 222 851 c 2
247 988 m 2
 247 849 l 2x0000000002000008
 247 837 243 828 236 820 c 0
 228 811 217 806 206 806 c 0
 200 806 191 808 186 814 c 0
 184 816 183 819 183 823 c 0
 184 832 188 839 194 843 c 0
 197 844 202 847 207 850 c 0x0000000002000001
 211 852 217 855 218 855 c 1
 218 856 222 865 222 870 c 2
 222 988 l 2
 222 990 224 991 225 991 c 2
 244 991 l 2
 246 991 247 990 247 988 c 2
190 985 m 1x00000002000004
 190 911 l 2
 190 899 186 889 179 882 c 0x0000000200000004
 176 879 174 873 174 868 c 0
 174 862 176 860 179 859 c 0
 181 858 183 858 184 858 c 0
 192 858 198 864 200 868 c 0
 202 873 202 879 202 885 c 2
 202 985 l 1
 190 985 l 1x00000002000004
208 988 m 2
 208 885 l 2
 208 879 208 872 206 866 c 0
 203 860 195 852 184 852 c 0
 180 852 178 852 177 853 c 0
 172 855 169 859 168 864 c 0
 168 866 167 867 167 869 c 0
 167 876 171 883 175 886 c 0x000000140800080000000040
 181 892 184 901 184 911 c 2
 184 988 l 2x00000000400004
 184 990 186 991 187 991 c 2
 205 991 l 2
 206 991 208 990 208 988 c 2
89 985 m 1
 89 897 l 2
 89 882 94 875 101 868 c 0
 102 867 112 858 115 852 c 0
 122 840 134 822 138 820 c 0x004040008000000000400040
 139 819 141 819 141 819 c 2
 146 819 150 824 152 830 c 2
 152 834 l 2
 152 840 150 847 147 851 c 0
 142 857 135 862 128 867 c 0x000020000400000000000040
 125 868 123 870 121 871 c 0
 117 873 112 875 108 879 c 0
 102 884 101 896 101 901 c 2
 101 985 l 1
 89 985 l 1
112 883 m 2
 131 872 l 2
 138 867 146 862 152 855 c 0
 156 850 158 842 158 835 c 0
 158 833 158 830 157 828 c 0
 156 821 149 813 141 813 c 0
 138 813 136 814 135 815 c 0
 128 818 110 848 110 849 c 0
 106 855 102 859 98 863 c 0
 90 871 83 878 83 897 c 2
 83 988 l 2
 83 990 84 991 86 991 c 2
 104 991 l 2
 106 991 107 990 107 988 c 2
 107 901 l 2
 107 894 109 886 112 883 c 2
51 985 m 1
 51 884 l 2
 51 866 61 848 71 832 c 2
 73 829 l 1
 77 824 l 2
 77 823 78 822 78 821 c 0
 81 817 84 812 88 810 c 0
 88 809 91 809 91 809 c 2
 96 809 100 814 101 819 c 0
 102 821 102 824 102 826 c 0
 102 832 100 837 97 841 c 0
 86 855 72 868 70 870 c 0
 67 873 64 881 64 888 c 2
 64 985 l 1
 51 985 l 1
70 988 m 2
 70 888 l 2
 70 881 73 875 74 875 c 0
 76 873 90 859 102 844 c 0
 106 840 108 832 108 825 c 0
 108 823 108 820 107 818 c 0
 105 810 99 803 91 803 c 0x004000080000000000000040
 88 803 86 804 85 804 c 0
 79 807 76 813 73 818 c 0
 71 820 69 824 68 826 c 0
 58 844 45 863 45 884 c 2x000000402000000000040040
 45 988 l 2x000000080000000000040040
 45 990 47 991 48 991 c 2
 67 991 l 2
 69 991 70 990 70 988 c 2
51 701 m 2
 56 719 l 2
 59 727 61 736 63 743 c 0
 64 745 64 748 64 750 c 0x000000402000000000040040
 64 760 58 769 46 771 c 0
 36 771 29 759 26 738 c 0
 26 735 25 732 25 729 c 0
 25 700 39 651 49 634 c 0
 50 630 52 629 52 629 c 2
 53 630 53 632 53 634 c 0
 53 637 52 646 49 663 c 0
 48 668 48 672 48 676 c 0
 48 684 49 690 50 695 c 0
 51 697 51 699 51 701 c 2
69 742 m 2
 62 717 l 2x00000100004020000080
 60 710 57 703 57 700 c 0
 57 698 56 696 56 694 c 0
 55 689 54 684 54 676 c 0x00000020000000000080
 54 673 54 668 55 664 c 0
 58 647 59 638 59 638 c 1
 59 634 l 2
 59 631 58 627 57 625 c 0
 56 624 54 623 52 623 c 0x0000000004000000000010
 49 623 46 626 43 631 c 0x0000000080000000000040
 33 649 19 699 19 729 c 0
 19 733 20 736 20 739 c 0x0000001000000000000040
 23 763 33 777 46 777 c 2
 51 777 l 1x0000000080000000000040
 63 773 70 762 70 749 c 0
 70 747 69 744 69 742 c 2
20 841 m 0
 14 838 11 831 11 823 c 0
 11 819 11 815 13 811 c 0
 17 801 26 795 34 795 c 0
 36 795 38 795 39 796 c 0x00004100100020000080
 45 799 48 806 48 814 c 0
 48 818 48 822 46 826 c 0
 41 835 33 842 25 842 c 0
 23 842 21 842 20 841 c 0
34 789 m 0
 23 789 13 797 8 809 c 0
 6 814 5 819 5 824 c 0
 5 834 9 843 17 846 c 0
 20 847 22 848 25 848 c 0
 35 848 46 840 51 828 c 0
 53 823 54 818 54 813 c 0
 54 803 50 794 42 790 c 0
 39 789 37 789 34 789 c 0
25 308 m 1
 25 337 l 2
 25 359 27 382 40 405 c 0
 55 430 79 446 102 446 c 0x0010000000000010
 110 446 118 444 126 440 c 2
 130 438 l 2
 137 434 144 430 151 430 c 0x00000000004020
 152 430 153 431 154 431 c 0
 159 432 162 435 163 438 c 0
 164 440 165 444 165 447 c 0
 165 450 164 453 163 456 c 0
 157 466 144 473 136 475 c 0
 130 478 122 479 113 479 c 0
 102 479 91 477 82 475 c 0
 31 460 8 405 8 357 c 2
 8 308 l 1
 25 308 l 1
127 432 m 2x0201000000000010
 123 435 l 2
 116 438 109 440 102 440 c 0
 81 440 59 425 45 402 c 0
 32 379 31 357 31 337 c 2
 31 305 l 2x00000000001080
 31 304 30 302 28 302 c 2
 5 302 l 2x0000000000200000000010
 3 302 2 304 2 305 c 2
 2 357 l 2x0010000000100010
 2 407 26 465 80 481 c 0
 90 483 102 485 113 485 c 0
 123 485 132 484 139 481 c 0
 147 478 162 471 168 458 c 0
 170 454 171 450 171 446 c 0
 171 442 170 438 169 435 c 0
 166 430 161 426 155 425 c 0
 154 425 152 424 151 424 c 0
 142 424 134 429 127 432 c 2x0201000000000010
205 355 m 1
 205 376 l 1
 162 376 l 2
 161 376 160 377 160 378 c 0
 153 402 132 418 107 418 c 0
 78 418 53 394 53 364 c 0
 53 334 78 310 107 310 c 0
 132 310 154 328 160 352 c 0
 160 354 162 355 163 355 c 2
 205 355 l 1
208 349 m 2x0010000000100010
 165 349 l 1x00000020000000000080
 158 323 134 304 107 304 c 0
 74 304 47 331 47 364 c 0x00000000100000000080
 47 397 74 424 107 424 c 0
 134 424 157 407 165 382 c 1
 208 382 l 2
 210 382 211 381 211 379 c 2
 211 352 l 2x00000001000000000080
 211 350 210 349 208 349 c 2x0010000000100010
46 212 m 1x02004001000000100080
 62 212 l 1
 73 232 113 246 129 246 c 2
 137 246 l 2
 140 246 145 245 150 245 c 0
 172 245 181 252 181 268 c 0
 181 278 164 285 140 285 c 2
 131 285 l 2
 116 284 99 278 85 270 c 0
 70 261 59 249 53 235 c 0
 49 227 48 219 46 212 c 1x02004001000000100080
136 240 m 2
 130 240 l 2
 108 240 77 226 67 207 c 0
 66 206 65 206 64 206 c 2
 43 206 l 2
 41 206 40 208 40 209 c 0
 41 218 43 228 47 238 c 0
 63 271 100 288 131 291 c 2
 140 291 l 2
 163 291 187 284 187 268 c 0
 187 239 159 239 150 239 c 0
 145 239 140 240 136 240 c 2
175 186 m 2
 184 186 l 2
 203 186 211 192 211 208 c 0
 211 220 194 225 177 225 c 2
 169 225 l 1
 133 221 105 205 95 181 c 0
 92 175 91 166 90 157 c 2
 89 153 l 2
 91 152 92 152 94 152 c 0x420000000000101008
 96 152 98 152 100 153 c 2
 104 153 l 1
 113 173 124 187 168 187 c 0x0010000000000000000010
 170 187 172 187 175 186 c 2
168 231 m 2
 177 231 l 2
 201 231 217 222 217 208 c 0
 217 180 192 180 184 180 c 2
 175 180 l 2x4100000000001000200080
 172 181 170 181 168 181 c 0x410000000000000008
 126 181 117 168 108 148 c 0
 108 147 107 146 106 146 c 0
 104 146 102 147 100 147 c 0
 98 147 96 146 94 146 c 0x4000000000000000000080
 91 146 88 147 86 147 c 0
 85 147 83 149 83 150 c 0
 83 152 84 156 84 159 c 0
 85 168 86 177 89 184 c 0
 96 198 107 209 122 218 c 0
 135 225 151 229 168 231 c 2
421 13 m 1
 434 13 l 1
 434 23 433 58 432 65 c 0
 432 71 429 73 417 80 c 0
 405 87 386 103 384 116 c 1
 340 138 l 2
 339 136 334 131 330 120 c 0
 328 116 328 113 328 110 c 0
 328 107 328 104 330 102 c 0
 335 92 353 88 368 85 c 0
 372 85 376 84 380 83 c 0
 401 77 421 57 421 48 c 2
 421 13 l 1
378 77 m 2
 367 80 l 2
 366 80 365 81 364 81 c 0
 348 84 331 88 324 99 c 0
 322 102 322 105 322 109 c 0
 322 113 322 117 324 122 c 0x0100000000000000000080
 331 140 338 143 339 144 c 0
 340 144 341 144 388 121 c 0
 389 121 398 103 401 101 c 0
 409 93 418 87 420 85 c 0
 429 85 438 73 438 65 c 0x40000000000000002008
 439 57 440 15 440 10 c 0
 440 8 439 7 437 7 c 2
 418 7 l 2
 417 7 415 8 415 10 c 2
 415 48 l 2
 415 52 399 72 378 77 c 2
428 509 m 0x050000000000000000080008
 433 508 436 507 437 505 c 0
 439 503 439 500 439 497 c 0
 439 494 439 491 438 488 c 0
 438 487 440 468 448 465 c 0
 450 464 453 463 457 463 c 0
 459 463 461 464 463 464 c 0
 468 465 478 469 481 477 c 0
 482 479 482 482 482 484 c 0
 482 491 478 499 474 504 c 0
 468 512 458 517 443 520 c 0
 439 521 436 521 432 521 c 0
 424 521 417 519 409 515 c 0
 395 507 386 499 382 491 c 0
 382 490 384 487 385 487 c 0
 388 487 391 488 393 490 c 0
 394 490 395 491 395 492 c 0
 404 498 416 509 428 509 c 0x050000000000000000080008
433 488 m 2
 433 495 l 2
 433 497 433 500 432 501 c 0
 432 503 429 503 428 503 c 0
 419 503 407 493 399 487 c 0
 399 483 387 481 385 481 c 0
 381 481 378 482 377 484 c 0x100400000000022000100010
 376 485 375 486 375 488 c 0
 375 489 376 491 377 493 c 0
 381 503 391 512 406 520 c 0
 415 525 423 527 432 527 c 0
 436 527 440 527 444 526 c 0
 455 523 469 519 479 508 c 0
 484 501 488 492 488 483 c 0
 488 480 488 477 487 474 c 0
 483 464 471 460 464 458 c 0
 462 458 459 457 457 457 c 0
 452 457 448 458 445 460 c 0
 436 464 432 472 432 482 c 0
 432 486 432 487 433 488 c 2
389 138 m 1
 407 169 l 1
 395 175 386 179 378 179 c 0
 364 179 359 169 354 159 c 2
 352 156 l 1
 389 138 l 1
414 169 m 2
 390 131 l 1
 375 136 361 145 347 152 c 1
 347 152 345 155 345 156 c 0
 352 170 359 185 378 185 c 0
 387 185 399 181 413 173 c 0
 413 172 414 171 414 169 c 2
490 81 m 2
 490 99 l 2
 489 110 483 118 477 125 c 0
 470 133 460 139 451 145 c 2
 446 149 l 2
 440 153 434 156 427 159 c 1
 410 130 l 1
 422 126 459 112 470 98 c 0
 476 90 479 64 479 12 c 1
 489 12 l 1
 489 70 l 2
 489 74 490 77 490 81 c 2
403 130 m 2
 423 165 l 2
 424 165 425 166 426 166 c 0
 434 166 444 157 449 154 c 0
 451 152 453 151 455 150 c 0
 464 144 474 137 481 129 c 0
 488 121 495 112 496 99 c 2
 496 81 l 2
 496 77 495 74 495 70 c 2
 495 9 l 2
 495 8 494 6 492 6 c 2
 476 6 l 2
 474 6 473 8 473 9 c 0
 473 60 470 88 466 94 c 0
 454 109 405 125 405 125 c 2
 404 126 403 129 403 130 c 2
559 187 m 0
 564 187 566 190 566 193 c 0
 566 195 563 201 560 202 c 0
 520 212 458 228 451 228 c 0
 440 228 434 218 433 215 c 0
 432 214 432 211 432 209 c 0
 432 203 435 195 449 187 c 0
 457 183 465 181 473 181 c 0
 476 181 487 182 492 183 c 0
 495 183 497 184 500 184 c 0
 518 187 548 187 559 187 c 0
561 207 m 0
 570 204 572 199 572 194 c 0
 571 186 566 181 559 181 c 0
 548 181 519 181 501 178 c 0
 498 178 496 177 493 177 c 0
 487 176 480 175 473 175 c 0
 462 175 454 178 446 182 c 0
 430 191 426 201 426 209 c 0
 426 213 427 216 428 218 c 0
 430 222 437 234 451 234 c 0
 461 234 551 210 561 207 c 0
566 251 m 0
 569 251 571 253 571 255 c 0
 571 257 569 259 566 260 c 0
 534 269 484 281 478 281 c 0
 473 281 469 278 466 272 c 0
 465 271 464 269 464 267 c 0
 464 266 465 265 465 263 c 0
 466 259 470 254 477 251 c 0
 484 248 490 246 497 246 c 0
 499 246 508 247 512 248 c 0
 514 248 516 248 518 249 c 0
 532 251 556 251 566 251 c 0
567 266 m 0x10000000000800001001
 575 264 577 258 577 254 c 0
 576 249 571 245 566 245 c 0
 557 245 533 245 519 243 c 0
 517 243 515 242 513 242 c 0
 507 241 502 240 497 240 c 0
 488 240 481 243 474 246 c 0x08000000000800200001
 464 251 460 257 459 262 c 0
 458 263 458 265 458 266 c 0
 458 270 460 274 460 275 c 0
 465 283 471 287 478 287 c 0
 487 287 559 268 567 266 c 0x10000000000800001001
523 319 m 0
 537 319 549 330 549 344 c 0
 549 358 537 370 523 370 c 0
 509 370 498 358 498 344 c 0
 498 330 509 319 523 319 c 0
523 376 m 0
 540 376 555 362 555 344 c 0
 555 327 540 313 523 313 c 0
 506 313 492 327 492 344 c 0
 492 362 506 376 523 376 c 0
601 332 m 1x008000000000008042
 601 354 l 1
 565 354 l 2
 563 354 562 355 562 356 c 0
 557 373 541 384 524 384 c 0
 502 384 484 366 484 344 c 0
 484 322 502 304 524 304 c 0
 540 304 555 314 561 330 c 0
 562 331 563 332 564 332 c 2
 601 332 l 1x008000000000008042
567 360 m 1
 604 360 l 2
 606 360 607 358 607 357 c 2
 607 329 l 2
 607 327 606 326 604 326 c 2
 566 326 l 1x000000000100000000000a
 559 309 542 298 524 298 c 0
 499 298 478 319 478 344 c 0
 478 369 499 390 524 390 c 0
 543 390 560 378 567 360 c 1
503 437 m 0
 503 423 514 412 528 412 c 0
 542 412 554 423 554 437 c 0
 554 451 542 463 528 463 c 0
 514 463 503 451 503 437 c 0
560 437 m 0
 560 420 546 406 528 406 c 0
 511 406 497 420 497 437 c 0
 497 455 511 469 528 469 c 0
 546 469 560 455 560 437 c 0
EndSplineSet
EndChar

StartChar: uniED31
Encoding: 60721 60721 223
Width: 0
Flags: MW
HStem: -2 1008<306 307.5>
VStem: -3 635<543.5 545>
LayerCount: 2
Fore
SplineSet
310 547 m 1
 629 547 l 2
 630 547 632 546 632 544 c 0
 632 543 630 541 629 541 c 2
 310 541 l 1
 310 1 l 2
 310 -1 308 -2 307 -2 c 0
 305 -2 304 -1 304 1 c 2
 304 541 l 1
 0 541 l 2
 -2 541 -3 543 -3 544 c 0
 -3 546 -2 547 0 547 c 2
 304 547 l 1
 304 1003 l 2
 304 1004 305 1006 307 1006 c 0
 308 1006 310 1004 310 1003 c 2
 310 547 l 1
EndSplineSet
EndChar

StartChar: uniED32
Encoding: 60722 60722 224
Width: 0
Flags: MW
HStem: 959 23<372.5 454 377 400>
VStem: 363 105<967 973>
LayerCount: 2
Fore
SplineSet
454 982 m 2
 457 982 468 982 468 968 c 0
 468 954 449 947 438 947 c 0
 420 947 410 959 400 959 c 2
 377 959 l 2
 368 959 363 964 363 970 c 0
 363 976 368 982 377 982 c 2
 454 982 l 2
EndSplineSet
EndChar

StartChar: uniED33
Encoding: 60723 60723 225
Width: 0
Flags: MW
HStem: 872 56<425.5 441>
VStem: 405 57<892 908>
LayerCount: 2
Fore
SplineSet
462 900 m 0
 462 884 449 872 433 872 c 0
 418 872 405 884 405 900 c 0
 405 916 418 928 433 928 c 0
 449 928 462 916 462 900 c 0
EndSplineSet
EndChar

StartChar: uniED34
Encoding: 60724 60724 226
Width: 0
Flags: MW
HStem: 824 32<444 465>
VStem: 385 90<831.5 845>
LayerCount: 2
Fore
SplineSet
391 840 m 2
 391 840 455 856 462 856 c 0
 468 856 474 852 475 845 c 0
 475 835 469 831 464 828 c 0
 457 825 452 824 447 824 c 0
 441 824 436 825 430 826 c 0
 418 827 399 827 392 827 c 0
 388 827 385 830 385 833 c 0
 385 836 387 839 391 840 c 2
EndSplineSet
EndChar

StartChar: uniED35
Encoding: 60725 60725 227
Width: 0
Flags: MW
HStem: 750 57<425.5 441>
VStem: 405 57<771 786.5>
LayerCount: 2
Fore
SplineSet
462 779 m 0
 462 763 449 750 433 750 c 0
 418 750 405 763 405 779 c 0
 405 794 418 807 433 807 c 0
 449 807 462 794 462 779 c 0
EndSplineSet
EndChar

StartChar: uniED36
Encoding: 60726 60726 228
Width: 0
Flags: MW
HStem: 642 15<418.5 434 418.5 437.5> 672 28<346 385 346 386> 713 15<418.5 434>
VStem: 346 52<677 692.5 677 700 677 700> 455 13<677 692.5>
LayerCount: 2
Fore
SplineSet
455 685 m 0
 455 700 442 713 426 713 c 0
 411 713 398 700 398 685 c 0
 398 669 411 657 426 657 c 0
 442 657 455 669 455 685 c 0
385 672 m 1
 346 672 l 1
 346 700 l 1
 386 700 l 1
 392 716 408 728 426 728 c 0
 449 728 468 709 468 685 c 0
 468 661 449 642 426 642 c 0
 407 642 390 655 385 672 c 1
EndSplineSet
EndChar

StartChar: uniED37
Encoding: 60727 60727 229
Width: 0
Flags: MW
HStem: 656 59<418.5 435>
VStem: 397 59<677 693.5>
LayerCount: 2
Fore
SplineSet
456 685 m 0
 456 669 443 656 427 656 c 0
 410 656 397 669 397 685 c 0
 397 702 410 715 427 715 c 0
 443 715 456 702 456 685 c 0
EndSplineSet
EndChar

StartChar: uniED38
Encoding: 60728 60728 230
Width: 0
Flags: MW
HStem: 653 19<563 570>
VStem: 475 95<628.5 653>
LayerCount: 2
Fore
SplineSet
570 653 m 1
 570 653 564 652 556 649 c 0
 550 647 543 642 543 632 c 0
 543 630 543 627 544 625 c 2
 484 606 l 1
 481 614 475 624 475 633 c 0
 475 635 475 637 476 639 c 0
 480 647 487 654 495 657 c 0
 507 662 519 664 531 667 c 0
 532 667 534 668 535 668 c 0
 544 670 554 672 563 672 c 2
 568 672 l 1
 570 653 l 1
EndSplineSet
EndChar

StartChar: uniED39
Encoding: 60729 60729 231
Width: 0
Flags: MW
HStem: 559 55<516 548>
VStem: 489 106<589 595>
LayerCount: 2
Fore
SplineSet
586 606 m 1
 595 589 l 1
 587 583 576 579 566 574 c 0
 554 568 541 563 527 560 c 0
 524 559 522 559 519 559 c 0
 513 559 507 561 502 564 c 0
 492 570 491 584 489 595 c 1
 548 614 l 1
 552 604 559 601 566 601 c 0
 568 601 571 601 573 602 c 0
 581 604 586 606 586 606 c 1
EndSplineSet
EndChar

StartChar: uniED3A
Encoding: 60730 60730 232
Width: 0
Flags: MW
HStem: 503 18<422.5 434>
VStem: 437 48<479.5 496.5>
LayerCount: 2
Fore
SplineSet
447 460 m 0
 440 463 436 469 436 477 c 2
 436 482 l 2
 436 485 437 490 437 494 c 0
 437 499 436 502 428 503 c 0
 417 503 404 492 396 485 c 0
 393 483 388 482 385 482 c 0
 381 482 379 483 379 486 c 0
 379 487 379 488 380 489 c 0
 385 500 398 509 408 515 c 0
 416 519 424 521 432 521 c 0
 436 521 440 521 444 520 c 0
 456 518 469 513 477 503 c 0
 481 498 485 489 485 481 c 0
 485 478 485 475 484 473 c 0
 481 465 472 461 464 459 c 0
 462 459 459 458 457 458 c 0
 454 458 450 459 447 460 c 0
EndSplineSet
EndChar

StartChar: uniED3B
Encoding: 60731 60731 233
Width: 0
Flags: MW
HStem: 407 56<520.5 536>
VStem: 500 57<427 443>
LayerCount: 2
Fore
SplineSet
557 435 m 0
 557 419 544 407 528 407 c 0
 513 407 500 419 500 435 c 0
 500 451 513 463 528 463 c 0
 544 463 557 451 557 435 c 0
EndSplineSet
EndChar

StartChar: uniED3C
Encoding: 60732 60732 234
Width: 0
Flags: MW
HStem: 300 14<515.5 531 515.5 533> 327 28<565 604 565 604 564 604> 371 14<515.5 531>
VStem: 481 14<334.5 350 334.5 354> 552 52<334.5 350>
LayerCount: 2
Fore
SplineSet
495 342 m 0
 495 327 508 314 523 314 c 0
 539 314 552 327 552 342 c 0
 552 358 539 371 523 371 c 0
 508 371 495 358 495 342 c 0
565 355 m 1
 604 355 l 1
 604 327 l 1
 564 327 l 1
 558 311 542 300 524 300 c 0
 500 300 481 319 481 342 c 0
 481 366 500 385 524 385 c 0
 543 385 559 372 565 355 c 1
EndSplineSet
EndChar

StartChar: uniED3D
Encoding: 60733 60733 235
Width: 0
Flags: MW
HStem: 312 60<515 531.5>
VStem: 494 59<333.5 350>
LayerCount: 2
Fore
SplineSet
553 342 m 0
 553 325 540 312 523 312 c 0
 507 312 494 325 494 342 c 0
 494 358 507 372 523 372 c 0
 540 372 553 358 553 342 c 0
EndSplineSet
EndChar

StartChar: uniED3E
Encoding: 60734 60734 236
Width: 0
Flags: MW
HStem: 242 40<475 501.5>
VStem: 462 112<253 267.5> 567 7<253 262>
LayerCount: 2
Fore
SplineSet
567 262 m 2xa0
 572 261 574 258 574 255 c 0
 574 251 571 247 565 247 c 0
 556 247 533 247 518 244 c 0
 511 243 505 242 498 242 c 0
 491 242 484 243 476 247 c 0
 465 253 462 261 462 266 c 0
 462 269 462 270 463 272 c 0
 466 277 471 282 479 282 c 0
 487 282 567 262 567 262 c 2xa0
EndSplineSet
EndChar

StartChar: uniED3F
Encoding: 60735 60735 237
Width: 0
Flags: MW
HStem: 177 53<446 478.5>
VStem: 560 9<190.5 203>
LayerCount: 2
Fore
SplineSet
560 203 m 2
 566 201 569 197 569 193 c 0
 569 188 565 183 559 183 c 0
 548 183 518 183 500 180 c 0
 498 180 497 179 495 179 c 0
 488 178 482 177 475 177 c 0
 467 177 458 178 448 184 c 0
 433 192 429 201 429 208 c 0
 429 211 430 214 431 216 c 0
 434 222 441 230 451 230 c 0
 461 230 560 203 560 203 c 2
EndSplineSet
EndChar

StartChar: uniED40
Encoding: 60736 60736 238
Width: 0
Flags: MW
HStem: 133 48<373 390>
VStem: 349 63<154 169>
LayerCount: 2
Fore
SplineSet
412 169 m 1
 390 133 l 1
 349 154 l 1
 349 167 367 181 379 181 c 0
 387 181 398 177 412 169 c 1
EndSplineSet
EndChar

StartChar: uniED41
Encoding: 60737 60737 239
Width: 0
Flags: MW
HStem: 9 153<426 476 426 493>
VStem: 476 17<9 18>
LayerCount: 2
Fore
SplineSet
476 9 m 1
 476 27 476 85 468 95 c 0
 456 111 406 127 406 127 c 1
 426 162 l 1
 434 159 441 155 448 150 c 0
 459 143 470 136 479 126 c 0
 487 118 493 110 493 98 c 2
 493 9 l 1
 476 9 l 1
EndSplineSet
EndChar

StartChar: uniED42
Encoding: 60738 60738 240
Width: 0
Flags: MW
HStem: 9 131<341 437 341 419>
VStem: 419 17<9 64 47 64>
LayerCount: 2
Fore
SplineSet
437 9 m 1
 419 9 l 1
 419 47 l 2
 419 54 400 74 380 79 c 0
 362 84 326 85 326 109 c 0
 326 112 326 117 328 121 c 0
 335 137 341 140 341 140 c 1
 387 118 l 1
 388 105 408 89 419 82 c 0
 431 75 435 72 436 64 c 0
 436 56 437 9 437 9 c 1
EndSplineSet
EndChar

StartChar: uniED43
Encoding: 60739 60739 241
Width: 0
Flags: MW
HStem: 851 132<189 190.5>
VStem: 189 17<907 983>
LayerCount: 2
Fore
SplineSet
189 983 m 1
 206 983 l 1
 206 885 l 1
 206 874 l 2
 206 870 206 866 205 863 c 0
 203 858 195 851 186 851 c 0
 184 851 182 851 180 852 c 0
 174 854 172 860 172 865 c 0
 172 871 175 877 178 880 c 0
 185 886 189 896 189 907 c 2
 189 983 l 1
EndSplineSet
EndChar

StartChar: uniED44
Encoding: 60740 60740 242
Width: 0
Flags: MW
HStem: 805 178<205 246>
VStem: 227 19<859 872.5>
LayerCount: 2
Fore
SplineSet
226 983 m 1
 246 983 l 1
 246 845 l 2
 246 826 228 806 208 805 c 0
 202 805 194 807 190 812 c 0
 188 814 188 816 188 819 c 0
 188 826 192 833 197 836 c 0
 202 839 219 847 221 849 c 0
 223 851 227 852 227 866 c 0
 227 879 226 983 226 983 c 1
EndSplineSet
EndChar

StartChar: uniED45
Encoding: 60741 60741 243
Width: 0
Flags: MW
HStem: 745 45<205 220>
VStem: 273 19<806 983>
LayerCount: 2
Fore
SplineSet
273 983 m 1
 292 983 l 1
 292 777 l 2
 292 771 291 765 279 760 c 0
 267 755 252 753 239 750 c 0
 229 748 218 745 208 745 c 0
 202 745 196 746 191 749 c 0
 184 753 180 760 180 768 c 0
 180 773 181 777 185 781 c 0
 191 787 205 790 216 790 c 2
 220 790 l 2
 228 790 263 790 266 792 c 0
 267 792 273 801 273 806 c 2
 273 983 l 1
EndSplineSet
EndChar

StartChar: uniED46
Encoding: 60742 60742 244
Width: 0
Flags: MW
HStem: 576 153<197 218 197 237>
VStem: 218 19<576 668 668 675>
LayerCount: 2
Fore
SplineSet
218 576 m 1
 218 668 l 2
 218 682 215 683 213 685 c 0
 211 687 193 695 189 698 c 0
 184 701 179 708 179 715 c 0
 179 718 180 720 182 722 c 0
 186 727 194 729 200 729 c 0
 220 728 237 708 237 689 c 2
 237 576 l 1
 218 576 l 1
EndSplineSet
EndChar

StartChar: uniED47
Encoding: 60743 60743 245
Width: 0
Flags: MW
HStem: 637 44<170.5 185>
VStem: 151 53<653 665>
LayerCount: 2
Fore
SplineSet
204 659 m 0
 204 647 192 637 178 637 c 0
 163 637 151 647 151 659 c 0
 151 671 163 681 178 681 c 0
 192 681 204 671 204 659 c 0
EndSplineSet
EndChar

StartChar: uniED48
Encoding: 60744 60744 246
Width: 0
Flags: MW
HStem: 812 171<88 145.5>
VStem: 88 18<893.5 896 896 983>
LayerCount: 2
Fore
SplineSet
141 812 m 0
 140 812 139 813 138 813 c 0
 133 816 117 842 114 847 c 0
 103 865 88 866 88 893 c 2
 88 983 l 1
 106 983 l 1
 106 896 l 2
 106 891 107 881 112 877 c 0
 118 872 125 869 131 865 c 0
 138 861 146 856 151 849 c 0
 155 845 157 837 157 831 c 0
 157 829 157 827 156 825 c 0
 155 818 150 812 141 812 c 0
EndSplineSet
EndChar

StartChar: uniED49
Encoding: 60745 60745 247
Width: 0
Flags: MW
HStem: 802 181<51 95>
VStem: 51 18<880.5 884 884 983> 75 32<819.5 824>
LayerCount: 2
Fore
SplineSet
91 802 m 0
 90 802 89 803 88 803 c 0
 83 806 80 812 77 817 c 2
 77 817 75 819 75 820 c 0
 64 838 51 859 51 880 c 2
 51 983 l 1
 69 983 l 1
 69 884 l 2
 69 877 72 870 74 868 c 0
 76 866 90 853 101 839 c 0
 105 834 107 827 107 821 c 0
 107 819 107 817 106 815 c 0
 105 808 99 802 91 802 c 0
EndSplineSet
EndChar

StartChar: uniED4A
Encoding: 60746 60746 248
Width: 0
Flags: MW
HStem: 788 53<26 38>
VStem: 10 44<805.5 824.5>
LayerCount: 2
Fore
SplineSet
51 823 m 0
 53 819 54 814 54 810 c 0
 54 801 50 792 43 789 c 0
 41 788 39 788 37 788 c 0
 28 788 18 795 13 806 c 0
 11 811 10 815 10 820 c 0
 10 829 14 837 21 840 c 0
 23 841 25 841 27 841 c 0
 36 841 46 834 51 823 c 0
EndSplineSet
EndChar

StartChar: uniED4B
Encoding: 60747 60747 249
Width: 0
Flags: MW
HStem: 623 148<43 56.5>
VStem: 24 29
LayerCount: 2
Fore
SplineSet
48 629 m 0
 38 647 24 697 24 726 c 0
 24 729 25 732 25 735 c 0
 29 758 38 771 48 771 c 0
 49 771 51 770 52 770 c 0
 63 767 69 757 69 746 c 0
 69 744 69 741 68 739 c 0
 65 725 57 704 56 697 c 0
 55 692 53 684 53 673 c 0
 53 669 53 665 54 661 c 0
 57 643 58 635 58 635 c 2
 58 634 59 632 59 631 c 0
 59 627 58 623 55 623 c 0
 53 623 51 625 48 629 c 0
EndSplineSet
EndChar

StartChar: uniED4C
Encoding: 60748 60748 250
Width: 0
Flags: MW
HStem: 440 40<92 119.5>
VStem: 7 23<304 335>
LayerCount: 2
Fore
SplineSet
30 304 m 1
 7 304 l 1
 7 355 l 2
 7 405 31 461 83 475 c 0
 92 478 104 480 115 480 c 0
 124 480 132 479 139 476 c 0
 150 472 162 465 167 455 c 0
 169 451 170 447 170 443 c 0
 170 435 165 427 156 426 c 2
 152 426 l 2
 144 426 135 430 128 434 c 0
 121 434 112 440 104 440 c 0
 80 440 57 423 45 402 c 0
 32 379 30 356 30 335 c 2
 30 304 l 1
EndSplineSet
EndChar

StartChar: uniED4D
Encoding: 60749 60749 251
Width: 0
Flags: MW
HStem: 350 27<165 210 165 165>
VStem: 53 157<350 377 350 378>
LayerCount: 2
Fore
SplineSet
164 377 m 1
 210 377 l 1
 210 350 l 1
 165 350 l 1
 159 325 136 305 109 305 c 0
 78 305 53 331 53 362 c 0
 53 394 78 419 109 419 c 0
 135 419 157 401 164 377 c 1
EndSplineSet
EndChar

StartChar: uniED4E
Encoding: 60750 60750 252
Width: 0
Flags: MW
HStem: 242 45<124 155 142 152>
VStem: 45 141<208 272.5>
LayerCount: 2
Fore
SplineSet
52 208 m 1
 45 208 l 1
 47 217 48 226 52 235 c 0
 66 265 101 284 133 286 c 0
 137 286 140 287 144 287 c 0
 166 287 186 279 186 266 c 0
 186 245 168 242 152 242 c 2
 132 242 l 2
 116 242 76 228 66 208 c 1
 52 208 l 1
EndSplineSet
EndChar

StartChar: uniED4F
Encoding: 60751 60751 253
Width: 0
Flags: MW
HStem: 183 44<147 190.5>
VStem: 88 127<149 213.5>
LayerCount: 2
Fore
SplineSet
94 149 m 1
 88 149 l 1
 89 158 90 173 94 181 c 0
 107 211 140 224 170 226 c 0
 174 226 178 227 181 227 c 0
 200 227 215 220 215 207 c 0
 215 186 200 182 186 182 c 0
 180 182 174 183 169 183 c 0
 125 183 117 168 107 149 c 1
 94 149 l 1
EndSplineSet
EndChar

StartChar: uniED50
Encoding: 60752 60752 254
Width: 0
Flags: MW
HStem: 900 28<425.5 441 425.5 462 405 441>
VStem: 405 57<900 908>
LayerCount: 2
Fore
SplineSet
462 900 m 1
 405 900 l 1
 405 916 418 928 433 928 c 0
 449 928 462 916 462 900 c 1
EndSplineSet
EndChar

StartChar: uniED51
Encoding: 60753 60753 255
Width: 0
Flags: MW
HStem: 779 28<425.5 441 425.5 462 405 441>
VStem: 405 57<779 786.5>
LayerCount: 2
Fore
SplineSet
462 779 m 1
 405 779 l 1
 405 794 418 807 433 807 c 0
 449 807 462 794 462 779 c 1
EndSplineSet
EndChar

StartChar: uniED52
Encoding: 60754 60754 256
Width: 0
Flags: MW
HStem: 685 30<418.5 435 418.5 456 397 435>
VStem: 397 59<685 693.5>
LayerCount: 2
Fore
SplineSet
456 685 m 1
 397 685 l 1
 397 702 410 715 427 715 c 0
 443 715 456 702 456 685 c 1
EndSplineSet
EndChar

StartChar: uniED53
Encoding: 60755 60755 257
Width: 0
Flags: MW
HStem: 435 28<520.5 536 520.5 557 500 536>
VStem: 500 57<435 443>
LayerCount: 2
Fore
SplineSet
557 435 m 1
 500 435 l 1
 500 451 513 463 528 463 c 0
 544 463 557 451 557 435 c 1
EndSplineSet
EndChar

StartChar: uniED54
Encoding: 60756 60756 258
Width: 0
Flags: MW
HStem: 342 30<515 531.5 515 553 494 531.5>
VStem: 494 59<342 350>
LayerCount: 2
Fore
SplineSet
553 342 m 1
 494 342 l 1
 494 358 507 372 523 372 c 0
 540 372 553 358 553 342 c 1
EndSplineSet
EndChar

StartChar: uniED55
Encoding: 60757 60757 259
Width: 0
Flags: MW
HStem: 914 14<428 438.5 428 458>
VStem: 409 49<914 914>
LayerCount: 2
Fore
SplineSet
458 914 m 1
 409 914 l 1
 413 922 423 928 433 928 c 0
 444 928 453 922 458 914 c 1
EndSplineSet
EndChar

StartChar: uniED56
Encoding: 60758 60758 260
Width: 0
Flags: MW
HStem: 792 15<428 438.5 428 458>
VStem: 408 50<792 792>
LayerCount: 2
Fore
SplineSet
458 792 m 1
 408 792 l 1
 413 801 423 807 433 807 c 0
 444 807 453 801 458 792 c 1
EndSplineSet
EndChar

StartChar: uniED57
Encoding: 60759 60759 261
Width: 0
Flags: MW
HStem: 701 14<421.5 432 421.5 451>
VStem: 402 49<701 701>
LayerCount: 2
Fore
SplineSet
451 701 m 1
 402 701 l 1
 407 709 416 715 427 715 c 0
 437 715 447 709 451 701 c 1
EndSplineSet
EndChar

StartChar: uniED58
Encoding: 60760 60760 262
Width: 0
Flags: MW
HStem: 449 14<523 533.5 523 553>
VStem: 504 49<449 449>
LayerCount: 2
Fore
SplineSet
553 449 m 1
 504 449 l 1
 509 457 518 463 528 463 c 0
 539 463 548 457 553 449 c 1
EndSplineSet
EndChar

StartChar: uniED59
Encoding: 60761 60761 263
Width: 0
Flags: MW
HStem: 357 15<517.5 528 517.5 547>
VStem: 498 49<357 357>
LayerCount: 2
Fore
SplineSet
547 357 m 1
 498 357 l 1
 503 366 512 372 523 372 c 0
 533 372 543 366 547 357 c 1
EndSplineSet
EndChar

StartChar: uniED5A
Encoding: 60762 60762 264
Width: 0
Flags: MW
HStem: 887 42<425.5 441 425.5 458 409 441>
VStem: 405 57<898.5 908.5>
LayerCount: 2
Fore
SplineSet
458 887 m 1
 409 887 l 1
 407 891 405 896 405 901 c 0
 405 916 418 929 433 929 c 0
 449 929 462 916 462 901 c 0
 462 896 460 891 458 887 c 1
EndSplineSet
EndChar

StartChar: uniED5B
Encoding: 60763 60763 265
Width: 0
Flags: MW
HStem: 764 43<426 441.5 426 458 409 441.5>
VStem: 405 57<776 786.5>
LayerCount: 2
Fore
SplineSet
458 764 m 1
 409 764 l 1
 407 769 405 773 405 779 c 0
 405 794 418 807 434 807 c 0
 449 807 462 794 462 779 c 0
 462 773 460 769 458 764 c 1
EndSplineSet
EndChar

StartChar: uniED5C
Encoding: 60764 60764 266
Width: 0
Flags: MW
HStem: 673 42<420 435.5 420 452 403 435.5>
VStem: 399 57<684.5 695>
LayerCount: 2
Fore
SplineSet
452 673 m 1
 403 673 l 1
 401 677 399 682 399 687 c 0
 399 703 412 715 428 715 c 0
 443 715 456 703 456 687 c 0
 456 682 454 677 452 673 c 1
EndSplineSet
EndChar

StartChar: uniED5D
Encoding: 60765 60765 267
Width: 0
Flags: MW
HStem: 421 42<521 536.5 521 553 504 536.5>
VStem: 500 57<432.5 443>
LayerCount: 2
Fore
SplineSet
553 421 m 1
 504 421 l 1
 502 425 500 430 500 435 c 0
 500 451 513 463 529 463 c 0
 544 463 557 451 557 435 c 0
 557 430 556 425 553 421 c 1
EndSplineSet
EndChar

StartChar: uniED5E
Encoding: 60766 60766 268
Width: 0
Flags: MW
HStem: 329 43<516 531.5 516 548 499 531.5>
VStem: 495 57<340.5 351>
LayerCount: 2
Fore
SplineSet
548 329 m 1
 499 329 l 1
 497 333 495 338 495 343 c 0
 495 359 508 372 524 372 c 0
 539 372 552 359 552 343 c 0
 552 338 550 333 548 329 c 1
EndSplineSet
EndChar

StartChar: uniED5F
Encoding: 60767 60767 269
Width: 0
Flags: MW
HStem: 940 60<397.5 448.5>
VStem: 392 61<944.5 995.5>
LayerCount: 2
Fore
SplineSet
398 940 m 0
 397 940 395 941 394 942 c 0
 393 943 392 944 392 945 c 0
 392 946 393 948 394 949 c 2
 444 999 l 2
 445 1000 446 1000 448 1000 c 0
 449 1000 451 1000 452 999 c 0
 453 998 453 996 453 995 c 0
 453 994 453 993 452 992 c 2
 401 942 l 2
 400 941 399 940 398 940 c 0
EndSplineSet
EndChar

StartChar: uniED60
Encoding: 60768 60768 270
Width: 0
Flags: MW
HStem: 854 88<392.5 471.5>
VStem: 387 89<858 937.5>
LayerCount: 2
Fore
SplineSet
393 854 m 0
 392 854 390 854 389 855 c 0
 388 856 387 857 387 859 c 0
 387 860 388 862 389 863 c 2
 468 941 l 2
 469 942 470 942 471 942 c 0
 472 942 474 942 475 941 c 0
 476 940 476 938 476 937 c 0
 476 936 476 935 475 934 c 2
 397 855 l 2
 396 854 394 854 393 854 c 0
EndSplineSet
EndChar

StartChar: uniED61
Encoding: 60769 60769 271
Width: 0
Flags: MW
HStem: 816 52<414.5 457.5>
VStem: 410 52<820.5 863.5>
LayerCount: 2
Fore
SplineSet
415 816 m 0
 414 816 413 817 412 818 c 0
 411 819 410 820 410 821 c 0
 410 822 411 824 412 825 c 2
 453 867 l 2
 454 868 455 868 457 868 c 0
 458 868 460 868 461 867 c 0
 462 866 462 864 462 863 c 0
 462 861 462 860 461 859 c 2
 419 818 l 2
 418 817 416 816 415 816 c 0
EndSplineSet
EndChar

StartChar: uniED62
Encoding: 60770 60770 272
Width: 0
Flags: MW
HStem: 732 88<392.5 471.5>
VStem: 387 89<736 815.5>
LayerCount: 2
Fore
SplineSet
393 732 m 0
 392 732 390 732 389 733 c 0
 388 734 387 735 387 737 c 0
 387 738 388 740 389 741 c 2
 468 819 l 2
 469 820 470 820 471 820 c 0
 472 820 474 820 475 819 c 0
 476 818 476 816 476 815 c 0
 476 814 476 813 475 812 c 2
 397 733 l 2
 396 732 394 732 393 732 c 0
EndSplineSet
EndChar

StartChar: uniED63
Encoding: 60771 60771 273
Width: 0
Flags: MW
HStem: 635 98<380.5 468.5>
VStem: 375 98<639.5 728.5>
LayerCount: 2
Fore
SplineSet
381 635 m 0
 380 635 378 636 377 637 c 0
 376 638 375 639 375 640 c 0
 375 641 376 643 377 644 c 2
 465 732 l 2
 466 733 467 733 468 733 c 0
 469 733 471 733 472 732 c 0
 473 731 473 729 473 728 c 0
 473 726 473 725 472 724 c 2
 385 637 l 2
 384 636 382 635 381 635 c 0
EndSplineSet
EndChar

StartChar: uniED64
Encoding: 60772 60772 274
Width: 0
Flags: MW
HStem: 592 97<470.5 558.5>
VStem: 465 98<596 684.5>
LayerCount: 2
Fore
SplineSet
471 592 m 0
 470 592 468 592 467 593 c 0
 466 594 465 595 465 597 c 0
 465 598 466 600 467 601 c 2
 555 688 l 2
 556 689 557 689 558 689 c 0
 559 689 561 689 562 688 c 0
 563 687 563 685 563 684 c 0
 563 683 563 682 562 681 c 2
 475 593 l 2
 474 592 472 592 471 592 c 0
EndSplineSet
EndChar

StartChar: uniED65
Encoding: 60773 60773 275
Width: 0
Flags: MW
HStem: 545 80
VStem: 488 96<549.5 620.5>
LayerCount: 2
Fore
SplineSet
497 546 m 2
 496 545 495 545 493 545 c 0
 492 545 490 545 489 546 c 0
 489 547 488 549 488 550 c 0
 488 552 489 553 490 554 c 2
 576 624 l 2
 577 625 578 625 579 625 c 0
 580 625 582 625 583 624 c 0
 584 623 584 621 584 620 c 0
 584 618 584 617 583 616 c 2
 497 546 l 2
EndSplineSet
EndChar

StartChar: uniED66
Encoding: 60774 60774 276
Width: 0
Flags: MW
HStem: 444 88<409 488.5>
VStem: 404 89<448 527.5>
LayerCount: 2
Fore
SplineSet
410 444 m 0
 408 444 407 444 406 445 c 0
 405 446 404 447 404 449 c 0
 404 450 405 452 406 453 c 2
 484 531 l 2
 485 532 486 532 488 532 c 0
 489 532 491 532 492 531 c 0
 493 530 493 528 493 527 c 0
 493 526 493 525 492 524 c 2
 413 445 l 2
 412 444 411 444 410 444 c 0
EndSplineSet
EndChar

StartChar: uniED67
Encoding: 60775 60775 277
Width: 0
Flags: MW
HStem: 390 88<487.5 566.5>
VStem: 482 89<394 473.5>
LayerCount: 2
Fore
SplineSet
488 390 m 0
 487 390 485 390 484 391 c 0
 483 392 482 393 482 395 c 0
 482 396 483 398 484 399 c 2
 563 477 l 2
 564 478 565 478 566 478 c 0
 567 478 569 478 570 477 c 0
 571 476 571 474 571 473 c 0
 571 472 571 471 570 470 c 2
 492 391 l 2
 491 390 489 390 488 390 c 0
EndSplineSet
EndChar

StartChar: uniED68
Encoding: 60776 60776 278
Width: 0
Flags: MW
HStem: 296 97<480.5 568.5>
VStem: 476 97<300.5 388.5>
LayerCount: 2
Fore
SplineSet
481 296 m 0
 480 296 479 297 478 298 c 0
 477 299 476 300 476 301 c 0
 476 302 477 304 478 305 c 2
 565 392 l 2
 566 393 567 393 568 393 c 0
 569 393 571 393 572 392 c 0
 573 391 573 389 573 388 c 0
 573 387 573 386 572 385 c 2
 485 298 l 2
 484 297 482 296 481 296 c 0
EndSplineSet
EndChar

StartChar: uniED69
Encoding: 60777 60777 279
Width: 0
Flags: MW
HStem: 228 56<497.5 544.5>
VStem: 493 56<232 279.5>
LayerCount: 2
Fore
SplineSet
498 228 m 0
 497 228 496 228 495 229 c 0
 494 230 493 231 493 233 c 0
 493 234 494 236 495 237 c 2
 541 283 l 2
 542 284 543 284 544 284 c 0
 545 284 547 284 548 283 c 0
 549 282 549 280 549 279 c 0
 549 278 549 277 548 276 c 2
 502 229 l 2
 501 228 500 228 498 228 c 0
EndSplineSet
EndChar

StartChar: uniED6A
Encoding: 60778 60778 280
Width: 0
Flags: MW
HStem: 158 71<460 521.5>
VStem: 455 71<162.5 224.5>
LayerCount: 2
Fore
SplineSet
461 158 m 0
 459 158 458 159 457 160 c 0
 456 161 455 162 455 163 c 0
 455 164 456 166 457 167 c 2
 518 228 l 2
 519 229 520 229 521 229 c 0
 522 229 524 229 525 228 c 0
 526 227 526 225 526 224 c 0
 526 222 526 221 525 220 c 2
 464 160 l 2
 463 159 462 158 461 158 c 0
EndSplineSet
EndChar

StartChar: uniED6B
Encoding: 60779 60779 281
Width: 0
Flags: MW
HStem: 135 56<358.5 405.5>
VStem: 354 56<139.5 186.5>
LayerCount: 2
Fore
SplineSet
359 135 m 0
 358 135 357 136 356 137 c 0
 355 138 354 139 354 140 c 0
 354 141 355 143 356 144 c 2
 402 190 l 2
 403 191 404 191 405 191 c 0
 406 191 408 191 409 190 c 0
 410 189 410 187 410 186 c 0
 410 185 410 184 409 183 c 2
 363 137 l 2
 362 136 361 135 359 135 c 0
EndSplineSet
EndChar

StartChar: uniED6C
Encoding: 60780 60780 282
Width: 0
Flags: MW
HStem: 87 56<447.5 494.5>
VStem: 443 56<91.5 138.5>
LayerCount: 2
Fore
SplineSet
448 87 m 0
 447 87 446 88 445 89 c 0
 444 90 443 91 443 92 c 0
 443 93 444 95 445 96 c 2
 491 142 l 2
 492 143 493 143 494 143 c 0
 495 143 497 143 498 142 c 0
 499 141 499 139 499 138 c 0
 499 137 499 136 498 135 c 2
 452 89 l 2
 451 88 449 87 448 87 c 0
EndSplineSet
EndChar

StartChar: uniED6D
Encoding: 60781 60781 283
Width: 0
Flags: MW
HStem: 54 56<379.5 426.5>
VStem: 374 57<58.5 105.5>
LayerCount: 2
Fore
SplineSet
380 54 m 0
 379 54 377 55 376 56 c 0
 375 57 374 58 374 59 c 0
 374 60 375 62 376 63 c 2
 422 109 l 2
 423 110 424 110 426 110 c 0
 427 110 429 110 430 109 c 0
 431 108 431 106 431 105 c 0
 431 104 431 103 430 102 c 2
 384 56 l 2
 383 55 381 54 380 54 c 0
EndSplineSet
EndChar

StartChar: uniED6E
Encoding: 60782 60782 284
Width: 0
Flags: MW
HStem: 851 46<173.5 211.5>
VStem: 169 46<855 892.5>
LayerCount: 2
Fore
SplineSet
211 851 m 0
 209 851 208 851 207 852 c 2
 171 889 l 2
 170 890 169 891 169 892 c 0
 169 893 170 895 171 896 c 0
 172 897 173 897 174 897 c 0
 175 897 177 897 178 896 c 2
 214 860 l 2
 215 859 215 857 215 856 c 0
 215 854 215 853 214 852 c 0
 213 851 212 851 211 851 c 0
EndSplineSet
EndChar

StartChar: uniED6F
Encoding: 60783 60783 285
Width: 0
Flags: MW
HStem: 800 50<196.5 237.5>
VStem: 192 50<804 845.5>
LayerCount: 2
Fore
SplineSet
237 800 m 0
 236 800 235 800 234 801 c 2
 194 841 l 2
 193 842 192 843 192 845 c 0
 192 846 193 848 194 849 c 0
 195 850 196 850 197 850 c 0
 198 850 200 850 201 849 c 2
 241 809 l 2
 242 808 242 806 242 805 c 0
 242 803 242 802 241 801 c 0
 240 800 238 800 237 800 c 0
EndSplineSet
EndChar

StartChar: uniED70
Encoding: 60784 60784 286
Width: 0
Flags: MW
HStem: 735 69<189 250.5>
VStem: 184 71<739 799.5>
LayerCount: 2
Fore
SplineSet
250 735 m 0
 249 735 248 735 247 736 c 2
 186 795 l 2
 185 796 184 797 184 799 c 0
 184 800 185 802 186 803 c 0
 187 804 188 804 190 804 c 0
 191 804 193 804 194 803 c 2
 254 744 l 2
 255 743 255 741 255 740 c 0
 255 738 255 737 254 736 c 0
 253 735 251 735 250 735 c 0
EndSplineSet
EndChar

StartChar: uniED71
Encoding: 60785 60785 287
Width: 0
Flags: MW
HStem: 678 50<197.5 238.5>
VStem: 193 49<683 723.5>
LayerCount: 2
Fore
SplineSet
198 678 m 0
 197 678 196 678 195 679 c 0
 194 680 193 682 193 684 c 0
 193 685 194 686 194 687 c 2
 233 726 l 2
 234 727 236 728 238 728 c 0
 239 728 240 728 241 727 c 0
 242 726 242 724 242 723 c 0
 242 721 242 720 241 719 c 2
 202 679 l 2
 201 678 199 678 198 678 c 0
EndSplineSet
EndChar

StartChar: uniED72
Encoding: 60786 60786 288
Width: 0
Flags: MW
HStem: 630 59<150 202.5>
VStem: 145 61<634 684.5>
LayerCount: 2
Fore
SplineSet
202 630 m 0
 200 630 199 630 198 631 c 2
 147 681 l 2
 146 682 145 683 145 684 c 0
 145 685 146 687 147 688 c 0
 148 689 149 689 151 689 c 0
 152 689 154 689 155 688 c 2
 205 639 l 2
 206 638 206 636 206 635 c 0
 206 633 206 632 205 631 c 0
 204 630 203 630 202 630 c 0
EndSplineSet
EndChar

StartChar: uniED73
Encoding: 60787 60787 289
Width: 0
Flags: MW
HStem: 814 50<117 157.5>
VStem: 112 50<818.5 859.5>
LayerCount: 2
Fore
SplineSet
118 814 m 0
 116 814 115 815 114 816 c 0
 113 817 112 818 112 819 c 0
 112 820 113 822 114 823 c 2
 154 863 l 2
 155 864 156 864 157 864 c 0
 158 864 160 864 161 863 c 0
 162 862 162 860 162 859 c 0
 162 857 162 856 161 855 c 2
 121 816 l 2
 120 815 119 814 118 814 c 0
EndSplineSet
EndChar

StartChar: uniED74
Encoding: 60788 60788 290
Width: 0
Flags: MW
HStem: 800 50<66.5 107.5>
VStem: 62 50<804 845.5>
LayerCount: 2
Fore
SplineSet
67 800 m 0
 66 800 65 800 64 801 c 0
 63 802 62 803 62 805 c 0
 62 806 63 808 64 809 c 2
 104 849 l 2
 105 850 106 850 107 850 c 0
 108 850 110 850 111 849 c 0
 112 848 112 846 112 845 c 0
 112 843 112 842 111 841 c 2
 71 801 l 2
 70 800 69 800 67 800 c 0
EndSplineSet
EndChar

StartChar: uniED75
Encoding: 60789 60789 291
Width: 0
Flags: MW
HStem: 784 60<4.5 57.5>
VStem: 0 62<788.5 840.5>
LayerCount: 2
Fore
SplineSet
5 784 m 0
 4 784 2 785 1 786 c 0
 0 787 0 788 0 789 c 0
 0 790 0 792 2 793 c 2
 53 843 l 2
 54 844 55 844 57 844 c 0
 58 844 60 844 61 843 c 0
 62 842 62 841 62 840 c 0
 62 838 61 837 60 836 c 2
 9 786 l 2
 8 785 6 784 5 784 c 0
EndSplineSet
EndChar

StartChar: uniED76
Encoding: 60790 60790 292
Width: 833
Flags: MW
HStem: 696 73<15.5 77.5>
VStem: 11 71<701 764.5>
LayerCount: 2
Fore
SplineSet
16 696 m 0
 15 696 14 696 13 697 c 0
 12 698 11 700 11 702 c 0
 11 703 11 704 12 705 c 2
 74 768 l 2
 75 769 76 769 77 769 c 0
 78 769 80 769 81 768 c 0
 82 767 82 765 82 764 c 0
 82 762 82 761 81 760 c 2
 20 697 l 2
 19 696 17 696 16 696 c 0
EndSplineSet
EndChar

StartChar: uniED77
Encoding: 60791 60791 293
Width: 0
Flags: MW
HStem: 425 62<51 104.5>
VStem: 46 63<429.5 482.5>
LayerCount: 2
Fore
SplineSet
104 425 m 0
 103 425 101 426 100 427 c 2
 48 479 l 2
 47 480 46 481 46 482 c 0
 46 483 47 485 48 486 c 0
 49 487 50 487 52 487 c 0
 53 487 55 487 56 486 c 2
 108 434 l 2
 109 433 109 431 109 430 c 0
 109 429 109 428 108 427 c 0
 107 426 105 425 104 425 c 0
EndSplineSet
EndChar

StartChar: uniED78
Encoding: 60792 60792 294
Width: 0
Flags: MW
HStem: 296 128<51.5 170.5>
VStem: 47 128<300.5 419.5>
LayerCount: 2
Fore
SplineSet
52 296 m 0
 51 296 50 297 49 298 c 0
 48 299 47 300 47 301 c 0
 47 302 48 304 49 305 c 2
 167 423 l 2
 168 424 169 424 170 424 c 0
 171 424 173 424 174 423 c 0
 175 422 175 420 175 419 c 0
 175 418 175 417 174 416 c 2
 56 298 l 2
 55 297 54 296 52 296 c 0
EndSplineSet
EndChar

StartChar: uniED79
Encoding: 60793 60793 295
Width: 0
Flags: MW
HStem: 215 88<102.5 182.5>
VStem: 98 89<219 298.5>
LayerCount: 2
Fore
SplineSet
103 215 m 0
 102 215 101 215 100 216 c 0
 99 217 98 218 98 220 c 0
 98 221 99 223 100 224 c 2
 178 302 l 2
 179 303 180 303 182 303 c 0
 183 303 185 303 186 302 c 0
 187 301 187 299 187 298 c 0
 187 297 187 296 186 295 c 2
 107 216 l 2
 106 215 105 215 103 215 c 0
EndSplineSet
EndChar

StartChar: uniED7A
Encoding: 60794 60794 296
Width: 0
Flags: MW
HStem: 156 88<128.5 207.5>
VStem: 124 88<160 239.5>
LayerCount: 2
Fore
SplineSet
129 156 m 0
 128 156 127 156 126 157 c 0
 125 158 124 159 124 161 c 0
 124 162 125 164 126 165 c 2
 204 243 l 2
 205 244 206 244 207 244 c 0
 208 244 210 244 211 243 c 0
 212 242 212 240 212 239 c 0
 212 238 212 237 211 236 c 2
 133 157 l 2
 132 156 130 156 129 156 c 0
EndSplineSet
EndChar

StartChar: uniED80
Encoding: 60800 60800 297
Width: 0
Flags: MW
HStem: 1 8<31 36 31 38> 28 8 40 8 45 8<95 113.5 95 115.5> 58 8<41 46> 70 8 89 8 110 8<47.5 48.5 47.5 50> 119 8<95 113.5> 129 7<65.5 72> 136 9<65.5 68> 147 8<95 113.5> 155 8<47.5 48.5> 163 8 191 8 196 8<13 17.5 13 19.5 47 49> 221 8<95 113.5> 244 8<13 17.5> 249 8<95 113.5 95 115.5> 255 8<13 17.5 13 19.5> 265 8 273 8<47 49> 282 8 303 8<13 17.5> 313 8<13 17.5 13 19.5> 323 8<95 113.5> 325 8 340 8 350 8<55 153 56 153> 361 8<13 17.5> 373 8<147 160.5 147 163.5> 403 8<128 180 128 128> 409 8 414 8 415 8<127 144 127 152 164 181> 436 8 443 8 457 8 482 8 492 8 540 8 562 9
VStem: 0 8<211 236 270 295 329 354> 5 8<28 31 28 31> 14 8<924.5 934.5> 23 8<211 236 270 295 329 354> 36 8<208 269> 48 8<924.5 934.5> 51 8<208 269> 63 8<77 95 77 97.5 179 197 281 299 543.5 562 645.5 664 794.5 813> 77 8<888.5 899.5 888.5 902> 119 8<423 451 423 459> 126 8<888.5 899.5> 137 8<77 95 179 197 281 299 543.5 562 645.5 664 794.5 813> 144 8<423 451 451 451> 148 8<848 873> 156 8<423 451 423 459> 160 8<725 735 931 956> 171 8<848 873> 181 8<423 451 451 451> 205 8<874 899>
LayerCount: 2
Fore
SplineSet
168 956 m 2x40000000000010
 168 931 l 2
 168 926 172 923 176 923 c 0x00000000200002
 180 923 183 926 183 931 c 2x00000000200010
 183 956 l 2
 183 960 180 963 176 963 c 0x00000000200002
 172 963 168 960 168 956 c 2x40000000000010
191 956 m 2x40000000000002
 191 931 l 2
 191 922 184 915 176 915 c 0x0000000020000080
 167 915 160 922 160 931 c 2x4000000000000010
 160 956 l 2
 160 964 167 971 176 971 c 0x4000000000000080
 184 971 191 964 191 956 c 2x40000000000002
156 873 m 2
 156 848 l 2
 156 843 159 840 163 840 c 0x0400000000001010
 168 840 171 843 171 848 c 2x4000000000000080
 171 873 l 2
 171 877 168 880 163 880 c 0x4000000000000010
 159 880 156 877 156 873 c 2
179 873 m 2
 179 848 l 2
 179 839 172 832 163 832 c 0
 155 832 148 839 148 848 c 2
 148 873 l 2
 148 881 155 888 163 888 c 0
 172 888 179 881 179 873 c 2
128 471 m 1x2000000000001010
 180 471 l 1x0000000200001010
 178 483 167 493 154 493 c 0x0000000100000010
 140 493 129 483 128 471 c 1x2000000000001010
188 467 m 2
 188 463 l 1
 119 463 l 1x0000000200001010
 119 467 l 2
 119 486 135 501 154 501 c 0x0000000100001010
 173 501 188 486 188 467 c 2
127 451 m 1
 127 423 l 1
 144 423 l 1x0000000000800040
 144 451 l 1x0000000100001010
 127 451 l 1
119 415 m 1
 119 459 l 1
 152 459 l 1
 152 415 l 1x0000000001800010
 119 415 l 1
143 713 m 0
 152 713 160 720 160 730 c 0
 160 740 152 748 143 748 c 0x0000000001800040
 133 748 125 740 125 730 c 0
 125 720 133 713 143 713 c 0
143 756 m 0x0000000001000010
 157 756 168 744 168 730 c 0
 168 716 157 705 143 705 c 0
 129 705 117 716 117 730 c 0x00000000040001
 117 744 129 756 143 756 c 0x0000000001000010
106 915 m 0
 95 915 85 905 85 894 c 0
 85 883 95 874 106 874 c 0
 117 874 126 883 126 894 c 0
 126 905 117 915 106 915 c 0
106 866 m 0
 90 866 77 878 77 894 c 0x0000022000001040
 77 910 90 923 106 923 c 0x0000000080000020
 122 923 134 910 134 894 c 0
 134 878 122 866 106 866 c 0
104 837 m 0
 86 837 71 822 71 804 c 0
 71 785 86 771 104 771 c 0
 123 771 137 785 137 804 c 0
 137 822 123 837 104 837 c 0
104 763 m 0
 82 763 63 781 63 804 c 0x00000000090028
 63 826 82 845 104 845 c 0
 127 845 145 826 145 804 c 0
 145 781 127 763 104 763 c 0
104 688 m 0
 86 688 71 673 71 655 c 0
 71 636 86 622 104 622 c 0
 123 622 137 636 137 655 c 0
 137 673 123 688 104 688 c 0
104 614 m 0
 82 614 63 632 63 655 c 0x00020810400044
 63 677 82 696 104 696 c 0
 127 696 145 677 145 655 c 0
 145 632 127 614 104 614 c 0
104 586 m 0
 86 586 71 571 71 553 c 0
 71 534 86 520 104 520 c 0
 123 520 137 534 137 553 c 0
 137 571 123 586 104 586 c 0
104 512 m 0
 82 512 63 530 63 553 c 0
 63 575 82 594 104 594 c 0
 127 594 145 575 145 553 c 0
 145 530 127 512 104 512 c 0
35 985 m 1
 31 978 22 952 22 928 c 0
 22 921 27 914 35 913 c 0
 43 913 48 921 48 928 c 0
 48 952 39 978 35 985 c 1
35 905 m 0
 23 906 14 917 14 928 c 0
 14 941 16 956 21 971 c 0
 28 994 33 994 35 994 c 0x02040000000044
 37 994 42 994 49 971 c 0
 54 956 56 941 56 928 c 0
 56 917 48 905 35 905 c 0
51 208 m 2
 51 269 l 2
 51 271 50 273 48 273 c 0
 46 273 44 271 44 269 c 2
 44 208 l 2
 44 206 46 204 48 204 c 0
 50 204 51 206 51 208 c 2
36 208 m 2x000000000241
 36 269 l 2
 36 275 41 281 48 281 c 0
 54 281 59 275 59 269 c 2x000000000208
 59 208 l 2
 59 201 54 196 48 196 c 0
 41 196 36 201 36 208 c 2x000000000241
45 153 m 2
 45 120 l 2x00010000000080
 45 118 47 118 48 118 c 0x000000000241
 49 118 51 120 52 122 c 0
 56 132 58 135 66 136 c 1
 65 136 57 137 52 151 c 0x000000000248
 51 153 49 155 48 155 c 0
 47 155 45 155 45 153 c 2
37 120 m 2
 37 153 l 2x000804000002
 37 159 42 163 48 163 c 0
 52 163 57 161 59 154 c 0
 63 145 64 145 68 145 c 0x00010400000080
 69 144 71 144 72 144 c 0
 82 143 88 142 88 137 c 0
 88 131 82 130 72 129 c 0
 71 129 69 129 68 128 c 0
 64 128 63 128 59 119 c 0x000104000002
 57 113 52 110 48 110 c 0
 42 110 37 115 37 120 c 2
8 354 m 2
 8 329 l 2
 8 324 11 321 15 321 c 0
 20 321 23 324 23 329 c 2x002000000002
 23 354 l 2
 23 358 20 361 15 361 c 0
 11 361 8 358 8 354 c 2
31 354 m 2
 31 329 l 2
 31 320 24 313 15 313 c 0
 7 313 0 320 0 329 c 2
 0 354 l 2
 0 362 7 369 15 369 c 0
 24 369 31 362 31 354 c 2
8 295 m 2
 8 270 l 2
 8 266 11 263 15 263 c 0
 20 263 23 266 23 270 c 2
 23 295 l 2
 23 299 20 303 15 303 c 0
 11 303 8 299 8 295 c 2
31 295 m 2x000000040020
 31 270 l 2
 31 261 24 255 15 255 c 0
 7 255 0 261 0 270 c 2x000000840004
 0 295 l 2
 0 304 7 311 15 311 c 0
 24 311 31 304 31 295 c 2x000000040020
8 236 m 2
 8 211 l 2
 8 207 11 204 15 204 c 0x000000800004
 20 204 23 207 23 211 c 2
 23 236 l 2
 23 241 20 244 15 244 c 0x000000840020
 11 244 8 241 8 236 c 2
31 236 m 2x000001000020
 31 211 l 2
 31 203 24 196 15 196 c 0
 7 196 0 203 0 211 c 2x000011000004
 0 236 l 2
 0 245 7 252 15 252 c 0
 24 252 31 245 31 236 c 2x000001000020
45 12 m 2
 18 43 l 1
 15 39 14 35 13 31 c 0
 13 25 15 20 19 16 c 0x000011000020
 23 11 28 9 34 9 c 0
 38 9 42 10 45 12 c 2
15 51 m 2x000010000004
 18 54 l 1
 57 11 l 1
 54 8 l 2x000140000004
 48 3 42 1 34 1 c 0
 26 1 18 4 13 10 c 0
 8 16 5 24 5 31 c 0x000040000020
 6 39 9 46 15 51 c 2x000010000004
32 56 m 2
 60 24 l 1
 62 28 64 32 64 36 c 0
 64 44 62 48 59 51 c 0x000140000020
 55 56 49 58 43 58 c 0
 39 58 36 57 32 56 c 2
21 57 m 1x000100000004
 24 59 l 2
 29 64 36 66 43 66 c 0
 51 66 59 63 65 57 c 0
 69 52 72 45 72 39 c 0
 72 28 68 21 62 16 c 2
 59 13 l 1x88000000001040
 21 57 l 1x000100000004
104 53 m 0
 123 53 137 68 137 86 c 0
 137 104 123 119 104 119 c 0
 86 119 71 104 71 86 c 0
 71 68 86 53 104 53 c 0
104 127 m 0
 127 127 145 109 145 86 c 0
 145 63 127 45 104 45 c 0
 82 45 63 63 63 86 c 0
 63 109 82 127 104 127 c 0
104 155 m 0
 123 155 137 170 137 188 c 0
 137 206 123 221 104 221 c 0
 86 221 71 206 71 188 c 0
 71 170 86 155 104 155 c 0
104 229 m 0
 127 229 145 211 145 188 c 0x10800000000044
 145 165 127 147 104 147 c 0
 82 147 63 165 63 188 c 0
 63 211 82 229 104 229 c 0
104 257 m 0
 123 257 137 272 137 290 c 0
 137 308 123 323 104 323 c 0
 86 323 71 308 71 290 c 0
 71 272 86 257 104 257 c 0
104 331 m 0
 127 331 145 313 145 290 c 0x00108000000044
 145 267 127 249 104 249 c 0
 82 249 63 267 63 290 c 0
 63 313 82 331 104 331 c 0
56 358 m 2
 153 358 l 2
 156 358 157 356 157 354 c 0
 157 352 156 350 153 350 c 2
 56 350 l 2
 54 350 52 352 52 354 c 0
 52 356 54 358 56 358 c 2
180 403 m 1
 128 403 l 1x0000204010004408
 129 391 140 381 154 381 c 0
 167 381 178 391 180 403 c 1
119 407 m 2
 119 411 l 1
 188 411 l 1
 188 407 l 2
 188 388 173 373 154 373 c 0
 135 373 119 388 119 407 c 2
164 451 m 1
 164 423 l 1
 181 423 l 1
 181 451 l 1
 164 451 l 1
156 415 m 1
 156 459 l 1x0000000012000010
 189 459 l 1
 189 415 l 1
 156 415 l 1
205 874 m 2
 205 899 l 2
 205 903 201 907 197 907 c 0
 193 907 190 903 190 899 c 2
 190 874 l 2
 190 870 193 867 197 867 c 0
 201 867 205 870 205 874 c 2
182 874 m 2
 182 899 l 2
 182 908 189 915 197 915 c 0
 206 915 213 908 213 899 c 2
 213 874 l 2
 213 866 206 859 197 859 c 0
 189 859 182 866 182 874 c 2
EndSplineSet
EndChar

StartChar: uniED81
Encoding: 60801 60801 298
Width: 0
Flags: MW
HStem: 851 8<14 44 16 44> 888 8<13 13>
VStem: 0 8<867.5 869 867 870.5> 49 8<871.5 872.5>
LayerCount: 2
Fore
SplineSet
44 851 m 2
 16 851 l 2
 12 851 7 853 4 857 c 0
 1 860 0 865 0 870 c 0
 0 871 4 896 13 896 c 0
 15 896 19 894 21 893 c 2
 50 883 l 2
 55 880 57 876 57 872 c 0
 57 868 55 851 44 851 c 2
13 888 m 1
 12 887 10 884 8 869 c 0
 8 865 9 863 10 862 c 0
 12 860 14 859 16 859 c 2
 44 859 l 2
 45 859 46 861 47 864 c 0
 49 867 49 871 49 872 c 0
 49 873 48 875 47 875 c 2
 19 886 l 2
 16 886 14 887 13 888 c 1
EndSplineSet
EndChar

StartChar: uniED82
Encoding: 60802 60802 299
Width: 0
Flags: MW
HStem: 909 81<35 37.5 32.5 40>
VStem: 18 34<923.5 942>
LayerCount: 2
Fore
SplineSet
35 909 m 0
 25 910 18 919 18 928 c 0
 18 956 30 990 35 990 c 0
 40 990 52 956 52 928 c 0
 52 919 45 909 35 909 c 0
EndSplineSet
EndChar

StartChar: uniED83
Encoding: 60803 60803 300
Width: 0
Flags: MW
HStem: 870 49<99 112.5>
VStem: 81 49<887.5 901>
LayerCount: 2
Fore
SplineSet
130 894 m 0
 130 881 119 870 106 870 c 0
 92 870 81 881 81 894 c 0
 81 908 92 919 106 919 c 0
 119 919 130 908 130 894 c 0
EndSplineSet
EndChar

StartChar: uniED84
Encoding: 60804 60804 301
Width: 0
Flags: MW
HStem: 767 74<94 114.5>
VStem: 67 74<793.5 814>
LayerCount: 2
Fore
SplineSet
141 804 m 0
 141 783 125 767 104 767 c 0
 84 767 67 783 67 804 c 0
 67 824 84 841 104 841 c 0
 125 841 141 824 141 804 c 0
EndSplineSet
EndChar

StartChar: uniED85
Encoding: 60805 60805 302
Width: 0
Flags: MW
HStem: 709 43<137 149>
VStem: 121 43<724 736>
LayerCount: 2
Fore
SplineSet
164 730 m 0
 164 718 155 709 143 709 c 0
 131 709 121 718 121 730 c 0
 121 742 131 752 143 752 c 0
 155 752 164 742 164 730 c 0
EndSplineSet
EndChar

StartChar: uniED86
Encoding: 60806 60806 303
Width: 0
Flags: MW
HStem: 618 74<94 114.5>
VStem: 67 74<644.5 665>
LayerCount: 2
Fore
SplineSet
141 655 m 0
 141 634 125 618 104 618 c 0
 84 618 67 634 67 655 c 0
 67 675 84 692 104 692 c 0
 125 692 141 675 141 655 c 0
EndSplineSet
EndChar

StartChar: uniED87
Encoding: 60807 60807 304
Width: 0
Flags: MW
HStem: 516 74<94 114.5>
VStem: 67 74<542.5 563>
LayerCount: 2
Fore
SplineSet
141 553 m 0
 141 532 125 516 104 516 c 0
 84 516 67 532 67 553 c 0
 67 573 84 590 104 590 c 0
 125 590 141 573 141 553 c 0
EndSplineSet
EndChar

StartChar: uniED88
Encoding: 60808 60808 305
Width: 0
Flags: MW
HStem: 919 48<172.5 179>
VStem: 164 23<931 956>
LayerCount: 2
Fore
SplineSet
187 956 m 2
 187 931 l 2
 187 924 182 919 176 919 c 0
 169 919 164 924 164 931 c 2
 164 956 l 2
 164 962 169 967 176 967 c 0
 182 967 187 962 187 956 c 2
EndSplineSet
EndChar

StartChar: uniED89
Encoding: 60809 60809 306
Width: 0
Flags: MW
HStem: 863 48<194 200.5>
VStem: 186 23<874 899>
LayerCount: 2
Fore
SplineSet
209 899 m 2
 209 874 l 2
 209 868 204 863 197 863 c 0
 191 863 186 868 186 874 c 2
 186 899 l 2
 186 906 191 911 197 911 c 0
 204 911 209 906 209 899 c 2
EndSplineSet
EndChar

StartChar: uniED8A
Encoding: 60810 60810 307
Width: 0
Flags: MW
HStem: 836 48<160 166.5>
VStem: 152 23<848 873>
LayerCount: 2
Fore
SplineSet
175 873 m 2
 175 848 l 2
 175 841 170 836 163 836 c 0
 157 836 152 841 152 848 c 2
 152 873 l 2
 152 879 157 884 163 884 c 0
 170 884 175 879 175 873 c 2
EndSplineSet
EndChar

StartChar: uniED8B
Encoding: 60811 60811 308
Width: 0
Flags: MW
HStem: 467 30<145.5 162 145.5 184 123 162>
VStem: 123 61<467 475>
LayerCount: 2
Fore
SplineSet
184 467 m 1
 123 467 l 1
 123 483 137 497 154 497 c 0
 170 497 184 483 184 467 c 1
EndSplineSet
EndChar

StartChar: uniED8C
Encoding: 60812 60812 309
Width: 0
Flags: MW
HStem: 419 36<160 185 160 185>
VStem: 160 25<419 455 419 455>
LayerCount: 2
Fore
SplineSet
185 455 m 1
 185 419 l 1
 160 419 l 1
 160 455 l 1
 185 455 l 1
EndSplineSet
EndChar

StartChar: uniED8D
Encoding: 60813 60813 310
Width: 0
Flags: MW
HStem: 419 36<123 148 123 148>
VStem: 123 25<419 455 419 455>
LayerCount: 2
Fore
SplineSet
148 455 m 1
 148 419 l 1
 123 419 l 1
 123 455 l 1
 148 455 l 1
EndSplineSet
EndChar

StartChar: uniED8E
Encoding: 60814 60814 311
Width: 0
Flags: MW
HStem: 377 30<145.5 162>
VStem: 123 61<399 407>
LayerCount: 2
Fore
SplineSet
123 407 m 1
 184 407 l 1
 184 391 170 377 154 377 c 0
 137 377 123 391 123 407 c 1
EndSplineSet
EndChar

StartChar: uniED8F
Encoding: 60815 60815 312
Width: 0
Flags: MW
HStem: 317 48<12 18.5>
VStem: 4 23<329 354>
LayerCount: 2
Fore
SplineSet
27 354 m 2
 27 329 l 2
 27 322 22 317 15 317 c 0
 9 317 4 322 4 329 c 2
 4 354 l 2
 4 360 9 365 15 365 c 0
 22 365 27 360 27 354 c 2
EndSplineSet
EndChar

StartChar: uniED90
Encoding: 60816 60816 313
Width: 0
Flags: MW
HStem: 259 48<12 18.5>
VStem: 4 23<270 295>
LayerCount: 2
Fore
SplineSet
27 295 m 2
 27 270 l 2
 27 264 22 259 15 259 c 0
 9 259 4 264 4 270 c 2
 4 295 l 2
 4 301 9 307 15 307 c 0
 22 307 27 301 27 295 c 2
EndSplineSet
EndChar

StartChar: uniED91
Encoding: 60817 60817 314
Width: 0
Flags: MW
HStem: 200 48<12 18.5>
VStem: 4 23<211 236>
LayerCount: 2
Fore
SplineSet
27 236 m 2
 27 211 l 2
 27 205 22 200 15 200 c 0
 9 200 4 205 4 211 c 2
 4 236 l 2
 4 243 9 248 15 248 c 0
 22 248 27 243 27 236 c 2
EndSplineSet
EndChar

StartChar: uniED92
Encoding: 60818 60818 315
Width: 0
Flags: MW
HStem: 200 77<46 50>
VStem: 40 15<208 269>
LayerCount: 2
Fore
SplineSet
55 269 m 2
 55 208 l 2
 55 203 52 200 48 200 c 0
 44 200 40 203 40 208 c 2
 40 269 l 2
 40 273 44 277 48 277 c 0
 52 277 55 273 55 269 c 2
EndSplineSet
EndChar

StartChar: uniED93
Encoding: 60819 60819 316
Width: 0
Flags: MW
HStem: 253 74<94 114.5>
VStem: 67 74<280 300>
LayerCount: 2
Fore
SplineSet
141 290 m 0
 141 270 125 253 104 253 c 0
 84 253 67 270 67 290 c 0
 67 310 84 327 104 327 c 0
 125 327 141 310 141 290 c 0
EndSplineSet
EndChar

StartChar: uniED94
Encoding: 60820 60820 317
Width: 0
Flags: MW
HStem: 151 74<94 114.5>
VStem: 67 74<178 198>
LayerCount: 2
Fore
SplineSet
141 188 m 0
 141 168 125 151 104 151 c 0
 84 151 67 168 67 188 c 0
 67 208 84 225 104 225 c 0
 125 225 141 208 141 188 c 0
EndSplineSet
EndChar

StartChar: uniED95
Encoding: 60821 60821 318
Width: 0
Flags: MW
HStem: 114 45<46 48.5>
VStem: 41 43<135 137.5 135 153 135 155>
LayerCount: 2
Fore
SplineSet
84 136 m 0
 84 134 73 133 67 132 c 0
 61 131 59 130 56 121 c 0
 54 116 50 114 47 114 c 0
 44 114 41 116 41 120 c 2
 41 153 l 2
 41 157 44 159 48 159 c 0
 51 159 54 157 56 153 c 0
 59 143 61 142 67 141 c 0
 73 140 84 139 84 136 c 0
EndSplineSet
EndChar

StartChar: uniED96
Encoding: 60822 60822 319
Width: 0
Flags: MW
HStem: 49 74<94 114.5>
VStem: 67 74<76 96>
LayerCount: 2
Fore
SplineSet
141 86 m 0
 141 66 125 49 104 49 c 0
 84 49 67 66 67 86 c 0
 67 106 84 123 104 123 c 0
 125 123 141 106 141 86 c 0
EndSplineSet
EndChar

StartChar: uniED97
Encoding: 60823 60823 320
Width: 0
Flags: MW
HStem: 19 43<40 60>
VStem: 60 8
LayerCount: 2
Fore
SplineSet
60 19 m 1
 26 56 l 1
 31 60 37 62 43 62 c 0
 50 62 57 59 62 54 c 0
 66 49 68 44 68 38 c 0
 68 31 65 24 60 19 c 1
EndSplineSet
EndChar

StartChar: uniED98
Encoding: 60824 60824 321
Width: 0
Flags: MW
HStem: 5 43<18 38>
VStem: 9 9
LayerCount: 2
Fore
SplineSet
18 48 m 1
 51 11 l 1
 46 7 41 5 35 5 c 0
 28 5 21 8 16 13 c 0
 11 18 9 24 9 30 c 0
 9 37 12 43 18 48 c 1
EndSplineSet
EndChar

StartChar: uniED99
Encoding: 60825 60825 322
Width: 0
Flags: MW
HStem: 855 36<10 17 10 44>
VStem: 4 49<863 873>
LayerCount: 2
Fore
SplineSet
49 879 m 0
 51 878 53 874 53 872 c 0
 53 869 51 855 44 855 c 2
 17 855 l 2
 11 855 4 859 4 867 c 0
 4 869 7 891 13 891 c 2
 13 891 14 891 49 879 c 0
EndSplineSet
EndChar

StartChar: uniED9A
Encoding: 60826 60826 323
Width: 0
Flags: MW
HStem: 804 37<94 114.5 94 141 67 114.5>
VStem: 67 74<804 814>
LayerCount: 2
Fore
SplineSet
104 841 m 0
 125 841 141 824 141 804 c 1
 67 804 l 1
 67 824 84 841 104 841 c 0
EndSplineSet
EndChar

StartChar: uniED9B
Encoding: 60827 60827 324
Width: 0
Flags: MW
HStem: 655 37<94 114.5 94 141 67 114.5>
VStem: 67 74<655 665>
LayerCount: 2
Fore
SplineSet
104 692 m 0
 125 692 141 675 141 655 c 1
 67 655 l 1
 67 675 84 692 104 692 c 0
EndSplineSet
EndChar

StartChar: uniED9C
Encoding: 60828 60828 325
Width: 0
Flags: MW
HStem: 553 37<94 114.5 94 141 67 114.5>
VStem: 67 74<553 563>
LayerCount: 2
Fore
SplineSet
104 590 m 0
 125 590 141 573 141 553 c 1
 67 553 l 1
 67 573 84 590 104 590 c 0
EndSplineSet
EndChar

StartChar: uniED9D
Encoding: 60829 60829 326
Width: 0
Flags: MW
HStem: 291 37<94 114.5 94 141 67 114.5>
VStem: 67 74<291 301>
LayerCount: 2
Fore
SplineSet
104 328 m 0
 125 328 141 311 141 291 c 1
 67 291 l 1
 67 311 84 328 104 328 c 0
EndSplineSet
EndChar

StartChar: uniED9E
Encoding: 60830 60830 327
Width: 0
Flags: MW
HStem: 189 37<94 114.5 94 141 67 114.5>
VStem: 67 74<189 199>
LayerCount: 2
Fore
SplineSet
104 226 m 0
 125 226 141 209 141 189 c 1
 67 189 l 1
 67 209 84 226 104 226 c 0
EndSplineSet
EndChar

StartChar: uniED9F
Encoding: 60831 60831 328
Width: 0
Flags: MW
HStem: 86 37<94 114.5 94 141 67 114.5>
VStem: 67 74<86 96>
LayerCount: 2
Fore
SplineSet
104 123 m 0
 125 123 141 106 141 86 c 1
 67 86 l 1
 67 106 84 123 104 123 c 0
EndSplineSet
EndChar

StartChar: uniEDA0
Encoding: 60832 60832 329
Width: 0
Flags: MW
HStem: 909 74<26 30 26 30 26 40 40 44>
VStem: 26 18<909 983 909 983>
LayerCount: 2
Fore
SplineSet
30 983 m 1
 30 909 l 1
 26 909 l 1
 26 983 l 1
 30 983 l 1
44 983 m 1
 44 909 l 1
 40 909 l 1
 40 983 l 1
 44 983 l 1
EndSplineSet
EndChar

StartChar: uniEDA1
Encoding: 60833 60833 330
Width: 0
Flags: MW
HStem: 870 44<104 122 104 122> 870 49<104 108 104 108> 875 41<89 93 89 93>
VStem: 89 19<875 916 916 916> 104 18<874 914 874 919 874 919>
LayerCount: 2
Fore
SplineSet
93 916 m 1x30
 93 875 l 1
 89 875 l 1
 89 916 l 1
 93 916 l 1x30
108 919 m 1
 108 870 l 1
 104 870 l 1x88
 104 919 l 1
 108 919 l 1
122 914 m 1
 122 874 l 1
 118 874 l 1
 118 914 l 1
 122 914 l 1
EndSplineSet
EndChar

StartChar: uniEDA2
Encoding: 60834 60834 331
Width: 0
Flags: MW
HStem: 766 74<95 99 95 99> 773 60<80 84 80 84>
VStem: 80 19<773 833 833 833> 95 19<767 840 767 840 767 840> 110 19<774 833 774 840 774 840>
LayerCount: 2
Fore
SplineSet
84 833 m 1xa0
 84 773 l 1
 80 773 l 1x90
 80 833 l 1
 84 833 l 1xa0
99 840 m 1
 99 766 l 1
 95 766 l 1x88
 95 840 l 1
 99 840 l 1
114 840 m 1x60
 114 767 l 1
 110 767 l 1
 110 840 l 1
 114 840 l 1x60
129 833 m 1x48
 129 774 l 1
 125 774 l 1
 125 833 l 1
 129 833 l 1x48
EndSplineSet
EndChar

StartChar: uniEDA3
Encoding: 60835 60835 332
Width: 0
Flags: MW
HStem: 709 41<134 138 134 138 134 148 148 152>
VStem: 134 18<709 750 709 750>
LayerCount: 2
Fore
SplineSet
138 750 m 1
 138 709 l 1
 134 709 l 1
 134 750 l 1
 138 750 l 1
152 750 m 1
 152 709 l 1
 148 709 l 1
 148 750 l 1
 152 750 l 1
EndSplineSet
EndChar

StartChar: uniEDA4
Encoding: 60836 60836 333
Width: 0
Flags: MW
HStem: 617 74<95 99 95 99> 624 60<80 84 80 84>
VStem: 80 19<624 684 684 684> 95 19<618 691 618 691 618 691> 110 19<625 684 625 691 625 691>
LayerCount: 2
Fore
SplineSet
84 684 m 1xa0
 84 624 l 1
 80 624 l 1x90
 80 684 l 1
 84 684 l 1xa0
99 691 m 1
 99 617 l 1
 95 617 l 1x88
 95 691 l 1
 99 691 l 1
114 691 m 1x60
 114 618 l 1
 110 618 l 1
 110 691 l 1
 114 691 l 1x60
129 684 m 1x48
 129 625 l 1
 125 625 l 1
 125 684 l 1
 129 684 l 1x48
EndSplineSet
EndChar

StartChar: uniEDA5
Encoding: 60837 60837 334
Width: 0
Flags: MW
HStem: 516 73<95 99 95 99> 523 59<80 84 80 84>
VStem: 80 19<523 582 582 582> 95 19<517 589 517 589 517 589> 110 19<524 582 524 589 524 589>
LayerCount: 2
Fore
SplineSet
84 582 m 1xa0
 84 523 l 1
 80 523 l 1x90
 80 582 l 1
 84 582 l 1xa0
99 589 m 1
 99 516 l 1
 95 516 l 1x88
 95 589 l 1
 99 589 l 1
114 589 m 1x60
 114 517 l 1
 110 517 l 1
 110 589 l 1
 114 589 l 1x60
129 582 m 1x48
 129 524 l 1
 125 524 l 1
 125 582 l 1
 129 582 l 1x48
EndSplineSet
EndChar

StartChar: uniEDA6
Encoding: 60838 60838 335
Width: 0
Flags: MW
HStem: 919 48<174 178 174 178>
VStem: 174 4<919 967 919 967>
LayerCount: 2
Fore
SplineSet
178 967 m 1
 178 919 l 1
 174 919 l 1
 174 967 l 1
 178 967 l 1
EndSplineSet
EndChar

StartChar: uniEDA7
Encoding: 60839 60839 336
Width: 0
Flags: MW
HStem: 863 48<196 200 196 200>
VStem: 196 4<863 911 863 911>
LayerCount: 2
Fore
SplineSet
200 911 m 1
 200 863 l 1
 196 863 l 1
 196 911 l 1
 200 911 l 1
EndSplineSet
EndChar

StartChar: uniEDA8
Encoding: 60840 60840 337
Width: 0
Flags: MW
HStem: 835 49<162 166 162 166>
VStem: 162 4<835 884 835 884>
LayerCount: 2
Fore
SplineSet
166 884 m 1
 166 835 l 1
 162 835 l 1
 162 884 l 1
 166 884 l 1
EndSplineSet
EndChar

StartChar: uniEDA9
Encoding: 60841 60841 338
Width: 0
Flags: MW
HStem: 467 29<137 141 137 141 137 152 137 156 137 166 166 170>
VStem: 137 19<467 496 496 496> 152 18<467 496 467 497 467 497>
LayerCount: 2
Fore
SplineSet
141 496 m 1xc0
 141 467 l 1
 137 467 l 1
 137 496 l 1
 141 496 l 1xc0
156 497 m 1
 156 467 l 1
 152 467 l 1xa0
 152 497 l 1
 156 497 l 1
170 496 m 1
 170 467 l 1
 166 467 l 1
 166 496 l 1
 170 496 l 1
EndSplineSet
EndChar

StartChar: uniEDAA
Encoding: 60842 60842 339
Width: 0
Flags: MW
HStem: 419 37<171 175 171 175>
VStem: 171 4<419 456 419 456>
LayerCount: 2
Fore
SplineSet
175 456 m 1
 175 419 l 1
 171 419 l 1
 171 456 l 1
 175 456 l 1
EndSplineSet
EndChar

StartChar: uniEDAB
Encoding: 60843 60843 340
Width: 0
Flags: MW
HStem: 419 37<134 138 134 138>
VStem: 134 4<419 456 419 456>
LayerCount: 2
Fore
SplineSet
138 456 m 1
 138 419 l 1
 134 419 l 1
 134 456 l 1
 138 456 l 1
EndSplineSet
EndChar

StartChar: uniEDAC
Encoding: 60844 60844 341
Width: 0
Flags: MW
HStem: 379 29<137 141 137 141 166 170 137 166>
VStem: 137 19<379 408 378 408> 152 18<379 408 379 408 379 408>
LayerCount: 2
Fore
SplineSet
170 408 m 1xa0
 170 379 l 1
 166 379 l 1
 166 408 l 1
 170 408 l 1xa0
156 408 m 1xc0
 156 378 l 1
 152 378 l 1xa0
 152 408 l 1
 156 408 l 1xc0
141 408 m 1xc0
 141 379 l 1
 137 379 l 1
 137 408 l 1
 141 408 l 1xc0
EndSplineSet
EndChar

StartChar: uniEDAD
Encoding: 60845 60845 342
Width: 0
Flags: MW
HStem: 316 49<14 18 14 18>
VStem: 14 4<316 365 316 365>
LayerCount: 2
Fore
SplineSet
18 365 m 1
 18 316 l 1
 14 316 l 1
 14 365 l 1
 18 365 l 1
EndSplineSet
EndChar

StartChar: uniEDAE
Encoding: 60846 60846 343
Width: 0
Flags: MW
HStem: 257 49<14 18 14 18>
VStem: 14 4<257 306 257 306>
LayerCount: 2
Fore
SplineSet
18 306 m 1
 18 257 l 1
 14 257 l 1
 14 306 l 1
 18 306 l 1
EndSplineSet
EndChar

StartChar: uniEDAF
Encoding: 60847 60847 344
Width: 0
Flags: MW
HStem: 199 49<14 18 14 18>
VStem: 14 4<199 248 199 248>
LayerCount: 2
Fore
SplineSet
18 248 m 1
 18 199 l 1
 14 199 l 1
 14 248 l 1
 18 248 l 1
EndSplineSet
EndChar

StartChar: uniEDB0
Encoding: 60848 60848 345
Width: 0
Flags: MW
HStem: 201 76<46 50 46 50>
VStem: 46 4<201 277 201 277>
LayerCount: 2
Fore
SplineSet
50 277 m 1
 50 201 l 1
 46 201 l 1
 46 277 l 1
 50 277 l 1
EndSplineSet
EndChar

StartChar: uniEDB1
Encoding: 60849 60849 346
Width: 0
Flags: MW
HStem: 253 73<95 99 95 99> 260 59<80 84 80 84>
VStem: 80 19<260 319 319 319> 95 19<254 326 254 326 254 326> 110 19<261 319 261 326 261 326>
LayerCount: 2
Fore
SplineSet
84 319 m 1xa0
 84 260 l 1
 80 260 l 1x90
 80 319 l 1
 84 319 l 1xa0
99 326 m 1
 99 253 l 1
 95 253 l 1x88
 95 326 l 1
 99 326 l 1
114 326 m 1x60
 114 254 l 1
 110 254 l 1
 110 326 l 1
 114 326 l 1x60
129 319 m 1x48
 129 261 l 1
 125 261 l 1
 125 319 l 1
 129 319 l 1x48
EndSplineSet
EndChar

StartChar: uniEDB2
Encoding: 60850 60850 347
Width: 0
Flags: MW
HStem: 151 73<95 99 95 99> 158 59<80 84 80 84>
VStem: 80 19<158 217 217 217> 95 19<152 224 152 224 152 224> 110 19<159 217 159 224 159 224>
LayerCount: 2
Fore
SplineSet
84 217 m 1xa0
 84 158 l 1
 80 158 l 1x90
 80 217 l 1
 84 217 l 1xa0
99 224 m 1
 99 151 l 1
 95 151 l 1x88
 95 224 l 1
 99 224 l 1
114 224 m 1x60
 114 152 l 1
 110 152 l 1
 110 224 l 1
 114 224 l 1x60
129 217 m 1x48
 129 159 l 1
 125 159 l 1
 125 217 l 1
 129 217 l 1x48
EndSplineSet
EndChar

StartChar: uniEDB3
Encoding: 60851 60851 348
Width: 0
Flags: MW
HStem: 115 42<51 55 51 55>
VStem: 51 4<115 157 115 157>
LayerCount: 2
Fore
SplineSet
55 157 m 1
 55 115 l 1
 51 115 l 1
 51 157 l 1
 55 157 l 1
EndSplineSet
EndChar

StartChar: uniEDB4
Encoding: 60852 60852 349
Width: 0
Flags: MW
HStem: 49 73<95 99 95 99> 56 59<80 84 80 84>
VStem: 80 19<56 115 115 115> 95 19<50 122 50 122 50 122> 110 19<57 115 57 122 57 122>
LayerCount: 2
Fore
SplineSet
84 115 m 1xa0
 84 56 l 1
 80 56 l 1x90
 80 115 l 1
 84 115 l 1xa0
99 122 m 1
 99 49 l 1
 95 49 l 1x88
 95 122 l 1
 99 122 l 1
114 122 m 1x60
 114 50 l 1
 110 50 l 1
 110 122 l 1
 114 122 l 1x60
129 115 m 1x48
 129 57 l 1
 125 57 l 1
 125 115 l 1
 129 115 l 1x48
EndSplineSet
EndChar

StartChar: uniEDB5
Encoding: 60853 60853 350
Width: 0
Flags: MW
HStem: 37 24<39 43 39 43>
VStem: 39 19<37 61 24 61>
LayerCount: 2
Fore
SplineSet
43 61 m 1
 43 37 l 1
 39 37 l 1
 39 61 l 1
 43 61 l 1
58 61 m 1
 58 24 l 1
 54 24 l 1
 54 61 l 1
 58 61 l 1
EndSplineSet
EndChar

StartChar: uniEDB6
Encoding: 60854 60854 351
Width: 0
Flags: MW
HStem: 7 23<17 36 17 36 32 36 32 36>
VStem: 17 19<7 30 7 45 7 45>
LayerCount: 2
Fore
SplineSet
21 45 m 1
 21 7 l 1
 17 7 l 1
 17 45 l 1
 21 45 l 1
36 30 m 1
 36 7 l 1
 32 7 l 1
 32 30 l 1
 36 30 l 1
EndSplineSet
EndChar

StartChar: uniEDB7
Encoding: 60855 60855 352
Width: 0
Flags: MW
HStem: 854 28<12 46 27 46 27 46 42 46 42 46> 854 37<12 16 12 16 12 27 12 31 12 42 12 46>
VStem: 12 19<854 886 854 891 854 891> 27 19<854 882 854 886 854 886>
LayerCount: 2
Fore
SplineSet
16 891 m 1x60
 16 854 l 1
 12 854 l 1xa0
 12 891 l 1
 16 891 l 1x60
31 886 m 1
 31 854 l 1
 27 854 l 1x90
 27 886 l 1
 31 886 l 1
46 882 m 1
 46 854 l 1
 42 854 l 1
 42 882 l 1
 46 882 l 1
EndSplineSet
EndChar

StartChar: uniEDC0
Encoding: 60864 60864 353
Width: 0
Flags: HMW
HStem: 0 10<182.5 203.5 182.5 206 298 318.5> 85 10<182.5 203.5 298 318.5> 144 10<182.5 203.5 182.5 206 298 318.5> 229 10<182.5 203.5 298 318.5> 284 10<234.5 265.5 234.5 268.5> 407 10<234.5 265.5> 460 10<110.5 384 112 384> 514 10<234.5 265.5 234.5 268.5> 637 10<234.5 265.5> 690 10<234.5 265.5 234.5 268.5> 813 10<234.5 265.5> 865 10<51 82.5 51 85 234.5 265.5> 988 10<51 82.5 234.5 265.5>
VStem: 0 10<916.5 947.5 916.5 950.5> 123 10<916.5 947.5> 145 10<37.5 58 37.5 61 181.5 202> 183 10<335 366.5 335 369 565 596.5 740.5 771.5 916.5 947.5> 231 10<37.5 58 181.5 202> 261 10<37.5 58 37.5 61 181.5 202> 307 10<335 366.5 565 596.5 740.5 771.5 916.5 947.5> 346 10<37.5 58 181.5 202>
LayerCount: 2
Fore
SplineSet
250 423 m 0
 213 423 183 453 183 490 c 0
 183 526 213 556 250 556 c 0
 287 556 317 526 317 490 c 0
 317 453 287 423 250 423 c 0
250 546 m 0
 219 546 193 521 193 490 c 0
 193 458 219 433 250 433 c 0
 281 433 307 458 307 490 c 0
 307 521 281 546 250 546 c 0
250 952 m 0
 213 952 183 982 183 1019 c 0
 183 1056 213 1085 250 1085 c 0
 287 1085 317 1056 317 1019 c 0
 317 982 287 952 250 952 c 0
250 1075 m 0
 219 1075 193 1050 193 1019 c 0
 193 988 219 962 250 962 c 0
 281 962 307 988 307 1019 c 0
 307 1050 281 1075 250 1075 c 0
67 952 m 0
 30 952 0 982 0 1019 c 0
 0 1056 30 1085 67 1085 c 4
 103 1085 133 1056 133 1019 c 0
 133 982 103 952 67 952 c 0
67 1075 m 0
 35 1075 10 1050 10 1019 c 0
 10 988 35 962 67 962 c 0
 98 962 123 988 123 1019 c 0
 123 1050 98 1075 67 1075 c 0
250 789 m 0
 213 789 183 818 183 855 c 0
 183 892 213 922 250 922 c 0
 287 922 317 892 317 855 c 0
 317 818 287 789 250 789 c 0
250 912 m 0
 219 912 193 886 193 855 c 0
 193 824 219 799 250 799 c 0
 281 799 307 824 307 855 c 0
 307 886 281 912 250 912 c 0
250 626 m 0
 213 626 183 656 183 693 c 0
 183 729 213 759 250 759 c 0
 287 759 317 729 317 693 c 0
 317 656 287 626 250 626 c 0
250 749 m 0
 219 749 193 724 193 693 c 0
 193 661 219 636 250 636 c 0
 281 636 307 661 307 693 c 0
 307 724 281 749 250 749 c 0
250 260 m 0
 213 260 183 290 183 327 c 0
 183 363 213 393 250 393 c 0
 287 393 317 363 317 327 c 0
 317 290 287 260 250 260 c 0
250 383 m 0
 219 383 193 358 193 327 c 0
 193 295 219 270 250 270 c 0
 281 270 307 295 307 327 c 0
 307 358 281 383 250 383 c 0
193 125 m 0
 167 125 145 146 145 173 c 0
 145 199 167 220 193 220 c 0
 219 220 241 199 241 173 c 0
 241 146 219 125 193 125 c 0
193 210 m 0
 172 210 155 193 155 173 c 0
 155 152 172 135 193 135 c 0
 214 135 231 152 231 173 c 0
 231 193 214 210 193 210 c 0
308 125 m 0
 282 125 261 146 261 173 c 0
 261 199 282 220 308 220 c 0
 334 220 356 199 356 173 c 0
 356 146 334 125 308 125 c 0
308 210 m 0
 288 210 271 193 271 173 c 0
 271 152 288 135 308 135 c 0
 329 135 346 152 346 173 c 0
 346 193 329 210 308 210 c 0
193 0 m 0
 167 0 145 21 145 48 c 0
 145 74 167 95 193 95 c 0
 219 95 241 74 241 48 c 0
 241 21 219 0 193 0 c 0
193 85 m 0
 172 85 155 68 155 48 c 0
 155 27 172 10 193 10 c 0
 214 10 231 27 231 48 c 0
 231 68 214 85 193 85 c 0
308 0 m 0
 282 0 261 21 261 48 c 0
 261 74 282 95 308 95 c 0
 334 95 356 74 356 48 c 0
 356 21 334 0 308 0 c 0
308 85 m 0
 288 85 271 68 271 48 c 0
 271 27 288 10 308 10 c 0
 329 10 346 27 346 48 c 0
 346 68 329 85 308 85 c 0
384 586 m 2
 112 586 l 2
 109 586 107 588 107 591 c 0
 107 594 109 596 112 596 c 2
 384 596 l 2
 387 596 389 594 389 591 c 0
 389 588 387 586 384 586 c 2
EndSplineSet
EndChar

StartChar: uniEDC1
Encoding: 60865 60865 354
Width: 0
Flags: HMW
HStem: 870 123<50 84>
VStem: 5 123<915 949>
LayerCount: 2
Fore
SplineSet
128 1024 m 0
 128 990 101 962 67 962 c 0
 33 962 5 990 5 1024 c 0
 5 1058 33 1085 67 1085 c 4
 101 1085 128 1058 128 1024 c 0
EndSplineSet
EndChar

StartChar: uniEDC2
Encoding: 60866 60866 355
Width: 0
InSpiro: 1
Flags: MW
HStem: 870 123<233 267>
VStem: 188 124<915 949>
LayerCount: 2
Fore
SplineSet
312 932 m 0
 312 898 284 870 250 870 c 0
 216 870 188 898 188 932 c 0
 188 966 216 993 250 993 c 0
 284 993 312 966 312 932 c 0
  Spiro
    312 932 o
    303.498 900.842 o
    281.158 878.502 o
    250 870 o
    218.842 878.502 o
    196.502 900.842 o
    188 932 o
    196.502 962.899 o
    218.842 984.757 o
    250 993 o
    281.158 984.757 o
    303.498 962.899 o
    0 0 z
  EndSpiro
EndSplineSet
EndChar

StartChar: uniEDC3
Encoding: 60867 60867 356
Width: 0
Flags: MW
HStem: 695 123<233 267>
VStem: 188 124<739 773>
LayerCount: 2
Fore
SplineSet
312 756 m 0
 312 722 284 695 250 695 c 0
 216 695 188 722 188 756 c 0
 188 790 216 818 250 818 c 0
 284 818 312 790 312 756 c 0
EndSplineSet
EndChar

StartChar: uniEDC4
Encoding: 60868 60868 357
Width: 0
Flags: MW
HStem: 519 123<233 267>
VStem: 188 124<564 598>
LayerCount: 2
Fore
SplineSet
312 581 m 0
 312 547 284 519 250 519 c 0
 216 519 188 547 188 581 c 0
 188 615 216 642 250 642 c 0
 284 642 312 615 312 581 c 0
EndSplineSet
EndChar

StartChar: uniEDC5
Encoding: 60869 60869 358
Width: 0
Flags: MW
HStem: 289 123<233 267>
VStem: 188 124<334 368>
LayerCount: 2
Fore
SplineSet
312 351 m 0
 312 317 284 289 250 289 c 0
 216 289 188 317 188 351 c 0
 188 385 216 412 250 412 c 0
 284 412 312 385 312 351 c 0
EndSplineSet
EndChar

StartChar: uniEDC6
Encoding: 60870 60870 359
Width: 0
Flags: MW
HStem: 149 85<181 204.5>
VStem: 150 86<180 203.5>
LayerCount: 2
Fore
SplineSet
236 192 m 0
 236 168 216 149 193 149 c 0
 169 149 150 168 150 192 c 0
 150 215 169 234 193 234 c 0
 216 234 236 215 236 192 c 0
EndSplineSet
EndChar

StartChar: uniEDC7
Encoding: 60871 60871 360
Width: 0
Flags: MW
HStem: 149 85<296.5 320>
VStem: 266 85<180 203.5>
LayerCount: 2
Fore
SplineSet
351 192 m 0
 351 168 332 149 308 149 c 0
 285 149 266 168 266 192 c 0
 266 215 285 234 308 234 c 0
 332 234 351 215 351 192 c 0
EndSplineSet
EndChar

StartChar: uniEDC8
Encoding: 60872 60872 361
Width: 0
Flags: MW
HStem: 5 85<181 204.5>
VStem: 150 86<36 59.5>
LayerCount: 2
Fore
SplineSet
236 48 m 0
 236 24 216 5 193 5 c 0
 169 5 150 24 150 48 c 0
 150 71 169 90 193 90 c 0
 216 90 236 71 236 48 c 0
EndSplineSet
EndChar

StartChar: uniEDC9
Encoding: 60873 60873 362
Width: 0
Flags: MW
HStem: 5 85<296.5 320>
VStem: 266 85<36 59.5>
LayerCount: 2
Fore
SplineSet
351 48 m 0
 351 24 332 5 308 5 c 0
 285 5 266 24 266 48 c 0
 266 71 285 90 308 90 c 0
 332 90 351 71 351 48 c 0
EndSplineSet
EndChar

StartChar: uniEDCA
Encoding: 60874 60874 363
Width: 0
Flags: MW
HStem: 870 123<50 67>
VStem: 5 62<915 949>
LayerCount: 2
Fore
SplineSet
67 993 m 1
 67 870 l 1
 33 870 5 898 5 932 c 0
 5 966 33 993 67 993 c 1
EndSplineSet
EndChar

StartChar: uniEDCB
Encoding: 60875 60875 364
Width: 0
Flags: MW
HStem: 870 123<233 250>
VStem: 188 62<915 949>
LayerCount: 2
Fore
SplineSet
250 993 m 1
 250 870 l 1
 216 870 188 898 188 932 c 0
 188 966 216 993 250 993 c 1
EndSplineSet
EndChar

StartChar: uniEDCC
Encoding: 60876 60876 365
Width: 0
Flags: MW
HStem: 694 123<233 250>
VStem: 188 62<739 773>
LayerCount: 2
Fore
SplineSet
250 817 m 1
 250 694 l 1
 216 694 188 722 188 756 c 0
 188 790 216 817 250 817 c 1
EndSplineSet
EndChar

StartChar: uniEDCD
Encoding: 60877 60877 366
Width: 0
Flags: MW
HStem: 518 123<233 250>
VStem: 188 62<563 597>
LayerCount: 2
Fore
SplineSet
250 641 m 1
 250 518 l 1
 216 518 188 546 188 580 c 0
 188 614 216 641 250 641 c 1
EndSplineSet
EndChar

StartChar: uniEDCE
Encoding: 60878 60878 367
Width: 0
Flags: MW
HStem: 288 123<233 250>
VStem: 188 62<333 367>
LayerCount: 2
Fore
SplineSet
250 411 m 1
 250 288 l 1
 216 288 188 316 188 350 c 0
 188 384 216 411 250 411 c 1
EndSplineSet
EndChar

StartChar: uniEDCF
Encoding: 60879 60879 368
Width: 0
Flags: MW
HStem: 149 85<181 193>
VStem: 150 43<180 203.5>
LayerCount: 2
Fore
SplineSet
193 234 m 1
 193 149 l 1
 169 149 150 168 150 192 c 0
 150 215 169 234 193 234 c 1
EndSplineSet
EndChar

StartChar: uniEDD0
Encoding: 60880 60880 369
Width: 0
Flags: MW
HStem: 149 85<297 309>
VStem: 266 43<180 203.5>
LayerCount: 2
Fore
SplineSet
309 234 m 1
 309 149 l 1
 285 149 266 168 266 192 c 0
 266 215 285 234 309 234 c 1
EndSplineSet
EndChar

StartChar: uniEDD1
Encoding: 60881 60881 370
Width: 0
Flags: MW
HStem: 4 86<181 193>
VStem: 150 43<35.5 59>
LayerCount: 2
Fore
SplineSet
193 90 m 1
 193 4 l 1
 169 4 150 24 150 47 c 0
 150 71 169 90 193 90 c 1
EndSplineSet
EndChar

StartChar: uniEDD2
Encoding: 60882 60882 371
Width: 0
Flags: MW
HStem: 5 85<297 309>
VStem: 266 43<36 59.5>
LayerCount: 2
Fore
SplineSet
309 90 m 1
 309 5 l 1
 285 5 266 24 266 48 c 0
 266 71 285 90 309 90 c 1
EndSplineSet
EndChar

StartChar: uniEDD3
Encoding: 60883 60883 372
Width: 0
Flags: MW
HStem: 870 123<67 84>
VStem: 67 61<915 949 915 993 915 993>
LayerCount: 2
Fore
SplineSet
128 932 m 0
 128 898 101 870 67 870 c 1
 67 993 l 1
 101 993 128 966 128 932 c 0
EndSplineSet
EndChar

StartChar: uniEDD4
Encoding: 60884 60884 373
Width: 0
Flags: MW
HStem: 870 123<250 267>
VStem: 250 61<915 949 915 993 915 993>
LayerCount: 2
Fore
SplineSet
311 932 m 0
 311 898 284 870 250 870 c 1
 250 993 l 1
 284 993 311 966 311 932 c 0
EndSplineSet
EndChar

StartChar: uniEDD5
Encoding: 60885 60885 374
Width: 0
Flags: MW
HStem: 693 123<250 267>
VStem: 250 61<738 772 738 816 738 816>
LayerCount: 2
Fore
SplineSet
311 755 m 0
 311 721 284 693 250 693 c 1
 250 816 l 1
 284 816 311 789 311 755 c 0
EndSplineSet
EndChar

StartChar: uniEDD6
Encoding: 60886 60886 375
Width: 0
Flags: MW
HStem: 519 123<250 267>
VStem: 250 61<564 598 564 642 564 642>
LayerCount: 2
Fore
SplineSet
311 581 m 0
 311 547 284 519 250 519 c 1
 250 642 l 1
 284 642 311 615 311 581 c 0
EndSplineSet
EndChar

StartChar: uniEDD7
Encoding: 60887 60887 376
Width: 0
Flags: MW
HStem: 288 123<250 267>
VStem: 250 61<333 367 333 411 333 411>
LayerCount: 2
Fore
SplineSet
311 350 m 0
 311 316 284 288 250 288 c 1
 250 411 l 1
 284 411 311 384 311 350 c 0
EndSplineSet
EndChar

StartChar: uniEDD8
Encoding: 60888 60888 377
Width: 0
Flags: MW
HStem: 149 85<193 204.5>
VStem: 193 43<180 203.5 180 234 180 234>
LayerCount: 2
Fore
SplineSet
236 192 m 0
 236 168 216 149 193 149 c 1
 193 234 l 1
 216 234 236 215 236 192 c 0
EndSplineSet
EndChar

StartChar: uniEDD9
Encoding: 60889 60889 378
Width: 0
Flags: MW
HStem: 149 85<308 319.5>
VStem: 308 43<180 203.5 180 234 180 234>
LayerCount: 2
Fore
SplineSet
351 192 m 0
 351 168 331 149 308 149 c 1
 308 234 l 1
 331 234 351 215 351 192 c 0
EndSplineSet
EndChar

StartChar: uniEDDA
Encoding: 60890 60890 379
Width: 0
Flags: MW
HStem: 5 85<193 204.5>
VStem: 193 43<36 59.5 36 90 36 90>
LayerCount: 2
Fore
SplineSet
236 48 m 0
 236 24 216 5 193 5 c 1
 193 90 l 1
 216 90 236 71 236 48 c 0
EndSplineSet
EndChar

StartChar: uniEDDB
Encoding: 60891 60891 380
Width: 0
Flags: MW
HStem: 5 85<308 319.5>
VStem: 308 43<36 59.5 36 90 36 90>
LayerCount: 2
Fore
SplineSet
351 48 m 0
 351 24 331 5 308 5 c 1
 308 90 l 1
 331 90 351 71 351 48 c 0
EndSplineSet
EndChar

StartChar: uniEDDC
Encoding: 60892 60892 381
Width: 0
Flags: MW
HStem: 878 107<35 35>
VStem: 4 31<920.5 943.5>
LayerCount: 2
Fore
SplineSet
35 985 m 1
 35 878 l 1
 16 889 4 909 4 932 c 0
 4 955 16 974 35 985 c 1
EndSplineSet
EndChar

StartChar: uniEDDD
Encoding: 60893 60893 382
Width: 0
Flags: MW
HStem: 878 107<219 219>
VStem: 188 31<920.5 943.5>
LayerCount: 2
Fore
SplineSet
219 985 m 1
 219 878 l 1
 201 889 188 909 188 932 c 0
 188 955 201 974 219 985 c 1
EndSplineSet
EndChar

StartChar: uniEDDE
Encoding: 60894 60894 383
Width: 0
Flags: MW
HStem: 702 107<219 219>
VStem: 188 31<744.5 767.5>
LayerCount: 2
Fore
SplineSet
219 809 m 1
 219 702 l 1
 201 713 188 733 188 756 c 0
 188 779 201 798 219 809 c 1
EndSplineSet
EndChar

StartChar: uniEDDF
Encoding: 60895 60895 384
Width: 0
Flags: MW
HStem: 526 107<219 219>
VStem: 188 31<568.5 591.5>
LayerCount: 2
Fore
SplineSet
219 633 m 1
 219 526 l 1
 201 537 188 557 188 580 c 0
 188 603 201 622 219 633 c 1
EndSplineSet
EndChar

StartChar: uniEDE0
Encoding: 60896 60896 385
Width: 0
Flags: MW
HStem: 297 107<219 219>
VStem: 188 31<339 361.5>
LayerCount: 2
Fore
SplineSet
219 404 m 1
 219 297 l 1
 201 308 188 328 188 350 c 0
 188 373 201 393 219 404 c 1
EndSplineSet
EndChar

StartChar: uniEDE1
Encoding: 60897 60897 386
Width: 0
Flags: MW
HStem: 155 73<172 172>
VStem: 150 22<184 199.5>
LayerCount: 2
Fore
SplineSet
172 228 m 1
 172 155 l 1
 159 162 150 176 150 192 c 0
 150 207 159 221 172 228 c 1
EndSplineSet
EndChar

StartChar: uniEDE2
Encoding: 60898 60898 387
Width: 0
Flags: MW
HStem: 155 73<287 287>
VStem: 266 21<184 199.5>
LayerCount: 2
Fore
SplineSet
287 228 m 1
 287 155 l 1
 274 162 266 176 266 192 c 0
 266 207 274 221 287 228 c 1
EndSplineSet
EndChar

StartChar: uniEDE3
Encoding: 60899 60899 388
Width: 0
Flags: MW
HStem: 10 74<172 172>
VStem: 150 22<39 55>
LayerCount: 2
Fore
SplineSet
172 84 m 1
 172 10 l 1
 159 18 150 31 150 47 c 0
 150 63 159 77 172 84 c 1
EndSplineSet
EndChar

StartChar: uniEDE4
Encoding: 60900 60900 389
Width: 0
Flags: MW
HStem: 11 74<287 287>
VStem: 266 21<40 56>
LayerCount: 2
Fore
SplineSet
287 85 m 1
 287 11 l 1
 274 19 266 32 266 48 c 0
 266 64 274 78 287 85 c 1
EndSplineSet
EndChar

StartChar: uniEDE5
Encoding: 60901 60901 390
Width: 0
Flags: MW
HStem: 878 107<97 97>
VStem: 97 31<920.5 943.5 920.5 985>
LayerCount: 2
Fore
SplineSet
97 878 m 1
 97 985 l 1
 116 974 128 955 128 932 c 0
 128 909 116 889 97 878 c 1
EndSplineSet
EndChar

StartChar: uniEDE6
Encoding: 60902 60902 391
Width: 0
Flags: MW
HStem: 878 107<281 281>
VStem: 281 30<920.5 943.5 920.5 985>
LayerCount: 2
Fore
SplineSet
281 878 m 1
 281 985 l 1
 299 974 311 955 311 932 c 0
 311 909 299 889 281 878 c 1
EndSplineSet
EndChar

StartChar: uniEDE7
Encoding: 60903 60903 392
Width: 0
Flags: MW
HStem: 703 107<281 281>
VStem: 281 30<745 767.5 745 810>
LayerCount: 2
Fore
SplineSet
281 703 m 1
 281 810 l 1
 299 799 311 779 311 756 c 0
 311 734 299 714 281 703 c 1
EndSplineSet
EndChar

StartChar: uniEDE8
Encoding: 60904 60904 393
Width: 0
Flags: MW
HStem: 526 107<281 281>
VStem: 281 30<568.5 591.5 568.5 633>
LayerCount: 2
Fore
SplineSet
281 526 m 1
 281 633 l 1
 299 622 311 603 311 580 c 0
 311 557 299 537 281 526 c 1
EndSplineSet
EndChar

StartChar: uniEDE9
Encoding: 60905 60905 394
Width: 0
Flags: MW
HStem: 296 107<281 281>
VStem: 281 30<338.5 361.5 338.5 403>
LayerCount: 2
Fore
SplineSet
281 296 m 1
 281 403 l 1
 299 392 311 373 311 350 c 0
 311 327 299 307 281 296 c 1
EndSplineSet
EndChar

StartChar: uniEDEA
Encoding: 60906 60906 395
Width: 0
Flags: MW
HStem: 155 74<214 214>
VStem: 214 22<184 200 184 229>
LayerCount: 2
Fore
SplineSet
214 155 m 1
 214 229 l 1
 227 221 236 208 236 192 c 0
 236 176 227 162 214 155 c 1
EndSplineSet
EndChar

StartChar: uniEDEB
Encoding: 60907 60907 396
Width: 0
Flags: MW
HStem: 155 74<330 330>
VStem: 330 21<184 200 184 229>
LayerCount: 2
Fore
SplineSet
330 155 m 1
 330 229 l 1
 342 221 351 208 351 192 c 0
 351 176 342 162 330 155 c 1
EndSplineSet
EndChar

StartChar: uniEDEC
Encoding: 60908 60908 397
Width: 0
Flags: MW
HStem: 11 73<214 214>
VStem: 214 22<40 55.5 40 84>
LayerCount: 2
Fore
SplineSet
214 11 m 1
 214 84 l 1
 227 77 236 63 236 48 c 0
 236 32 227 18 214 11 c 1
EndSplineSet
EndChar

StartChar: uniEDED
Encoding: 60909 60909 398
Width: 0
Flags: MW
HStem: 11 73<330 330>
VStem: 330 21<40 55.5 40 84>
LayerCount: 2
Fore
SplineSet
330 11 m 1
 330 84 l 1
 342 77 351 63 351 48 c 0
 351 32 342 18 330 11 c 1
EndSplineSet
EndChar

StartChar: uniEDEE
Encoding: 60910 60910 399
Width: 0
Flags: MW
HStem: 863 137<3.5 131.5>
VStem: -1 137<867.5 995.5>
LayerCount: 2
Fore
SplineSet
4 863 m 0
 3 863 2 864 1 865 c 0
 0 866 -1 867 -1 868 c 0
 -1 869 0 871 1 872 c 2
 128 999 l 2
 129 1000 130 1000 131 1000 c 0
 132 1000 134 1000 135 999 c 0
 136 998 136 996 136 995 c 0
 136 994 136 993 135 992 c 2
 8 865 l 2
 7 864 5 863 4 863 c 0
EndSplineSet
EndChar

StartChar: uniEDEF
Encoding: 60911 60911 400
Width: 0
Flags: MW
HStem: 863 137<186 314.5>
VStem: 311 8<994.5 999.5>
LayerCount: 2
Fore
SplineSet
187 863 m 0
 185 863 184 864 183 865 c 0
 182 866 181 867 181 868 c 0
 181 869 182 871 183 872 c 2
 311 999 l 2
 311 1000 313 1000 314 1000 c 0
 315 1000 317 1000 318 999 c 0
 319 998 319 996 319 995 c 0
 319 994 319 993 318 992 c 2
 190 865 l 2
 189 864 188 863 187 863 c 0
EndSplineSet
EndChar

StartChar: uniEDF0
Encoding: 60912 60912 401
Width: 0
Flags: MW
HStem: 686 137<186 314.5>
VStem: 311 8<817.5 822.5>
LayerCount: 2
Fore
SplineSet
187 686 m 0
 185 686 184 687 183 688 c 0
 182 689 181 690 181 691 c 0
 181 692 182 694 183 695 c 2
 311 822 l 2
 311 823 313 823 314 823 c 0
 315 823 317 823 318 822 c 0
 319 821 319 819 319 818 c 0
 319 817 319 816 318 815 c 2
 190 688 l 2
 189 687 188 686 187 686 c 0
EndSplineSet
EndChar

StartChar: uniEDF1
Encoding: 60913 60913 402
Width: 0
Flags: MW
HStem: 508 137<186 314.5>
VStem: 311 8<639.5 644.5>
LayerCount: 2
Fore
SplineSet
187 508 m 0
 185 508 184 508 183 509 c 0
 182 510 181 512 181 513 c 0
 181 514 182 515 183 516 c 2
 311 644 l 2
 311 645 313 645 314 645 c 0
 315 645 317 645 318 644 c 0
 319 643 319 641 319 640 c 0
 319 639 319 638 318 637 c 2
 190 509 l 2
 189 508 188 508 187 508 c 0
EndSplineSet
EndChar

StartChar: uniEDF2
Encoding: 60914 60914 403
Width: 0
Flags: MW
HStem: 283 137<186 314.5>
VStem: 311 8<414.5 419.5>
LayerCount: 2
Fore
SplineSet
187 283 m 0
 185 283 184 283 183 284 c 0
 182 285 181 287 181 288 c 0
 181 289 182 290 183 291 c 2
 311 419 l 2
 311 420 313 420 314 420 c 0
 315 420 317 420 318 419 c 0
 319 418 319 416 319 415 c 0
 319 414 319 413 318 412 c 2
 190 284 l 2
 189 283 188 283 187 283 c 0
EndSplineSet
EndChar

StartChar: uniEDF3
Encoding: 60915 60915 404
Width: 0
Flags: MW
HStem: 137 106<143 239.5>
VStem: 138 106<141.5 238.5>
LayerCount: 2
Fore
SplineSet
144 137 m 0
 142 137 141 138 140 139 c 0
 139 140 138 141 138 142 c 0
 138 143 139 145 140 146 c 2
 236 242 l 2
 237 243 238 243 239 243 c 0
 240 243 242 243 243 242 c 0
 244 241 244 239 244 238 c 0
 244 237 244 236 243 235 c 2
 147 139 l 2
 146 138 145 137 144 137 c 0
EndSplineSet
EndChar

StartChar: uniEDF4
Encoding: 60916 60916 405
Width: 0
Flags: MW
HStem: 137 106<260 356.5>
VStem: 255 106<141.5 238.5>
LayerCount: 2
Fore
SplineSet
261 137 m 0
 259 137 258 138 257 139 c 0
 256 140 255 141 255 142 c 0
 255 143 256 145 257 146 c 2
 353 242 l 2
 354 243 355 243 356 243 c 0
 357 243 359 243 360 242 c 0
 361 241 361 239 361 238 c 0
 361 237 361 236 360 235 c 2
 264 139 l 2
 263 138 262 137 261 137 c 0
EndSplineSet
EndChar

StartChar: uniEDF5
Encoding: 60917 60917 406
Width: 0
Flags: MW
HStem: -1 21G<147 147>
VStem: 138 106<2.5 99.5>
LayerCount: 2
Fore
SplineSet
144 -2 m 0
 142 -2 141 -2 140 -1 c 0
 139 0 138 2 138 3 c 0
 138 4 139 5 140 6 c 2
 236 102 l 2
 237 103 238 103 239 103 c 0
 240 103 242 103 243 102 c 0
 244 101 244 100 244 99 c 0
 244 98 244 96 243 95 c 2
 147 -1 l 2
 146 -2 145 -2 144 -2 c 0
EndSplineSet
EndChar

StartChar: uniEDF6
Encoding: 60918 60918 407
Width: 0
Flags: MW
HStem: -1 21G<264 264>
VStem: 255 106<2.5 99.5>
LayerCount: 2
Fore
SplineSet
261 -2 m 0
 259 -2 258 -2 257 -1 c 0
 256 0 255 2 255 3 c 0
 255 4 256 5 257 6 c 2
 353 102 l 2
 354 103 355 103 356 103 c 0
 357 103 359 103 360 102 c 0
 361 101 361 100 361 99 c 0
 361 98 361 96 360 95 c 2
 264 -1 l 2
 263 -2 262 -2 261 -2 c 0
EndSplineSet
EndChar
